{"glyphs":{"0":{"ha":906,"x_min":67,"x_max":879,"o":"m 82 506 q 238 872 122 736 q 560 1007 354 1007 q 802 917 725 1007 q 879 668 879 828 q 863 506 879 603 q 706 140 822 275 q 383 4 589 4 q 142 94 218 4 q 67 343 67 183 q 82 506 67 417 m 628 506 q 643 640 643 592 q 615 747 643 710 q 521 785 588 785 q 381 711 425 785 q 315 506 338 638 q 300 371 300 419 q 328 264 300 301 q 422 226 356 226 q 562 300 518 226 q 628 506 606 374 z "},"1":{"ha":522,"x_min":101,"x_max":525,"o":"m 101 764 l 140 985 l 525 985 l 351 0 l 104 0 l 239 764 l 101 764 z "},"2":{"ha":793,"x_min":-14,"x_max":796,"o":"m 71 229 q 313 408 222 338 q 469 553 403 479 q 546 696 535 628 q 550 732 550 715 q 528 793 550 772 q 464 814 507 814 q 328 663 357 814 l 97 663 q 248 926 133 838 q 511 1014 363 1014 q 726 949 656 1014 q 796 776 796 883 q 790 715 796 743 q 644 451 765 574 q 343 207 522 329 l 718 207 l 683 14 l -14 14 l 17 190 l 71 229 z "},"3":{"ha":840,"x_min":39,"x_max":814,"o":"m 129 728 q 267 957 161 876 q 529 1038 372 1038 q 740 975 667 1038 q 814 813 814 913 q 810 763 814 788 q 738 613 793 671 q 617 535 682 556 l 617 529 q 714 460 679 507 q 749 343 749 414 q 743 285 749 313 q 617 73 719 154 q 358 -8 514 -8 q 124 57 210 -8 q 39 256 39 122 q 44 321 39 274 l 275 321 q 272 290 272 299 q 300 215 272 242 q 383 189 328 189 q 483 229 446 189 q 521 332 521 269 q 483 406 521 383 q 363 429 444 429 l 318 429 l 353 622 l 397 622 q 575 733 554 622 q 578 758 578 750 q 555 818 578 797 q 489 839 532 839 q 404 807 436 839 q 360 728 372 775 l 129 728 z "},"4":{"ha":940,"x_min":31,"x_max":885,"o":"m 31 181 l 64 372 l 613 1000 l 879 1000 l 771 386 l 885 386 l 849 181 l 735 181 l 703 0 l 464 0 l 497 181 l 31 181 m 613 739 l 317 386 l 550 386 l 613 739 z "},"5":{"ha":903,"x_min":97,"x_max":885,"o":"m 849 807 l 415 807 l 382 615 q 468 665 415 646 q 579 685 521 685 q 772 614 710 685 q 833 431 833 543 q 826 353 833 397 q 689 95 797 190 q 414 0 581 0 q 179 70 261 0 q 97 258 97 140 q 100 301 97 271 l 331 301 q 360 230 332 258 q 442 201 388 201 q 546 243 507 201 q 599 354 585 285 q 601 392 601 368 q 492 494 601 494 q 410 472 444 494 q 360 411 376 449 l 131 411 l 236 1015 l 885 1015 l 849 807 z "},"6":{"ha":885,"x_min":86,"x_max":846,"o":"m 624 740 q 598 817 621 792 q 524 843 575 843 q 398 775 444 843 q 322 557 351 707 q 425 633 363 606 q 557 661 488 661 q 740 597 674 661 q 807 417 807 533 q 800 335 807 371 q 728 157 782 233 q 588 38 674 81 q 394 -6 503 -6 q 158 76 229 -6 q 86 313 86 158 q 107 514 86 393 q 265 906 154 778 q 568 1035 375 1035 q 778 962 710 1035 q 846 776 846 889 q 844 740 846 753 l 624 740 m 467 474 q 351 429 400 474 q 301 303 301 385 q 332 224 301 251 q 421 196 363 196 q 524 233 482 196 q 578 333 567 269 q 581 367 581 356 q 551 445 581 417 q 467 474 522 474 z "},"7":{"ha":743,"x_min":29,"x_max":817,"o":"m 786 826 l 278 0 l 29 0 l 542 800 l 111 800 l 147 1001 l 817 1001 l 786 826 z "},"8":{"ha":900,"x_min":53,"x_max":869,"o":"m 256 551 q 160 719 160 607 q 164 769 160 743 q 227 906 176 842 q 364 1008 278 969 q 564 1047 450 1047 q 734 1016 665 1047 q 836 932 803 985 q 869 815 869 879 q 865 769 869 793 q 808 639 853 694 q 697 551 763 583 q 783 473 753 522 q 813 358 813 424 q 807 300 813 328 q 727 128 789 200 q 573 18 665 56 q 375 -19 481 -19 q 142 49 232 -19 q 53 238 53 117 q 58 300 53 271 q 125 451 74 388 q 256 551 176 515 m 529 853 q 438 821 476 853 q 390 732 400 789 q 388 706 388 713 q 415 638 388 663 q 488 614 442 614 q 589 654 547 614 q 631 761 631 694 q 603 829 631 806 q 529 853 576 853 m 458 449 q 347 413 393 449 q 289 313 300 376 q 286 283 286 293 q 318 205 286 235 q 410 175 350 175 q 533 223 486 175 q 581 342 581 271 q 548 420 581 392 q 458 449 515 449 z "},"9":{"ha":854,"x_min":78,"x_max":833,"o":"m 300 297 q 328 215 303 243 q 408 188 354 188 q 524 253 482 188 q 592 465 567 318 q 498 399 556 422 q 375 375 440 375 q 188 438 257 375 q 118 618 118 500 q 125 696 118 661 q 262 943 153 851 q 532 1035 371 1035 q 763 956 693 1035 q 833 725 833 876 q 814 532 833 642 q 729 235 782 351 q 589 57 676 118 q 371 -4 501 -4 q 151 71 224 -4 q 78 261 78 146 q 79 297 78 285 l 300 297 m 461 563 q 573 608 529 563 q 617 731 617 654 q 588 807 617 781 q 504 833 558 833 q 401 797 443 833 q 349 696 360 760 q 346 665 346 674 q 375 590 346 618 q 461 563 404 563 z "},"\u0000":{"ha":0,"x_min":0,"x_max":0,"o":""},"\r":{"ha":321,"x_min":0,"x_max":0,"o":""}," ":{"ha":321,"x_min":0,"x_max":0,"o":""},"अ":{"ha":1164,"x_min":51,"x_max":1278,"o":"m 1278 1028 l 1247 846 l 1110 846 l 960 0 l 743 0 l 807 365 l 671 365 l 669 353 q 555 156 647 229 q 333 82 463 82 q 127 147 203 82 q 51 319 51 211 q 57 375 51 336 l 261 375 q 260 354 260 368 q 284 293 260 317 q 351 269 308 269 q 433 299 400 269 q 475 375 467 328 q 476 396 476 382 q 449 460 476 435 q 365 485 421 485 l 303 485 l 333 661 l 397 661 q 497 695 458 661 q 535 779 535 729 q 513 835 535 814 q 453 856 490 856 q 376 829 410 856 q 336 761 343 803 l 135 761 q 198 907 149 843 q 322 1006 247 971 q 486 1040 396 1040 q 669 985 603 1040 q 736 836 736 931 q 732 788 736 813 q 670 658 718 713 q 549 581 622 604 l 547 575 q 611 544 588 564 l 840 544 l 924 1028 l 1278 1028 z "},"आ":{"ha":1606,"x_min":51,"x_max":1719,"o":"m 1688 846 l 1551 846 l 1403 0 l 1185 0 l 1333 846 l 1110 846 l 960 0 l 743 0 l 807 365 l 671 365 l 669 353 q 555 156 647 229 q 333 82 463 82 q 127 147 203 82 q 51 319 51 211 q 57 375 51 336 l 261 375 q 260 354 260 368 q 284 293 260 317 q 351 269 308 269 q 433 299 400 269 q 475 375 467 328 q 476 396 476 382 q 449 460 476 435 q 365 485 421 485 l 303 485 l 333 661 l 397 661 q 497 695 458 661 q 535 779 535 729 q 513 835 535 814 q 453 856 490 856 q 376 829 410 856 q 336 761 343 803 l 135 761 q 198 907 149 843 q 322 1006 247 971 q 486 1040 396 1040 q 669 985 603 1040 q 736 836 736 931 q 732 788 736 813 q 670 658 718 713 q 549 581 622 604 l 547 575 q 611 544 588 564 l 840 544 l 924 1028 l 1719 1028 l 1688 846 z "},"इ":{"ha":813,"x_min":11,"x_max":933,"o":"m 721 846 l 703 744 l 675 590 l 417 590 q 344 572 374 590 q 314 511 314 553 q 389 463 314 463 l 449 463 q 626 413 554 463 q 697 257 697 363 q 692 201 697 228 q 599 37 672 99 q 415 -25 526 -25 q 308 -3 350 -25 q 246 47 267 19 l 218 -117 l 11 -117 l 74 240 l 269 240 q 292 164 265 192 q 372 136 319 136 q 456 165 425 136 q 488 238 488 194 q 379 308 488 308 q 293 311 326 308 q 153 360 211 315 q 94 490 94 406 q 99 535 94 513 q 197 694 117 643 q 390 744 276 744 l 492 744 l 508 846 l 39 846 l 71 1028 l 933 1028 l 901 846 l 721 846 z "},"ई":{"ha":803,"x_min":11,"x_max":1118,"o":"m 918 1133 q 922 1172 922 1154 q 907 1221 922 1204 q 864 1238 892 1238 q 798 1208 822 1238 q 764 1119 774 1179 l 747 1028 l 936 1028 l 904 846 l 722 846 l 696 700 l 694 700 l 675 590 l 417 590 q 344 572 374 590 q 314 511 314 553 q 389 463 314 463 l 449 463 q 626 413 554 463 q 697 257 697 363 q 692 201 697 228 q 599 37 672 99 q 415 -25 526 -25 q 308 -3 350 -25 q 246 47 267 19 l 218 -117 l 11 -117 l 74 240 l 269 240 q 292 164 265 192 q 372 136 319 136 q 456 165 425 136 q 488 236 488 193 q 379 308 488 308 q 293 311 326 308 q 153 361 211 315 q 94 492 94 407 q 99 535 94 513 q 197 694 117 643 q 390 744 276 744 l 493 744 l 511 846 l 42 846 l 74 1028 l 546 1028 l 563 1117 q 665 1332 586 1246 q 892 1418 743 1418 q 1060 1365 1001 1418 q 1118 1218 1118 1313 q 1108 1133 1118 1176 l 918 1133 z "},"उ":{"ha":785,"x_min":17,"x_max":899,"o":"m 867 846 l 746 846 l 731 763 q 671 625 715 679 q 567 557 626 571 l 565 553 q 657 483 624 535 q 690 358 690 432 q 686 307 690 335 q 562 88 661 171 q 315 6 463 6 q 97 74 178 6 q 17 263 17 143 q 24 331 17 292 l 231 331 q 228 304 228 314 q 258 229 228 258 q 339 200 289 200 q 433 235 394 200 q 483 325 472 269 q 486 351 486 342 q 458 425 486 396 q 374 454 431 454 l 290 454 l 322 644 l 375 644 q 472 677 432 644 q 522 772 511 710 l 535 846 l 35 846 l 67 1028 l 899 1028 l 867 846 z "},"ऊ":{"ha":1182,"x_min":17,"x_max":1296,"o":"m 731 763 q 671 625 715 679 q 567 557 626 571 l 565 553 l 814 553 q 1021 500 946 553 q 1096 340 1096 447 q 1090 281 1096 308 q 987 95 1069 164 q 781 26 904 26 q 700 35 742 26 l 729 199 q 772 197 743 197 q 845 220 815 197 q 883 289 875 243 q 885 307 885 296 q 858 362 885 343 q 786 381 832 381 l 683 381 q 685 346 685 369 q 681 294 685 322 q 616 147 665 213 q 489 43 567 81 q 315 6 411 6 q 97 74 178 6 q 17 263 17 143 q 24 331 17 292 l 231 331 q 228 304 228 314 q 258 229 228 258 q 339 200 289 200 q 433 235 394 200 q 483 325 472 269 q 486 351 486 342 q 458 425 486 396 q 374 454 431 454 l 290 454 l 322 644 l 375 644 q 472 677 432 644 q 522 772 511 710 l 535 846 l 35 846 l 67 1028 l 1296 1028 l 1264 846 l 746 846 l 731 763 z "},"ऋ":{"ha":1461,"x_min":35,"x_max":1575,"o":"m 922 846 l 883 626 l 1085 626 q 1149 642 1124 626 q 1183 688 1174 658 l 1194 753 l 1382 753 l 1296 267 l 1260 267 q 1160 233 1196 267 q 1125 149 1125 199 q 1155 92 1125 110 q 1236 74 1185 74 q 1317 83 1275 74 l 1286 -90 q 1176 -100 1233 -100 q 983 -47 1056 -100 q 910 101 910 6 q 914 149 910 124 q 986 296 929 236 q 1129 382 1043 356 l 1144 474 q 1022 454 1090 454 l 853 454 l 772 0 l 572 0 l 614 238 l 313 0 l 35 0 l 36 10 l 647 447 q 600 525 638 496 q 503 554 563 554 q 354 501 414 554 q 279 358 294 447 l 60 358 q 137 557 81 471 q 278 691 193 643 q 471 739 364 739 q 685 642 621 739 l 721 846 l 35 846 l 67 1028 l 1575 1028 l 1543 846 l 922 846 z "},"ॠ":{"ha":1464,"x_min":33,"x_max":1578,"o":"m 921 846 l 882 626 l 1085 626 q 1149 642 1124 626 q 1183 689 1174 658 l 1194 753 l 1382 753 l 1294 261 l 1246 261 q 1135 193 1147 261 q 1133 181 1133 189 q 1224 128 1133 128 l 1303 128 l 1275 -35 l 1206 -35 q 1081 -106 1094 -35 q 1079 -118 1079 -110 q 1183 -176 1079 -176 q 1329 -154 1254 -176 l 1301 -315 q 1217 -337 1267 -329 q 1121 -344 1167 -344 q 938 -301 1011 -344 q 864 -168 864 -257 q 913 -33 864 -90 q 1036 40 963 24 l 1038 46 q 956 88 986 57 q 925 171 925 119 q 928 206 925 193 q 998 322 942 281 q 1128 375 1054 364 l 1146 475 q 1021 454 1085 454 l 851 454 l 772 0 l 572 0 l 614 238 l 313 0 l 33 0 l 35 10 l 647 447 q 600 525 638 496 q 503 554 563 554 q 353 501 414 554 q 278 358 293 447 l 60 358 q 135 557 79 471 q 278 691 192 643 q 469 739 364 739 q 683 642 619 739 l 719 846 l 35 846 l 67 1028 l 1578 1028 l 1546 846 l 921 846 z "},"ऌ":{"ha":1258,"x_min":26,"x_max":1364,"o":"m 1046 846 l 1024 714 q 1126 628 1089 688 q 1164 478 1164 568 q 1157 400 1164 446 q 1110 261 1144 326 l 1100 261 q 939 161 956 261 q 938 143 938 156 q 969 88 938 106 q 1054 69 1001 69 q 1136 79 1099 69 l 1106 -94 q 994 -104 1053 -104 q 798 -51 871 -104 q 725 101 725 1 q 729 151 725 125 q 800 288 743 229 q 932 371 857 347 l 939 401 q 943 439 943 422 q 918 515 943 486 q 847 543 893 543 q 743 497 782 543 q 693 379 704 450 l 685 339 l 504 339 l 511 379 q 515 428 515 404 q 418 543 515 543 q 317 503 357 543 q 265 397 278 464 q 261 356 261 375 q 294 267 261 296 q 385 238 326 238 q 425 239 408 238 l 390 50 q 342 49 369 49 q 115 120 193 49 q 38 318 38 192 q 44 400 38 364 q 120 585 64 510 q 254 697 176 660 q 418 735 332 735 q 563 691 511 735 q 631 576 614 647 l 635 576 q 708 664 664 626 q 811 719 753 701 l 833 846 l 26 846 l 58 1028 l 1364 1028 l 1331 846 l 1046 846 z "},"ॡ":{"ha":1272,"x_min":28,"x_max":1378,"o":"m 1044 846 l 1022 715 q 1126 629 1088 688 q 1165 483 1165 571 q 1157 400 1165 444 q 1110 261 1143 328 l 1068 261 q 956 193 969 261 l 954 182 q 1047 128 954 128 l 1126 128 l 1099 -35 l 1028 -35 q 944 -50 976 -35 q 903 -106 911 -65 q 901 -119 901 -110 q 1007 -176 901 -176 q 1087 -169 1046 -176 q 1151 -154 1128 -161 l 1124 -315 q 1040 -337 1090 -329 q 944 -344 989 -344 q 760 -301 833 -344 q 686 -168 686 -258 q 735 -33 686 -90 q 858 40 785 24 l 860 46 q 747 172 747 72 q 750 206 747 181 q 814 317 764 276 q 932 372 864 357 q 939 401 938 392 q 943 439 943 422 q 918 515 943 486 q 847 543 893 543 q 742 497 782 543 q 692 379 701 450 l 685 339 l 504 339 l 511 379 q 515 426 515 404 q 492 511 515 479 q 418 543 469 543 q 317 503 357 543 q 265 397 276 464 q 261 354 261 375 q 294 267 261 296 q 385 238 326 238 q 424 239 408 238 l 390 50 q 342 49 369 49 q 115 120 193 49 q 38 318 38 192 q 44 400 38 364 q 119 585 64 510 q 253 697 175 660 q 418 735 331 735 q 563 691 510 735 q 631 576 615 647 l 635 576 q 709 664 664 626 q 813 721 754 701 l 833 846 l 28 846 l 60 1028 l 1378 1028 l 1344 846 l 1044 846 z "},"ए":{"ha":906,"x_min":33,"x_max":1019,"o":"m 986 846 l 865 846 l 846 736 q 748 514 821 590 q 540 438 675 438 q 467 443 501 438 l 500 639 q 528 638 510 638 q 636 742 618 638 l 654 846 l 389 846 l 304 365 q 300 325 300 344 q 330 241 300 269 q 413 213 360 213 q 508 247 469 213 q 557 340 547 281 l 769 340 q 646 108 744 190 q 396 26 547 26 q 162 100 243 26 q 81 299 81 174 q 88 374 81 329 l 171 846 l 33 846 l 65 1028 l 1019 1028 l 986 846 z "},"ऐ":{"ha":906,"x_min":35,"x_max":1021,"o":"m 988 846 l 867 846 l 847 736 q 749 514 822 590 q 542 438 676 438 q 468 443 503 438 l 501 639 q 529 638 511 638 q 638 742 619 638 l 656 846 l 390 846 l 306 365 q 301 325 301 344 q 331 241 301 269 q 414 213 361 213 q 510 247 471 213 q 558 340 549 281 l 771 340 q 647 108 746 190 q 397 26 549 26 q 163 100 244 26 q 82 299 82 174 q 89 374 82 329 l 172 846 l 35 846 l 67 1028 l 682 1028 q 613 1150 642 1113 q 550 1201 585 1188 q 451 1214 515 1214 l 379 1214 l 411 1389 l 481 1389 q 659 1364 596 1388 q 774 1265 722 1340 q 886 1028 825 1190 l 1021 1028 l 988 846 z "},"ओ":{"ha":1606,"x_min":51,"x_max":1719,"o":"m 1719 1028 l 1688 846 l 1551 846 l 1403 0 l 1185 0 l 1333 846 l 1110 846 l 960 0 l 743 0 l 807 365 l 671 365 l 669 353 q 555 156 647 229 q 333 82 463 82 q 127 147 203 82 q 51 319 51 211 q 57 375 51 336 l 261 375 q 260 354 260 368 q 284 293 260 317 q 351 269 308 269 q 433 299 400 269 q 475 375 467 328 q 476 396 476 382 q 449 460 476 435 q 365 485 421 485 l 303 485 l 333 661 l 397 661 q 497 695 458 661 q 535 779 535 729 q 513 835 535 814 q 453 856 490 856 q 376 829 410 856 q 336 761 343 803 l 135 761 q 198 907 149 843 q 322 1006 247 971 q 486 1040 396 1040 q 669 985 603 1040 q 736 836 736 931 q 732 788 736 813 q 670 658 718 713 q 549 581 622 604 l 547 575 q 611 544 588 564 l 840 544 l 924 1028 l 1397 1028 q 1329 1150 1357 1113 q 1267 1201 1301 1188 q 1168 1214 1232 1214 l 1096 1214 l 1126 1389 l 1196 1389 q 1374 1364 1311 1388 q 1488 1265 1438 1340 q 1601 1028 1539 1190 l 1719 1028 z "},"औ":{"ha":1606,"x_min":51,"x_max":1719,"o":"m 1719 1028 l 1688 846 l 1551 846 l 1403 0 l 1185 0 l 1333 846 l 1110 846 l 960 0 l 743 0 l 807 365 l 671 365 l 669 353 q 555 156 647 229 q 333 82 463 82 q 127 147 203 82 q 51 319 51 211 q 57 375 51 336 l 261 375 q 260 354 260 368 q 284 293 260 317 q 351 269 308 269 q 433 299 400 269 q 475 375 467 328 q 476 396 476 382 q 449 460 476 435 q 365 485 421 485 l 303 485 l 333 661 l 397 661 q 497 695 458 661 q 535 779 535 729 q 513 835 535 814 q 453 856 490 856 q 376 829 410 856 q 336 761 343 803 l 135 761 q 198 907 149 843 q 322 1006 247 971 q 486 1040 396 1040 q 669 985 603 1040 q 736 836 736 931 q 732 788 736 813 q 670 658 718 713 q 549 581 622 604 l 547 575 q 611 544 588 564 l 840 544 l 924 1028 l 1407 1028 q 1303 1097 1331 1082 q 1244 1117 1276 1113 q 1132 1122 1211 1122 l 1058 1122 l 1082 1258 l 1151 1258 q 1262 1254 1226 1258 q 1329 1234 1297 1250 q 1404 1179 1361 1218 q 1338 1297 1371 1260 q 1270 1342 1304 1333 q 1178 1351 1236 1351 l 1099 1351 l 1122 1489 l 1196 1489 q 1368 1464 1313 1489 q 1472 1347 1424 1439 q 1599 1028 1521 1256 l 1719 1028 z "},"ऍ":{"ha":907,"x_min":-3,"x_max":983,"o":"m 528 1138 q 312 1198 383 1138 q 240 1365 240 1258 q 247 1432 240 1393 l 433 1432 q 431 1403 431 1413 q 461 1327 431 1356 q 556 1299 492 1299 q 671 1336 628 1299 q 725 1432 714 1374 l 911 1432 q 791 1217 889 1297 q 528 1138 693 1138 m 950 846 l 829 846 l 810 736 q 712 514 785 590 q 504 438 639 438 q 431 443 465 438 l 464 639 q 492 638 474 638 q 600 742 582 638 l 618 846 l 353 846 l 268 365 q 264 325 264 344 q 294 241 264 269 q 376 213 324 213 q 472 247 433 213 q 521 340 511 281 l 733 340 q 610 108 708 190 q 360 26 511 26 q 126 100 207 26 q 44 299 44 174 q 51 374 44 329 l 135 846 l -3 846 l 29 1028 l 983 1028 l 950 846 z "},"ॲ":{"ha":1164,"x_min":51,"x_max":1479,"o":"m 1278 1028 l 1247 846 l 1110 846 l 960 0 l 743 0 l 807 365 l 671 365 l 669 353 q 555 156 647 229 q 333 82 463 82 q 127 147 203 82 q 51 319 51 211 q 57 375 51 336 l 261 375 q 260 354 260 368 q 284 293 260 317 q 351 269 308 269 q 433 299 400 269 q 475 375 467 328 q 476 396 476 382 q 449 460 476 435 q 365 485 421 485 l 303 485 l 333 661 l 397 661 q 497 695 458 661 q 535 779 535 729 q 513 835 535 814 q 453 856 490 856 q 376 829 410 856 q 336 761 343 803 l 135 761 q 198 907 149 843 q 322 1006 247 971 q 486 1040 396 1040 q 669 985 603 1040 q 736 836 736 931 q 732 788 736 813 q 670 658 718 713 q 549 581 622 604 l 547 575 q 611 544 588 564 l 840 544 l 924 1028 l 1278 1028 m 1479 1438 q 1363 1224 1456 1303 q 1106 1144 1269 1144 q 883 1207 958 1144 q 808 1376 808 1269 q 814 1438 808 1410 l 1001 1438 q 999 1408 999 1418 q 1029 1333 999 1361 q 1124 1306 1060 1306 q 1239 1342 1196 1306 q 1293 1438 1282 1379 l 1479 1438 z "},"ऑ":{"ha":1606,"x_min":51,"x_max":1719,"o":"m 1688 846 l 1551 846 l 1403 0 l 1185 0 l 1333 846 l 1110 846 l 960 0 l 743 0 l 807 365 l 671 365 l 669 353 q 555 156 647 229 q 333 82 463 82 q 127 147 203 82 q 51 319 51 211 q 57 375 51 336 l 261 375 q 260 354 260 368 q 284 293 260 317 q 351 269 308 269 q 433 299 400 269 q 475 375 467 328 q 476 396 476 382 q 449 460 476 435 q 365 485 421 485 l 303 485 l 333 661 l 397 661 q 497 695 458 661 q 535 779 535 729 q 513 835 535 814 q 453 856 490 856 q 376 829 410 856 q 336 761 343 803 l 135 761 q 198 907 149 843 q 322 1006 247 971 q 486 1040 396 1040 q 669 985 603 1040 q 736 836 736 931 q 732 788 736 813 q 670 658 718 713 q 549 581 622 604 l 547 575 q 611 544 588 564 l 840 544 l 924 1028 l 1719 1028 l 1688 846 m 1693 1431 q 1576 1217 1669 1296 q 1319 1138 1483 1138 q 1097 1200 1172 1138 q 1022 1369 1022 1263 q 1028 1431 1022 1403 l 1215 1431 q 1213 1401 1213 1411 q 1243 1326 1213 1354 q 1338 1299 1274 1299 q 1453 1335 1410 1299 q 1507 1431 1496 1372 l 1693 1431 z "},"ा":{"ha":443,"x_min":22,"x_max":557,"o":"m 22 0 l 171 846 l 35 846 l 67 1028 l 557 1028 l 525 846 l 389 846 l 240 0 l 22 0 z "},"ि":{"ha":443,"x_min":21,"x_max":1364,"o":"m 854 1432 q 1127 1387 1013 1432 q 1303 1260 1242 1342 q 1364 1072 1364 1179 q 1358 1004 1364 1036 l 1354 979 l 1136 979 l 1139 1000 q 1142 1038 1142 1025 q 1051 1199 1142 1143 q 822 1254 960 1254 q 561 1197 675 1254 q 419 1028 447 1140 l 557 1028 l 525 846 l 389 846 l 239 0 l 21 0 l 171 846 l 35 846 l 67 1028 l 203 1028 q 321 1241 232 1150 q 547 1382 410 1332 q 854 1432 683 1432 z "},"ी":{"ha":443,"x_min":-249,"x_max":558,"o":"m 558 1028 l 526 846 l 390 846 l 240 0 l 22 0 l 172 846 l 35 846 l 67 1028 l 210 1028 l 219 1081 q 225 1142 225 1119 q 132 1249 225 1249 q 28 1200 61 1249 q -19 1081 -6 1151 l -37 979 l -249 979 l -233 1069 q -106 1335 -203 1238 q 164 1432 -10 1432 q 439 1178 439 1432 q 429 1069 439 1122 l 422 1028 l 558 1028 z "},"ु":{"ha":0,"x_min":-775,"x_max":-108,"o":"m -111 -206 q -220 -401 -126 -329 q -457 -472 -314 -472 q -683 -410 -590 -472 q -775 -221 -775 -349 q -768 -149 -775 -182 l -575 -149 q -581 -192 -581 -179 q -543 -274 -581 -247 q -442 -301 -506 -301 q -336 -270 -375 -301 q -297 -185 -297 -239 q -321 -131 -297 -151 q -390 -110 -344 -110 l -440 -110 l -410 60 l -360 60 q -175 1 -242 60 q -108 -161 -108 -58 q -111 -206 -108 -190 z "},"ू":{"ha":0,"x_min":-658,"x_max":-1,"o":"m -379 -450 q -418 -451 -392 -451 q -588 -398 -518 -451 q -658 -247 -658 -344 q -654 -199 -658 -224 q -544 -13 -633 -79 q -322 53 -454 53 q -81 -38 -161 53 q -1 -272 -1 -129 q -10 -365 -1 -318 q -28 -443 -19 -411 l -204 -443 l -189 -356 q -181 -282 -181 -317 q -221 -156 -181 -201 q -340 -110 -261 -110 q -433 -135 -393 -110 q -481 -206 -472 -160 q -482 -221 -482 -211 q -456 -276 -482 -257 q -389 -296 -429 -296 l -353 -294 l -379 -450 z "},"ृ":{"ha":0,"x_min":-625,"x_max":-176,"o":"m -207 -444 q -361 -467 -279 -467 q -487 -442 -426 -467 q -586 -365 -547 -417 q -625 -239 -625 -314 q -621 -189 -625 -217 q -508 -9 -600 -74 q -272 56 -417 56 q -193 53 -218 56 l -218 -93 l -281 -93 q -376 -124 -342 -93 q -410 -207 -410 -154 q -377 -270 -410 -247 q -296 -293 -344 -293 q -176 -275 -242 -293 l -207 -444 z "},"ॄ":{"ha":0,"x_min":-625,"x_max":-158,"o":"m -187 -642 q -270 -661 -219 -654 q -367 -668 -321 -668 q -551 -625 -476 -668 q -625 -493 -625 -582 q -576 -358 -625 -414 q -451 -285 -526 -301 l -451 -279 q -532 -237 -501 -268 q -562 -154 -562 -206 q -560 -119 -562 -132 q -468 13 -543 -29 q -306 56 -393 56 l -193 56 l -214 -62 l -242 -62 q -353 -131 -340 -62 q -354 -143 -354 -135 q -329 -185 -354 -171 q -264 -199 -304 -199 l -183 -199 l -211 -358 l -281 -358 q -407 -429 -393 -358 q -408 -442 -408 -433 q -303 -500 -408 -500 q -222 -493 -262 -500 q -158 -479 -181 -486 l -187 -642 z "},"ॢ":{"ha":0,"x_min":-786,"x_max":67,"o":"m 19 -387 q -76 -410 -46 -387 q -106 -472 -106 -433 q -82 -514 -106 -500 q -19 -528 -58 -528 q 43 -521 17 -528 l 19 -656 q -65 -662 -26 -662 q -215 -622 -160 -662 q -269 -506 -269 -581 q -226 -379 -269 -433 q -115 -303 -182 -325 l -111 -283 q -108 -253 -108 -261 q -126 -199 -108 -218 q -176 -179 -143 -179 q -251 -212 -224 -179 q -289 -299 -279 -246 l -294 -329 l -435 -329 l -429 -299 q -426 -262 -426 -286 q -444 -202 -426 -225 q -497 -179 -461 -179 q -581 -217 -550 -179 q -612 -317 -612 -256 q -588 -381 -612 -360 q -521 -401 -564 -401 q -493 -399 -503 -401 l -521 -547 l -556 -547 q -727 -493 -668 -547 q -786 -344 -786 -439 q -781 -283 -786 -311 q -724 -144 -767 -201 q -622 -59 -681 -87 q -497 -31 -562 -31 q -389 -63 -428 -31 q -339 -149 -350 -96 l -335 -149 q -249 -63 -303 -96 q -125 -31 -196 -31 q 13 -80 -42 -31 q 67 -222 67 -129 q 61 -283 67 -254 q 28 -387 51 -339 l 19 -387 z "},"ॣ":{"ha":0,"x_min":-785,"x_max":68,"o":"m -8 -387 q -89 -436 -82 -387 q -21 -485 -99 -485 l 36 -485 l 14 -610 l -36 -610 q -101 -621 -76 -610 q -132 -662 -126 -632 q -53 -712 -139 -712 q 8 -708 -22 -712 q 54 -697 39 -703 l 32 -822 q -30 -837 7 -832 q -103 -842 -67 -842 q -241 -810 -186 -842 q -296 -712 -296 -779 q -259 -607 -296 -650 q -167 -553 -222 -564 l -167 -550 q -250 -453 -250 -528 q -210 -350 -250 -387 q -112 -300 -171 -312 l -110 -283 q -107 -254 -107 -264 q -125 -199 -107 -219 q -176 -179 -143 -179 q -250 -212 -224 -179 q -287 -299 -276 -246 l -293 -329 l -435 -329 l -429 -299 q -425 -261 -425 -281 q -442 -201 -425 -224 q -497 -179 -460 -179 q -581 -217 -549 -179 q -612 -317 -612 -256 q -588 -381 -612 -360 q -521 -401 -564 -401 q -493 -399 -501 -401 l -519 -547 l -554 -547 q -726 -494 -667 -547 q -785 -346 -785 -440 q -779 -283 -785 -312 q -677 -96 -757 -161 q -497 -31 -597 -31 q -389 -63 -428 -31 q -337 -149 -350 -96 l -333 -149 q -250 -63 -303 -96 q -125 -31 -197 -31 q 13 -81 -42 -31 q 68 -224 68 -131 q 63 -283 68 -254 q 28 -387 53 -335 l -8 -387 z "},"े":{"ha":0,"x_min":-533,"x_max":-25,"o":"m -229 1021 q -299 1149 -271 1110 q -361 1201 -326 1188 q -461 1214 -396 1214 l -533 1214 l -503 1389 l -433 1389 q -253 1363 -317 1388 q -140 1263 -190 1339 q -25 1021 -89 1188 l -229 1021 z "},"ै":{"ha":0,"x_min":-574,"x_max":-32,"o":"m -436 1489 q -264 1464 -319 1489 q -160 1347 -208 1439 q -32 1024 -111 1254 l -219 1024 l -242 1040 q -333 1099 -306 1085 q -392 1118 -360 1114 q -500 1122 -424 1122 l -574 1122 l -550 1258 l -481 1258 q -370 1254 -406 1258 q -303 1234 -335 1250 q -228 1179 -271 1218 q -294 1297 -261 1260 q -362 1342 -328 1333 q -454 1351 -396 1351 l -533 1351 l -510 1489 l -436 1489 z "},"ो":{"ha":444,"x_min":-90,"x_max":558,"o":"m 558 1028 l 526 846 l 390 846 l 242 0 l 24 0 l 172 846 l 35 846 l 68 1028 l 213 1028 q 144 1150 172 1113 q 81 1201 115 1188 q -17 1214 47 1214 l -90 1214 l -58 1389 l 11 1389 q 190 1364 126 1388 q 304 1265 253 1340 q 417 1028 356 1190 l 558 1028 z "},"ौ":{"ha":443,"x_min":-171,"x_max":517,"o":"m 517 1028 l 485 846 l 349 846 l 200 0 l -18 0 l 131 846 l -7 846 l 26 1028 l 179 1028 q 74 1097 101 1082 q 15 1117 47 1113 q -97 1122 -18 1122 l -171 1122 l -147 1258 l -78 1258 q 33 1254 -3 1258 q 100 1234 68 1250 q 175 1179 132 1218 q 109 1297 142 1260 q 42 1342 76 1333 q -51 1351 8 1351 l -131 1351 l -107 1489 l -33 1489 q 139 1464 83 1489 q 243 1347 194 1439 q 369 1028 292 1256 l 517 1028 z "},"ॅ":{"ha":0,"x_min":-401,"x_max":269,"o":"m 269 1419 q 153 1206 246 1285 q -104 1126 60 1126 q -326 1189 -251 1126 q -401 1358 -401 1251 q -396 1419 -401 1392 l -208 1419 q -211 1390 -211 1400 q -181 1315 -211 1343 q -86 1288 -150 1288 q 29 1324 -14 1288 q 83 1419 72 1361 l 269 1419 z "},"ॉ":{"ha":444,"x_min":22,"x_max":714,"o":"m 714 1419 q 597 1206 690 1285 q 340 1126 504 1126 q 118 1189 193 1126 q 43 1358 43 1251 q 49 1419 43 1392 l 236 1419 q 233 1390 233 1400 q 264 1315 233 1343 q 358 1288 294 1288 q 474 1324 431 1288 q 528 1419 517 1361 l 714 1419 m 22 0 l 171 846 l 35 846 l 67 1028 l 557 1028 l 525 846 l 389 846 l 240 0 l 22 0 z "},"क":{"ha":1340,"x_min":35,"x_max":1454,"o":"m 843 846 l 808 643 q 898 713 844 688 q 1017 738 951 738 q 1192 666 1128 738 q 1256 482 1256 594 q 1249 410 1256 451 q 1128 183 1221 263 q 907 103 1035 103 q 815 114 858 103 l 846 285 q 881 281 858 281 q 976 316 935 281 q 1029 414 1018 351 q 1032 440 1032 433 q 1003 520 1032 489 q 924 551 974 551 q 819 508 860 551 q 765 397 778 465 l 696 0 l 486 0 l 519 188 q 422 115 479 142 q 296 89 365 89 q 118 160 186 89 q 50 349 50 232 q 57 419 50 378 q 176 651 82 564 q 407 738 271 738 q 526 712 478 738 q 599 640 575 686 l 635 846 l 35 846 l 67 1028 l 1454 1028 l 1422 846 l 843 846 m 558 411 l 557 410 q 560 440 560 429 q 530 521 560 489 q 443 553 500 553 q 325 505 375 553 q 275 383 275 457 q 308 303 275 333 q 394 272 340 272 q 503 313 460 274 q 557 406 547 353 l 558 411 z "},"ख":{"ha":1335,"x_min":35,"x_max":1449,"o":"m 1449 1028 l 1415 846 l 1281 846 l 1132 0 l 915 0 l 954 219 q 778 154 885 154 q 736 158 756 154 q 585 36 674 82 q 390 -10 496 -10 q 147 67 233 -10 q 60 288 60 144 q 69 383 60 325 l 100 560 l 135 560 q 283 603 229 560 q 354 740 338 646 l 372 846 l 35 846 l 68 1028 l 1449 1028 m 1063 846 l 592 846 l 568 710 q 470 498 544 575 q 290 408 396 421 l 281 357 q 276 318 276 336 q 316 217 276 254 q 429 179 356 179 q 599 257 536 179 q 565 397 565 315 q 571 464 565 432 q 626 601 583 542 q 731 694 668 661 q 865 726 793 726 q 1031 658 981 726 l 1063 846 m 854 321 q 956 365 917 321 q 994 467 994 408 q 969 534 994 507 q 896 561 944 561 q 805 529 844 561 q 756 443 765 497 q 754 418 754 435 q 782 347 754 372 q 854 321 810 321 z "},"ग":{"ha":1132,"x_min":35,"x_max":1246,"o":"m 1246 1028 l 1214 846 l 1078 846 l 929 0 l 711 0 l 858 846 l 683 846 l 629 532 q 524 317 607 399 q 300 235 442 235 q 114 292 182 235 q 46 457 46 350 q 51 521 46 492 l 60 565 l 272 565 l 264 522 q 261 488 261 510 q 319 421 261 421 q 381 451 360 421 q 408 524 403 481 l 467 846 l 35 846 l 67 1028 l 1246 1028 z "},"घ":{"ha":971,"x_min":35,"x_max":1085,"o":"m 1051 846 l 918 846 l 769 0 l 550 0 l 592 238 q 471 158 540 186 q 324 131 401 131 q 138 187 211 131 q 64 340 64 243 q 68 385 64 363 q 135 514 82 461 q 253 585 188 567 l 253 589 q 150 731 150 618 q 154 781 150 754 l 165 846 l 35 846 l 67 1028 l 1085 1028 l 1051 846 m 699 846 l 385 846 l 375 790 q 372 760 372 768 q 479 676 372 676 l 535 676 l 504 501 l 432 501 q 328 469 364 501 q 293 388 293 438 q 324 328 293 349 q 408 308 356 308 q 557 360 492 308 q 636 494 622 411 l 636 493 l 699 846 z "},"ङ":{"ha":976,"x_min":22,"x_max":1090,"o":"m 1090 1028 l 1060 846 l 718 846 l 700 743 l 674 590 l 417 590 q 343 572 374 590 q 313 513 313 554 q 333 474 313 486 q 386 463 353 463 l 447 463 q 626 413 557 463 q 696 264 696 363 q 692 213 696 240 q 583 35 671 99 q 344 -28 494 -28 q 112 34 201 -28 q 22 204 22 96 q 25 240 22 215 l 242 240 l 240 225 q 272 159 240 182 q 357 136 304 136 q 451 165 415 136 q 486 239 486 193 q 381 308 486 308 l 332 308 q 167 351 242 308 q 93 489 93 393 q 97 533 93 511 q 196 690 115 638 q 388 743 276 743 l 489 743 l 507 846 l 38 846 l 69 1028 l 1090 1028 m 868 626 q 937 600 910 626 q 964 533 964 574 q 922 439 964 479 q 826 399 881 399 q 758 426 785 399 q 732 493 732 453 q 773 587 732 547 q 868 626 814 626 z "},"च":{"ha":1046,"x_min":35,"x_max":1160,"o":"m 1128 846 l 993 846 l 843 0 l 625 0 l 664 222 q 547 143 615 171 q 401 115 479 115 q 227 171 294 115 q 160 324 160 226 q 165 378 160 351 q 261 540 182 478 l 75 540 l 104 711 l 618 711 l 588 540 l 531 540 q 429 507 472 540 q 376 418 386 474 q 374 394 374 401 q 408 322 374 347 q 497 296 443 296 q 640 354 582 296 q 714 510 697 413 l 774 846 l 35 846 l 67 1028 l 1160 1028 l 1128 846 z "},"छ":{"ha":1142,"x_min":32,"x_max":1256,"o":"m 963 846 l 943 733 q 1044 656 1008 710 q 1079 521 1079 601 q 1072 451 1079 493 q 970 228 1050 324 q 762 80 890 132 q 469 28 633 28 q 251 60 346 28 q 102 153 156 92 q 49 296 49 214 q 54 349 49 325 q 119 476 69 425 q 242 550 168 528 l 242 556 q 167 603 194 568 q 140 697 140 638 q 144 747 140 721 l 163 846 l 32 846 l 64 1028 l 1256 1028 l 1224 846 l 963 846 m 761 846 l 381 846 l 365 757 q 363 724 363 744 q 456 643 363 643 l 485 643 l 453 468 l 429 468 q 316 429 357 468 q 275 333 275 390 q 331 244 275 275 q 504 214 388 214 q 763 278 665 214 q 882 463 860 342 q 886 499 886 482 q 867 565 886 540 q 815 589 847 589 q 748 560 778 589 q 710 478 718 531 q 706 425 706 453 q 708 372 706 408 l 529 372 q 526 424 526 403 q 533 503 526 468 q 606 653 550 596 q 742 735 661 711 l 761 846 z "},"ज":{"ha":1194,"x_min":35,"x_max":1308,"o":"m 1275 846 l 1140 846 l 992 0 l 774 0 l 860 492 l 700 492 l 693 450 q 572 225 668 311 q 333 139 476 139 q 131 207 207 139 q 56 390 56 275 q 63 457 56 418 l 101 678 l 321 678 l 281 456 q 276 419 276 438 q 298 353 276 376 q 358 329 319 329 q 438 363 406 329 q 481 456 469 397 l 519 678 l 893 678 l 922 846 l 35 846 l 67 1028 l 1308 1028 l 1275 846 z "},"झ":{"ha":1218,"x_min":15,"x_max":1332,"o":"m 1300 846 l 1163 846 l 1015 0 l 800 0 l 853 299 l 676 299 q 686 235 686 265 q 682 190 686 214 q 594 38 665 97 q 417 -21 524 -21 q 313 0 354 -21 q 250 46 272 21 l 221 -117 l 15 -117 l 78 235 l 274 235 q 296 165 269 192 q 375 139 322 139 q 458 166 428 139 q 488 235 488 193 q 460 289 488 269 q 381 308 433 308 q 293 311 326 308 q 151 360 210 315 q 93 493 93 406 q 97 540 93 515 q 196 695 115 646 q 390 744 276 744 l 492 744 l 508 846 l 44 846 l 78 1028 l 1332 1028 l 1300 846 m 949 846 l 721 846 l 703 744 l 675 590 l 417 590 q 344 572 375 590 q 314 511 314 553 q 389 463 314 463 l 449 463 l 882 463 l 949 846 z "},"ञ":{"ha":1160,"x_min":35,"x_max":1274,"o":"m 1242 846 l 1107 846 l 957 0 l 739 0 l 796 325 l 683 325 q 543 142 639 208 q 321 75 447 75 q 117 139 193 75 q 42 314 42 203 q 43 346 42 335 l 249 346 q 282 282 254 306 q 354 258 310 258 q 468 313 424 258 q 513 444 513 367 q 486 526 513 494 q 408 557 460 557 q 326 533 363 557 q 271 469 289 510 l 65 469 q 198 668 96 594 q 439 742 300 742 q 633 679 560 742 q 713 508 706 617 l 828 508 l 888 846 l 35 846 l 67 1028 l 1274 1028 l 1242 846 z "},"ट":{"ha":894,"x_min":33,"x_max":1010,"o":"m 496 557 q 346 512 410 557 q 267 382 282 467 q 264 349 264 371 q 304 253 264 289 q 415 217 344 217 q 554 265 497 217 q 625 393 611 314 l 832 393 q 754 201 814 283 q 601 73 694 118 q 392 28 508 28 q 208 65 288 28 q 85 169 129 101 q 42 326 42 236 q 47 390 42 361 q 197 647 76 556 q 503 740 317 738 l 522 846 l 33 846 l 65 1028 l 1010 1028 l 976 846 l 736 846 l 686 557 l 496 557 z "},"ठ":{"ha":929,"x_min":32,"x_max":1043,"o":"m 626 846 l 607 736 q 776 637 711 710 q 840 456 840 564 q 833 386 840 425 q 751 201 815 279 q 593 82 688 122 q 388 42 499 42 q 213 78 292 42 q 90 181 135 114 q 44 339 44 249 q 50 406 44 374 q 168 631 74 546 q 393 740 263 715 l 413 846 l 32 846 l 64 1028 l 1043 1028 l 1011 846 l 626 846 m 618 394 q 621 428 621 417 q 581 528 621 490 q 471 567 542 567 q 338 519 394 567 q 267 397 281 472 q 264 361 264 385 q 303 262 264 300 q 411 224 343 224 q 547 272 490 224 q 618 394 604 319 z "},"ड":{"ha":788,"x_min":22,"x_max":901,"o":"m 417 590 q 343 572 374 590 q 313 513 313 554 q 333 474 313 486 q 386 463 353 463 l 447 463 q 626 413 557 463 q 696 264 696 363 q 692 213 696 240 q 583 35 671 99 q 344 -28 494 -28 q 112 34 201 -28 q 22 204 22 96 q 25 240 22 215 l 242 240 l 240 225 q 272 159 240 182 q 357 136 304 136 q 451 165 415 136 q 486 239 486 193 q 381 308 486 308 l 332 308 q 167 351 242 308 q 93 489 93 393 q 97 533 93 511 q 196 690 115 638 q 388 743 276 743 l 486 743 l 504 846 l 38 846 l 69 1028 l 901 1028 l 871 846 l 715 846 l 669 590 l 417 590 z "},"ढ":{"ha":911,"x_min":36,"x_max":1025,"o":"m 564 601 q 364 541 449 601 q 261 369 279 481 q 256 319 256 333 q 308 192 256 240 q 461 144 360 144 q 594 178 539 144 q 661 271 650 211 q 663 288 663 276 q 645 332 663 315 q 600 349 628 349 q 547 331 569 349 q 518 285 524 314 l 515 260 l 363 260 q 367 313 363 290 q 456 453 382 403 q 636 504 529 504 q 791 451 732 504 q 850 310 850 399 q 846 264 850 289 q 715 61 822 135 q 439 -12 608 -12 q 235 28 325 -12 q 96 143 146 68 q 46 317 46 218 q 53 389 46 347 q 140 586 74 504 q 306 710 207 668 q 519 751 404 751 l 546 751 l 563 846 l 36 846 l 68 1028 l 1025 1028 l 993 846 l 768 846 l 725 601 l 564 601 z "},"ण":{"ha":1244,"x_min":35,"x_max":1358,"o":"m 1326 846 l 1190 846 l 1040 0 l 822 0 l 971 846 l 786 846 l 725 507 q 615 285 701 369 q 385 201 528 201 q 181 267 256 201 q 106 446 106 333 q 111 507 106 479 l 171 846 l 35 846 l 67 1028 l 1358 1028 l 1326 846 m 571 846 l 385 846 l 322 488 q 319 461 319 468 q 340 406 319 426 q 397 385 361 385 q 471 413 442 385 q 508 488 500 440 l 571 846 z "},"त":{"ha":983,"x_min":35,"x_max":1097,"o":"m 1065 846 l 928 846 l 781 0 l 563 0 l 649 496 l 476 496 q 319 444 381 496 q 258 297 258 392 q 297 206 258 239 q 408 174 335 174 l 433 174 l 404 1 l 365 1 q 201 32 276 1 q 82 126 126 63 q 38 281 38 189 q 43 346 38 314 q 197 600 72 517 q 499 683 322 683 l 682 683 l 710 846 l 35 846 l 67 1028 l 1097 1028 l 1065 846 z "},"थ":{"ha":1101,"x_min":67,"x_max":1215,"o":"m 1215 1028 l 1185 846 l 1049 846 l 899 0 l 681 0 l 726 264 q 597 158 683 201 q 403 114 511 114 q 157 196 247 114 q 67 422 67 278 q 75 510 67 464 q 99 610 85 567 l 219 610 q 415 644 340 610 q 504 763 489 679 q 506 783 506 769 q 487 835 506 815 q 435 854 468 854 q 354 811 382 854 q 329 710 326 768 l 132 710 q 176 876 135 800 q 294 996 218 951 q 471 1040 369 1040 q 648 980 582 1040 q 714 817 714 919 q 708 757 714 785 q 573 536 683 618 q 281 454 463 454 l 278 454 q 319 341 272 386 q 467 296 365 296 q 608 328 542 296 q 720 426 674 361 q 782 582 767 490 l 861 1028 l 1215 1028 z "},"द":{"ha":854,"x_min":39,"x_max":967,"o":"m 476 549 q 335 501 390 549 q 279 369 279 453 q 310 292 279 321 q 393 263 340 263 q 488 297 446 263 q 540 390 531 331 l 743 390 l 667 -46 l 453 -46 l 489 160 q 406 108 454 126 q 299 90 357 90 q 174 119 231 90 q 85 206 118 149 q 53 343 53 263 q 60 417 53 372 q 204 653 88 572 q 488 735 321 735 l 539 735 l 558 846 l 39 846 l 71 1028 l 967 1028 l 933 846 l 778 846 l 725 549 l 476 549 z "},"ध":{"ha":1025,"x_min":67,"x_max":1139,"o":"m 1108 846 l 976 846 l 826 0 l 608 0 l 650 232 q 515 140 594 172 q 339 108 436 108 q 143 163 219 108 q 67 315 67 217 q 71 361 67 339 q 143 494 86 444 q 267 560 200 544 l 267 564 q 172 632 210 583 q 133 753 133 681 q 138 803 133 776 q 234 977 156 914 q 426 1040 313 1040 q 592 989 532 1040 q 651 847 651 938 q 635 749 651 803 l 474 749 q 479 789 479 767 q 463 839 479 819 q 413 858 446 858 q 343 825 371 858 q 315 744 315 792 q 349 676 315 697 q 440 654 383 654 l 556 654 l 524 478 l 451 478 q 345 454 386 478 q 297 385 304 431 q 296 367 296 379 q 331 307 296 328 q 426 286 365 286 q 607 353 532 286 q 701 526 682 419 l 760 857 l 789 1028 l 1139 1028 l 1108 846 z "},"न":{"ha":1143,"x_min":35,"x_max":1257,"o":"m 1225 846 l 1089 846 l 940 0 l 721 0 l 810 507 l 635 507 q 650 419 650 468 q 646 364 650 393 q 583 219 632 279 q 465 127 535 158 q 319 96 396 96 q 176 128 239 96 q 77 218 113 160 q 42 350 42 276 q 47 406 42 367 q 174 617 72 546 q 424 689 276 689 l 843 689 l 871 846 l 35 846 l 67 1028 l 1257 1028 l 1225 846 m 478 393 q 479 415 479 400 q 453 482 479 457 q 383 507 428 507 q 283 467 325 507 q 242 369 242 428 q 269 305 242 329 q 343 281 296 281 q 431 313 393 281 q 478 393 468 344 z "},"प":{"ha":940,"x_min":35,"x_max":1054,"o":"m 1022 846 l 886 846 l 738 0 l 519 0 l 572 297 q 368 222 490 222 q 168 297 239 222 q 97 494 97 371 q 106 581 97 538 l 153 846 l 35 846 l 67 1028 l 1054 1028 l 1022 846 m 668 846 l 371 846 l 324 581 q 319 533 319 556 q 351 440 319 474 q 449 406 383 406 q 559 447 515 406 q 617 554 603 488 l 668 846 z "},"फ":{"ha":1367,"x_min":35,"x_max":1482,"o":"m 863 846 l 826 640 q 926 712 867 686 q 1056 738 985 738 q 1226 671 1165 738 q 1288 496 1288 604 q 1281 425 1288 467 q 1213 252 1263 325 q 1092 141 1164 179 q 938 103 1021 103 q 838 117 881 103 l 867 285 q 910 279 885 279 q 1006 316 967 279 q 1057 414 1046 353 q 1060 444 1060 433 q 1031 522 1060 492 q 953 551 1003 551 q 842 506 886 551 q 782 388 799 461 l 714 0 l 496 0 l 547 294 q 354 222 471 222 q 164 294 232 222 q 96 485 96 365 q 104 569 96 526 l 153 846 l 35 846 l 67 1028 l 1482 1028 l 1449 846 l 863 846 m 644 846 l 371 846 l 322 569 q 318 522 318 544 q 347 436 318 467 q 435 406 375 406 q 542 450 500 406 q 594 561 585 494 l 644 846 z "},"ब":{"ha":956,"x_min":35,"x_max":1069,"o":"m 1069 1028 l 1038 846 l 901 846 l 753 0 l 543 0 l 575 176 q 470 107 532 132 q 336 82 408 82 q 188 118 251 82 q 89 218 124 154 q 54 365 54 282 q 60 433 54 401 q 131 602 76 531 q 269 713 186 674 q 451 751 351 751 q 574 729 521 751 q 660 667 626 707 l 692 846 l 35 846 l 67 1028 l 1069 1028 m 474 611 q 346 572 401 611 l 601 347 q 631 424 622 382 q 633 458 633 446 q 591 568 633 525 q 474 611 549 611 m 249 422 q 244 383 244 401 q 291 277 244 317 q 408 238 338 238 q 535 276 481 238 l 278 500 q 249 422 254 463 z "},"भ":{"ha":1183,"x_min":44,"x_max":1297,"o":"m 1297 1028 l 1267 846 l 1129 846 l 979 0 l 761 0 l 843 467 l 672 467 l 661 401 q 543 169 635 253 q 307 85 451 85 q 115 145 185 85 q 44 310 44 206 q 50 367 44 340 q 174 574 74 503 q 413 644 275 644 l 500 644 l 518 750 q 521 785 521 775 q 461 854 521 854 q 401 830 426 854 q 369 765 376 806 q 367 721 365 742 l 149 721 l 149 733 q 151 774 149 746 q 259 966 172 892 q 483 1040 346 1040 q 666 978 608 1040 q 724 808 724 917 q 714 710 724 771 l 703 644 l 875 644 l 942 1028 l 1297 1028 m 468 467 l 388 467 q 289 434 328 467 q 250 344 250 401 q 274 289 250 308 q 335 269 297 269 q 414 302 383 269 q 454 390 444 335 l 468 467 z "},"म":{"ha":1171,"x_min":25,"x_max":1285,"o":"m 1253 846 l 1117 846 l 968 0 l 749 0 l 831 467 l 651 467 l 640 401 q 522 169 614 253 q 286 85 431 85 q 95 146 165 85 q 25 310 25 207 q 31 367 25 340 q 153 573 53 501 q 392 644 254 644 l 479 644 l 515 846 l 35 846 l 67 1028 l 1285 1028 l 1253 846 m 897 846 l 719 846 l 683 644 l 863 644 l 897 846 m 449 467 l 367 467 q 269 435 308 467 q 231 346 231 403 q 255 290 231 310 q 315 269 279 269 q 394 301 364 269 q 435 390 424 333 l 449 467 z "},"य":{"ha":1051,"x_min":35,"x_max":1165,"o":"m 1132 846 l 997 846 l 849 0 l 629 0 l 667 214 q 549 140 617 167 q 399 114 481 114 q 156 197 244 114 q 67 422 67 281 q 75 506 67 463 q 96 589 79 533 l 110 589 q 277 638 222 589 q 349 783 332 688 l 360 846 l 35 846 l 67 1028 l 1165 1028 l 1132 846 m 779 846 l 575 846 l 557 743 q 472 561 539 631 q 286 478 406 492 q 283 446 283 456 q 331 337 283 378 q 464 296 378 296 q 635 358 565 296 q 721 519 704 421 l 779 846 z "},"र":{"ha":739,"x_min":36,"x_max":853,"o":"m 821 846 l 703 846 l 690 772 q 293 417 626 417 l 288 417 l 264 278 q 260 246 260 261 q 278 193 260 213 q 331 174 296 174 q 396 201 369 174 q 429 272 422 228 l 436 311 l 644 311 l 642 279 q 533 66 618 144 q 314 -12 449 -12 q 115 54 186 -12 q 43 228 43 121 q 49 289 43 261 l 101 592 l 242 592 q 402 638 349 592 q 472 772 456 683 l 485 846 l 36 846 l 68 1028 l 853 1028 l 821 846 z "},"ल":{"ha":1267,"x_min":32,"x_max":1381,"o":"m 1079 846 l 1053 694 q 1143 602 1110 663 q 1176 460 1176 542 q 1169 381 1176 415 q 1031 131 1142 224 q 750 42 919 38 l 701 44 l 736 233 q 772 231 753 231 q 888 274 840 231 q 949 390 936 317 q 953 429 953 411 q 926 507 953 478 q 851 536 900 536 q 749 490 788 536 q 696 372 710 444 l 690 339 l 510 339 l 515 372 q 521 424 521 408 q 497 506 521 475 q 421 536 472 536 q 321 497 360 536 q 269 390 282 457 q 265 350 265 369 q 299 263 265 294 q 394 231 332 231 q 428 233 406 231 l 394 43 q 353 42 375 42 q 124 119 204 42 q 43 325 43 197 q 50 403 43 369 q 180 646 78 564 q 417 728 282 728 q 565 683 510 728 q 636 569 619 639 l 640 569 q 724 666 672 626 q 843 719 775 706 l 865 846 l 32 846 l 64 1028 l 1381 1028 l 1347 846 l 1079 846 z "},"व":{"ha":926,"x_min":35,"x_max":1040,"o":"m 1040 1028 l 1007 846 l 872 846 l 724 0 l 511 0 l 543 183 q 444 111 501 136 q 318 86 386 86 q 125 158 196 86 q 54 351 54 229 q 63 438 54 392 q 181 660 86 578 q 415 743 276 743 q 540 718 488 743 q 625 647 593 693 l 660 846 l 35 846 l 67 1028 l 1040 1028 m 401 260 q 498 288 456 260 q 563 359 540 315 q 586 446 586 403 q 552 534 586 500 q 454 568 518 568 q 333 526 385 568 q 269 415 282 483 q 267 385 267 393 q 303 294 267 328 q 401 260 339 260 z "},"श":{"ha":1189,"x_min":50,"x_max":1303,"o":"m 361 178 q 443 213 413 178 q 485 313 474 249 l 697 313 q 588 75 678 160 q 344 -10 499 -10 q 128 58 207 -10 q 50 246 50 126 q 57 315 50 276 l 104 582 l 299 582 q 476 619 401 582 q 567 743 551 657 q 568 765 568 751 q 547 828 568 804 q 489 851 526 851 q 398 806 431 851 q 365 694 365 761 l 147 694 q 259 948 160 856 q 513 1040 358 1040 q 713 974 635 1040 q 790 792 790 908 q 785 728 790 757 q 635 482 756 565 q 347 399 515 399 l 293 399 l 276 301 q 272 265 272 283 q 294 201 272 225 q 361 178 315 178 m 1303 1028 l 1269 846 l 1135 846 l 985 0 l 764 0 l 946 1028 l 1303 1028 z "},"ष":{"ha":960,"x_min":35,"x_max":1074,"o":"m 1042 846 l 906 846 l 757 0 l 543 0 l 594 292 q 371 206 508 206 q 169 283 240 206 q 97 490 97 361 q 106 581 97 533 l 153 846 l 35 846 l 67 1028 l 1074 1028 l 1042 846 m 690 846 l 367 846 l 653 626 l 690 846 m 443 389 q 544 415 500 389 q 614 488 588 442 l 338 697 l 315 574 q 311 526 311 549 q 345 426 311 464 q 443 389 379 389 z "},"स":{"ha":1151,"x_min":35,"x_max":1265,"o":"m 1233 846 l 1097 846 l 949 0 l 729 0 l 803 417 l 288 417 l 263 281 q 260 253 260 261 q 279 195 260 217 q 336 174 299 174 q 407 205 381 174 q 443 290 433 236 l 651 290 q 548 69 638 150 q 315 -12 458 -12 q 115 57 186 -12 q 44 239 44 126 q 50 303 44 274 l 97 572 l 201 572 q 362 620 308 572 q 431 754 415 668 l 447 846 l 35 846 l 68 1028 l 1265 1028 l 1233 846 m 879 846 l 665 846 l 649 754 q 586 594 632 661 l 835 594 l 879 846 z "},"ह":{"ha":825,"x_min":32,"x_max":940,"o":"m 940 1028 l 908 846 l 731 846 l 714 749 l 685 594 l 444 594 q 380 578 407 594 q 347 528 353 563 q 346 514 346 524 q 374 469 346 485 q 431 472 410 472 q 585 439 521 472 q 683 353 650 406 q 715 239 715 300 q 714 214 715 222 l 504 214 q 476 274 504 249 q 399 300 449 300 q 290 252 335 300 q 244 128 244 204 q 273 51 244 78 q 351 24 301 24 q 434 48 397 24 q 486 107 471 72 l 694 107 q 567 -83 665 -10 q 332 -156 469 -156 q 174 -122 242 -156 q 69 -26 106 -87 q 32 114 32 35 q 38 178 32 149 q 94 316 51 256 q 200 414 136 376 q 136 536 136 458 q 207 690 136 632 q 394 749 278 749 l 504 749 l 522 846 l 49 846 l 81 1028 l 940 1028 z "},"ळ":{"ha":1329,"x_min":29,"x_max":1443,"o":"m 1126 846 l 1099 693 q 1203 602 1165 663 q 1240 460 1240 542 q 1235 396 1240 425 q 1163 226 1218 299 q 1030 113 1108 153 q 864 74 951 74 q 705 116 771 74 q 615 235 639 158 l 608 235 q 482 116 561 158 q 311 74 403 74 q 172 105 233 74 q 75 194 110 136 q 40 332 40 253 q 46 396 40 367 q 118 567 64 493 q 251 680 172 640 q 418 719 329 719 q 570 681 506 719 q 667 561 635 642 l 672 561 q 892 711 760 685 l 915 846 l 29 846 l 61 1028 l 1443 1028 l 1410 846 l 1126 846 m 536 424 q 505 504 536 474 q 422 535 474 535 q 305 487 353 535 q 257 365 257 439 q 289 288 257 317 q 374 260 321 260 q 488 306 440 260 q 536 424 536 353 m 1024 424 q 992 504 1024 474 q 908 535 961 535 q 792 487 839 535 q 744 367 744 439 q 775 289 744 318 q 858 260 806 260 q 976 306 928 260 q 1024 424 1024 351 z "},"क़":{"ha":1340,"x_min":35,"x_max":1454,"o":"m 843 846 l 808 643 q 898 713 844 688 q 1017 738 951 738 q 1192 666 1128 738 q 1256 482 1256 594 q 1249 410 1256 451 q 1128 183 1221 263 q 907 103 1035 103 q 815 114 858 103 l 846 285 q 881 281 858 281 q 976 316 935 281 q 1029 414 1018 351 q 1032 440 1032 433 q 1003 520 1032 489 q 924 551 974 551 q 819 508 860 551 q 765 397 778 465 l 696 0 l 486 0 l 519 188 q 422 115 479 142 q 296 89 365 89 q 118 160 186 89 q 50 349 50 232 q 57 419 50 378 q 176 651 82 564 q 407 738 271 738 q 526 712 478 738 q 599 640 575 686 l 635 846 l 35 846 l 67 1028 l 1454 1028 l 1422 846 l 843 846 m 558 411 l 557 410 q 560 440 560 429 q 530 521 560 489 q 443 553 500 553 q 325 505 375 553 q 275 383 275 457 q 308 303 275 333 q 394 272 340 272 q 503 313 460 274 q 557 406 547 353 l 558 411 m 347 -99 q 301 -200 347 -157 q 196 -243 256 -243 q 119 -215 149 -243 q 90 -142 90 -186 q 111 -67 90 -101 q 167 -11 132 -32 q 240 10 201 10 q 317 -21 288 10 q 347 -99 347 -51 z "},"ख़":{"ha":1335,"x_min":35,"x_max":1449,"o":"m 1449 1028 l 1415 846 l 1281 846 l 1132 0 l 915 0 l 954 219 q 778 154 885 154 q 736 158 756 154 q 585 36 674 82 q 390 -10 496 -10 q 147 67 233 -10 q 60 288 60 144 q 69 383 60 325 l 100 560 l 135 560 q 283 603 229 560 q 354 740 338 646 l 372 846 l 35 846 l 68 1028 l 1449 1028 m 1063 846 l 592 846 l 568 710 q 470 498 544 575 q 290 408 396 421 l 281 357 q 276 318 276 336 q 316 217 276 254 q 429 179 356 179 q 599 257 536 179 q 565 397 565 315 q 571 464 565 432 q 626 601 583 542 q 731 694 668 661 q 865 726 793 726 q 1031 658 981 726 l 1063 846 m 854 321 q 956 365 917 321 q 994 467 994 408 q 969 534 994 507 q 896 561 944 561 q 805 529 844 561 q 756 443 765 497 q 754 418 754 435 q 782 347 754 372 q 854 321 810 321 m 451 -193 q 406 -294 451 -251 q 300 -337 360 -337 q 224 -309 253 -337 q 194 -236 194 -281 q 215 -161 194 -196 q 271 -106 236 -126 q 344 -85 306 -85 q 422 -115 392 -85 q 451 -193 451 -146 z "},"ग़":{"ha":1132,"x_min":35,"x_max":1246,"o":"m 1246 1028 l 1214 846 l 1078 846 l 929 0 l 711 0 l 858 846 l 683 846 l 629 532 q 524 317 607 399 q 300 235 442 235 q 114 292 182 235 q 46 457 46 350 q 51 521 46 492 l 60 565 l 272 565 l 264 522 q 261 488 261 510 q 319 421 261 421 q 381 451 360 421 q 408 524 403 481 l 467 846 l 35 846 l 67 1028 l 1246 1028 m 388 46 q 342 -56 388 -12 q 236 -99 296 -99 q 160 -70 189 -99 q 131 3 131 -42 q 151 78 131 43 q 207 133 172 113 q 281 154 242 154 q 358 124 328 154 q 388 46 388 93 z "},"ज़":{"ha":1194,"x_min":35,"x_max":1308,"o":"m 1275 846 l 1140 846 l 992 0 l 774 0 l 860 492 l 700 492 l 693 450 q 572 225 668 311 q 333 139 476 139 q 131 207 207 139 q 56 390 56 275 q 63 457 56 418 l 101 678 l 321 678 l 281 456 q 276 419 276 438 q 298 353 276 376 q 358 329 319 329 q 438 363 406 329 q 481 456 469 397 l 519 678 l 893 678 l 922 846 l 35 846 l 67 1028 l 1308 1028 l 1275 846 m 419 -49 q 374 -150 419 -107 q 268 -193 328 -193 q 192 -165 221 -193 q 163 -92 163 -136 q 183 -17 163 -51 q 239 39 204 18 q 313 60 274 60 q 390 29 360 60 q 419 -49 419 -1 z "},"ड़":{"ha":788,"x_min":22,"x_max":901,"o":"m 417 590 q 343 572 374 590 q 313 513 313 554 q 333 474 313 486 q 386 463 353 463 l 447 463 q 626 413 557 463 q 696 264 696 363 q 692 213 696 240 q 583 35 671 99 q 344 -28 494 -28 q 112 34 201 -28 q 22 204 22 96 q 25 240 22 215 l 242 240 l 240 225 q 272 159 240 182 q 357 136 304 136 q 451 165 415 136 q 486 239 486 193 q 381 308 486 308 l 332 308 q 167 351 242 308 q 93 489 93 393 q 97 533 93 511 q 196 690 115 638 q 388 743 276 743 l 486 743 l 504 846 l 38 846 l 69 1028 l 901 1028 l 871 846 l 715 846 l 669 590 l 417 590 m 425 -215 q 379 -317 425 -274 q 274 -360 333 -360 q 197 -331 226 -360 q 168 -258 168 -303 q 189 -183 168 -218 q 244 -128 210 -149 q 318 -107 279 -107 q 395 -137 365 -107 q 425 -215 425 -168 z "},"ढ़":{"ha":911,"x_min":36,"x_max":1025,"o":"m 564 601 q 364 541 449 601 q 261 369 279 481 q 256 319 256 333 q 308 192 256 240 q 461 144 360 144 q 594 178 539 144 q 661 271 650 211 q 663 288 663 276 q 645 332 663 315 q 600 349 628 349 q 547 331 569 349 q 518 285 524 314 l 515 260 l 363 260 q 367 313 363 290 q 456 453 382 403 q 636 504 529 504 q 791 451 732 504 q 850 310 850 399 q 846 264 850 289 q 715 61 822 135 q 439 -12 608 -12 q 235 28 325 -12 q 96 143 146 68 q 46 317 46 218 q 53 389 46 347 q 140 586 74 504 q 306 710 207 668 q 519 751 404 751 l 546 751 l 563 846 l 36 846 l 68 1028 l 1025 1028 l 993 846 l 768 846 l 725 601 l 564 601 m 493 -197 q 447 -299 493 -256 q 342 -342 401 -342 q 265 -313 294 -342 q 236 -240 236 -285 q 257 -165 236 -200 q 313 -110 278 -131 q 386 -89 347 -89 q 463 -119 433 -89 q 493 -197 493 -150 z "},"फ़":{"ha":1367,"x_min":35,"x_max":1482,"o":"m 863 846 l 826 640 q 926 712 867 686 q 1056 738 985 738 q 1226 671 1165 738 q 1288 496 1288 604 q 1281 425 1288 467 q 1213 252 1263 325 q 1092 141 1164 179 q 938 103 1021 103 q 838 117 881 103 l 867 285 q 910 279 885 279 q 1006 316 967 279 q 1057 414 1046 353 q 1060 444 1060 433 q 1031 522 1060 492 q 953 551 1003 551 q 842 506 886 551 q 782 388 799 461 l 714 0 l 496 0 l 547 294 q 354 222 471 222 q 164 294 232 222 q 96 485 96 365 q 104 569 96 526 l 153 846 l 35 846 l 67 1028 l 1482 1028 l 1449 846 l 863 846 m 644 846 l 371 846 l 322 569 q 318 522 318 544 q 347 436 318 467 q 435 406 375 406 q 542 450 500 406 q 594 561 585 494 l 644 846 m 358 42 q 313 -60 358 -17 q 207 -103 267 -103 q 131 -74 160 -103 q 101 -1 101 -46 q 122 74 101 39 q 178 129 143 108 q 251 150 213 150 q 328 119 299 150 q 358 42 358 89 z "},"ऱ":{"ha":739,"x_min":-93,"x_max":853,"o":"m 821 846 l 703 846 l 690 772 q 293 417 626 417 l 288 417 l 264 278 q 260 246 260 261 q 278 193 260 213 q 331 174 296 174 q 396 201 369 174 q 429 272 422 228 l 436 311 l 644 311 l 642 279 q 533 66 618 144 q 314 -12 449 -12 q 115 54 186 -12 q 43 228 43 121 q 49 289 43 261 l 101 592 l 242 592 q 402 638 349 592 q 472 772 456 683 l 485 846 l 36 846 l 68 1028 l 853 1028 l 821 846 m 164 -150 q 118 -251 164 -208 q 13 -294 72 -294 q -64 -266 -35 -294 q -93 -193 -93 -237 q -72 -118 -93 -153 q -17 -62 -51 -83 q 57 -42 18 -42 q 134 -72 104 -42 q 164 -150 164 -103 z "},"ं":{"ha":0,"x_min":-224,"x_max":33,"o":"m 33 1278 q -12 1174 33 1218 q -118 1129 -57 1129 q -194 1159 -164 1129 q -224 1235 -224 1189 q -178 1338 -224 1294 q -74 1382 -133 1382 q 3 1353 -26 1382 q 33 1278 33 1324 z "},"ँ":{"ha":0,"x_min":-401,"x_max":269,"o":"m 28 1469 q -2 1399 28 1429 q -74 1369 -32 1369 q -124 1389 -104 1369 q -143 1439 -143 1408 q -112 1508 -143 1478 q -43 1539 -82 1539 q 8 1519 -11 1539 q 28 1469 28 1500 m 269 1419 q 149 1203 244 1281 q -104 1126 54 1126 q -320 1190 -239 1126 q -401 1365 -401 1254 q -396 1419 -401 1381 l -222 1419 q -224 1396 -224 1411 q -189 1314 -224 1346 q -87 1282 -154 1282 q 35 1322 -14 1282 q 94 1419 83 1361 l 269 1419 z "},"ः":{"ha":389,"x_min":31,"x_max":358,"o":"m 358 672 q 337 599 358 633 q 281 544 315 565 q 208 524 246 524 q 132 553 163 524 q 101 628 101 583 q 123 701 101 667 q 179 756 144 736 q 253 776 214 776 q 329 747 300 776 q 358 672 358 718 m 288 269 q 266 196 288 231 q 210 141 244 161 q 136 121 175 121 q 60 151 90 121 q 31 225 31 181 q 51 299 31 264 q 107 353 72 333 q 181 374 142 374 q 258 344 228 374 q 288 269 288 314 z "},"ऽ":{"ha":829,"x_min":3,"x_max":794,"o":"m 3 64 l 35 247 l 365 247 q 424 265 403 247 q 446 311 446 282 q 425 363 446 338 q 357 432 404 389 q 279 508 310 475 q 226 588 249 542 q 204 688 204 633 q 208 735 204 710 q 299 883 225 832 q 478 933 372 933 l 794 933 l 761 750 l 501 750 q 447 738 469 750 q 424 692 424 725 q 444 641 424 665 q 513 571 464 617 q 626 449 586 506 q 667 314 667 392 q 663 268 667 292 q 571 119 646 174 q 389 64 496 64 l 3 64 z "},"्":{"ha":0,"x_min":-428,"x_max":-82,"o":"m -304 -386 l -428 -76 l -212 -76 l -82 -386 l -304 -386 z "},"़":{"ha":0,"x_min":-521,"x_max":-264,"o":"m -264 -219 q -310 -321 -264 -278 q -415 -364 -356 -364 q -492 -335 -462 -364 q -521 -262 -521 -307 q -500 -187 -521 -222 q -444 -132 -479 -153 q -371 -111 -410 -111 q -294 -142 -324 -111 q -264 -219 -264 -172 z "},"०":{"ha":906,"x_min":67,"x_max":879,"o":"m 82 506 q 238 872 122 736 q 560 1007 354 1007 q 802 917 725 1007 q 879 668 879 828 q 863 506 879 603 q 706 140 822 275 q 383 4 589 4 q 142 94 218 4 q 67 343 67 183 q 82 506 67 417 m 628 506 q 643 640 643 592 q 615 747 643 710 q 521 785 588 785 q 381 711 425 785 q 315 506 338 638 q 300 371 300 419 q 328 264 300 301 q 422 226 356 226 q 562 300 518 226 q 628 506 606 374 z "},"१":{"ha":522,"x_min":101,"x_max":525,"o":"m 101 764 l 140 985 l 525 985 l 351 0 l 104 0 l 239 764 l 101 764 z "},"२":{"ha":793,"x_min":-14,"x_max":796,"o":"m 71 229 q 313 408 222 338 q 469 553 403 479 q 546 696 535 628 q 550 732 550 715 q 528 793 550 772 q 464 814 507 814 q 328 663 357 814 l 97 663 q 248 926 133 838 q 511 1014 363 1014 q 726 949 656 1014 q 796 776 796 883 q 790 715 796 743 q 644 451 765 574 q 343 207 522 329 l 718 207 l 683 14 l -14 14 l 17 190 l 71 229 z "},"३":{"ha":840,"x_min":39,"x_max":814,"o":"m 129 728 q 267 957 161 876 q 529 1038 372 1038 q 740 975 667 1038 q 814 813 814 913 q 810 763 814 788 q 738 613 793 671 q 617 535 682 556 l 617 529 q 714 460 679 507 q 749 343 749 414 q 743 285 749 313 q 617 73 719 154 q 358 -8 514 -8 q 124 57 210 -8 q 39 256 39 122 q 44 321 39 274 l 275 321 q 272 290 272 299 q 300 215 272 242 q 383 189 328 189 q 483 229 446 189 q 521 332 521 269 q 483 406 521 383 q 363 429 444 429 l 318 429 l 353 622 l 397 622 q 575 733 554 622 q 578 758 578 750 q 555 818 578 797 q 489 839 532 839 q 404 807 436 839 q 360 728 372 775 l 129 728 z "},"४":{"ha":940,"x_min":31,"x_max":885,"o":"m 31 181 l 64 372 l 613 1000 l 879 1000 l 771 386 l 885 386 l 849 181 l 735 181 l 703 0 l 464 0 l 497 181 l 31 181 m 613 739 l 317 386 l 550 386 l 613 739 z "},"५":{"ha":903,"x_min":97,"x_max":885,"o":"m 849 807 l 415 807 l 382 615 q 468 665 415 646 q 579 685 521 685 q 772 614 710 685 q 833 431 833 543 q 826 353 833 397 q 689 95 797 190 q 414 0 581 0 q 179 70 261 0 q 97 258 97 140 q 100 301 97 271 l 331 301 q 360 230 332 258 q 442 201 388 201 q 546 243 507 201 q 599 354 585 285 q 601 392 601 368 q 492 494 601 494 q 410 472 444 494 q 360 411 376 449 l 131 411 l 236 1015 l 885 1015 l 849 807 z "},"६":{"ha":885,"x_min":86,"x_max":846,"o":"m 624 740 q 598 817 621 792 q 524 843 575 843 q 398 775 444 843 q 322 557 351 707 q 425 633 363 606 q 557 661 488 661 q 740 597 674 661 q 807 417 807 533 q 800 335 807 371 q 728 157 782 233 q 588 38 674 81 q 394 -6 503 -6 q 158 76 229 -6 q 86 313 86 158 q 107 514 86 393 q 265 906 154 778 q 568 1035 375 1035 q 778 962 710 1035 q 846 776 846 889 q 844 740 846 753 l 624 740 m 467 474 q 351 429 400 474 q 301 303 301 385 q 332 224 301 251 q 421 196 363 196 q 524 233 482 196 q 578 333 567 269 q 581 367 581 356 q 551 445 581 417 q 467 474 522 474 z "},"७":{"ha":743,"x_min":29,"x_max":817,"o":"m 786 826 l 278 0 l 29 0 l 542 800 l 111 800 l 147 1001 l 817 1001 l 786 826 z "},"८":{"ha":900,"x_min":53,"x_max":869,"o":"m 256 551 q 160 719 160 607 q 164 769 160 743 q 227 906 176 842 q 364 1008 278 969 q 564 1047 450 1047 q 734 1016 665 1047 q 836 932 803 985 q 869 815 869 879 q 865 769 869 793 q 808 639 853 694 q 697 551 763 583 q 783 473 753 522 q 813 358 813 424 q 807 300 813 328 q 727 128 789 200 q 573 18 665 56 q 375 -19 481 -19 q 142 49 232 -19 q 53 238 53 117 q 58 300 53 271 q 125 451 74 388 q 256 551 176 515 m 529 853 q 438 821 476 853 q 390 732 400 789 q 388 706 388 713 q 415 638 388 663 q 488 614 442 614 q 589 654 547 614 q 631 761 631 694 q 603 829 631 806 q 529 853 576 853 m 458 449 q 347 413 393 449 q 289 313 300 376 q 286 283 286 293 q 318 205 286 235 q 410 175 350 175 q 533 223 486 175 q 581 342 581 271 q 548 420 581 392 q 458 449 515 449 z "},"९":{"ha":854,"x_min":78,"x_max":833,"o":"m 300 297 q 328 215 303 243 q 408 188 354 188 q 524 253 482 188 q 592 465 567 318 q 498 399 556 422 q 375 375 440 375 q 188 438 257 375 q 118 618 118 500 q 125 696 118 661 q 262 943 153 851 q 532 1035 371 1035 q 763 956 693 1035 q 833 725 833 876 q 814 532 833 642 q 729 235 782 351 q 589 57 676 118 q 371 -4 501 -4 q 151 71 224 -4 q 78 261 78 146 q 79 297 78 285 l 300 297 m 461 563 q 573 608 529 563 q 617 731 617 654 q 588 807 617 781 q 504 833 558 833 q 401 797 443 833 q 349 696 360 760 q 346 665 346 674 q 375 590 346 618 q 461 563 404 563 z "},"ॐ":{"ha":1489,"x_min":17,"x_max":1381,"o":"m 874 1251 q 823 1272 843 1251 q 803 1322 803 1292 q 833 1392 803 1363 q 903 1421 864 1421 q 954 1401 935 1421 q 974 1351 974 1382 q 944 1281 974 1310 q 874 1251 914 1251 m 846 1008 q 624 1072 703 1008 q 546 1243 546 1136 q 551 1301 546 1275 l 724 1301 q 722 1278 722 1293 q 758 1196 722 1228 q 861 1164 794 1164 q 983 1203 936 1164 q 1042 1301 1031 1242 l 1217 1301 q 1101 1085 1196 1163 q 846 1008 1006 1008 m 1128 947 q 1319 887 1258 947 q 1381 710 1381 826 q 1371 604 1381 657 l 1342 436 q 1190 128 1306 233 q 892 22 1075 22 q 753 36 824 22 l 785 217 q 885 207 850 207 q 1054 267 999 207 q 1129 443 1110 328 l 1164 633 q 1168 682 1168 661 q 1094 764 1168 764 q 983 644 1003 764 q 926 471 964 536 q 820 375 888 406 q 643 342 753 344 q 638 288 643 324 q 522 88 615 163 q 296 14 428 14 q 91 78 165 14 q 17 249 17 142 q 22 307 17 281 l 226 307 q 225 286 225 300 q 249 225 225 249 q 317 201 274 201 q 399 231 365 201 q 442 310 432 261 q 443 331 443 317 q 415 397 443 371 q 332 424 388 424 l 268 424 l 301 607 l 364 607 q 464 642 425 607 q 503 729 503 676 q 481 788 503 767 q 421 808 458 808 q 344 783 376 808 q 304 715 313 758 l 103 715 q 166 861 117 797 q 291 960 215 925 q 458 994 367 994 q 642 940 575 994 q 708 789 708 885 q 704 738 708 765 q 642 603 690 660 q 519 525 594 547 l 518 519 l 542 511 l 621 511 q 729 540 693 511 q 781 647 765 569 q 888 871 807 794 q 1128 947 969 947 z "},"॰":{"ha":661,"x_min":88,"x_max":574,"o":"m 374 700 q 519 649 465 700 q 574 513 574 597 q 569 467 574 492 q 474 299 550 364 q 293 235 397 235 q 144 286 200 235 q 88 422 88 338 q 92 467 88 444 q 190 635 111 569 q 374 700 268 700 m 351 571 q 260 535 297 571 q 222 446 222 500 q 247 387 222 410 q 315 364 272 364 q 394 392 360 364 q 436 467 428 421 q 438 486 438 474 q 414 547 438 524 q 351 571 390 571 z "},"।":{"ha":478,"x_min":114,"x_max":511,"o":"m 511 1028 l 331 0 l 114 0 l 294 1028 l 511 1028 z "},"॥":{"ha":857,"x_min":114,"x_max":889,"o":"m 511 1028 l 331 0 l 114 0 l 294 1028 l 511 1028 m 889 1028 l 708 0 l 492 0 l 672 1028 l 889 1028 z "},"₨":{"ha":1653,"x_min":15,"x_max":1597,"o":"m 890 669 q 803 494 874 571 q 615 386 733 417 l 781 0 l 511 0 l 365 371 l 318 371 l 253 0 l 15 0 l 188 975 l 586 975 q 817 907 738 975 q 896 729 896 839 q 890 669 896 697 m 1356 522 q 1330 585 1357 564 q 1254 607 1303 607 q 1175 587 1206 607 q 1144 535 1144 567 q 1179 490 1144 504 q 1294 457 1214 475 q 1426 423 1374 440 q 1515 368 1478 406 q 1553 268 1553 331 q 1507 126 1553 190 q 1379 26 1461 63 q 1193 -11 1297 -11 q 958 57 1040 -11 q 882 253 876 125 l 1118 253 q 1143 190 1114 211 q 1222 168 1172 168 q 1303 188 1274 168 q 1332 240 1332 208 q 1295 288 1332 272 q 1181 319 1258 304 q 1049 353 1100 336 q 962 406 999 369 q 925 506 925 443 q 970 644 925 579 q 1099 747 1015 708 q 1293 786 1182 786 q 1520 715 1443 786 q 1592 522 1597 643 l 1356 522 m 647 658 q 650 688 650 681 q 622 756 650 732 q 538 781 593 781 l 390 781 l 349 538 l 494 538 q 647 658 625 538 z "},"₹":{"ha":831,"x_min":56,"x_max":889,"o":"m 743 815 l 728 732 l 847 732 l 821 588 l 694 588 q 553 399 650 464 q 290 335 456 335 l 281 279 q 276 239 276 258 q 353 165 276 165 q 428 194 403 165 q 464 282 454 224 l 683 282 q 563 64 654 142 q 328 -14 472 -14 q 125 45 194 -14 q 56 224 56 104 q 64 311 56 264 l 96 490 q 309 497 239 490 q 417 523 379 503 q 474 588 454 543 l 85 588 l 111 732 l 506 732 l 521 815 l 125 815 l 154 975 l 889 975 l 861 815 l 743 815 z "},"‌":{"ha":0,"x_min":-32,"x_max":33,"o":"m -32 -319 l -32 1126 l 33 1126 l 33 -319 l -32 -319 z "},"‍":{"ha":0,"x_min":-178,"x_max":178,"o":"m 132 778 l 32 882 l 32 -319 l -33 -319 l -33 882 l -129 781 l -175 826 l -46 956 l -178 1088 l -132 1133 l 0 1001 l 133 1133 l 178 1089 l 44 956 l 178 824 l 132 778 z "},"◌":{"ha":904,"x_min":69,"x_max":835,"o":"m 478 692 q 461 649 478 665 q 418 633 444 633 q 375 649 392 633 q 358 692 358 665 q 375 734 358 718 q 418 750 392 750 q 461 734 444 750 q 478 692 478 718 m 646 671 q 629 628 646 644 q 586 613 613 613 q 543 628 560 613 q 526 671 526 644 q 543 713 526 697 q 586 729 560 729 q 629 713 613 729 q 646 671 646 697 m 315 633 q 299 591 315 607 q 256 575 282 575 q 213 591 229 575 q 196 633 196 607 q 213 676 196 660 q 256 692 229 692 q 299 676 282 692 q 315 633 315 660 m 774 568 q 757 526 774 542 q 714 510 740 510 q 671 526 688 510 q 654 568 654 542 q 671 610 654 594 q 714 626 688 626 q 757 610 740 626 q 774 568 774 594 m 210 496 q 193 453 210 469 q 150 438 176 438 q 107 453 124 438 q 90 496 90 469 q 107 538 90 522 q 150 554 124 554 q 193 538 176 554 q 210 496 210 522 m 835 410 q 818 367 835 383 q 775 351 801 351 q 732 367 749 351 q 715 410 715 383 q 732 452 715 436 q 775 468 749 468 q 818 452 801 468 q 835 410 835 436 m 189 328 q 172 285 189 301 q 129 269 156 269 q 86 285 103 269 q 69 328 69 301 q 86 370 69 354 q 129 386 103 386 q 172 370 156 386 q 189 328 189 354 m 821 243 q 804 201 821 217 q 761 185 788 185 q 718 201 735 185 q 701 243 701 217 q 718 285 701 269 q 761 301 735 301 q 804 285 788 301 q 821 243 821 269 m 251 171 q 235 128 251 144 q 192 113 218 113 q 149 128 165 113 q 132 171 132 144 q 149 213 132 197 q 192 229 165 229 q 235 213 218 229 q 251 171 251 197 m 719 110 q 703 67 719 83 q 660 51 686 51 q 617 67 633 51 q 600 110 600 83 q 617 152 600 136 q 660 168 633 168 q 703 152 686 168 q 719 110 719 136 m 388 65 q 371 23 388 39 q 328 7 354 7 q 285 23 301 7 q 268 65 268 39 q 285 108 268 92 q 328 124 301 124 q 371 108 354 124 q 388 65 388 92 m 560 46 q 543 3 560 19 q 500 -12 526 -12 q 457 3 474 -12 q 440 46 440 19 q 457 88 440 72 q 500 104 474 104 q 543 88 526 104 q 560 46 560 72 z "},"!":{"ha":544,"x_min":81,"x_max":507,"o":"m 507 1010 l 361 344 l 160 344 l 250 1010 l 507 1010 m 201 -11 q 113 19 146 -11 q 81 94 81 49 q 128 203 81 158 q 247 247 176 247 q 333 217 301 247 q 365 140 365 188 q 317 33 365 78 q 201 -11 269 -11 z "},"\"":{"ha":571,"x_min":146,"x_max":642,"o":"m 376 1111 l 306 804 l 146 804 l 181 1111 l 376 1111 m 642 1111 l 569 804 l 410 804 l 444 1111 l 642 1111 z "},"#":{"ha":1256,"x_min":-6,"x_max":1285,"o":"m 1029 608 l 958 426 l 1126 426 l 1088 213 l 875 213 l 792 0 l 569 0 l 653 213 l 422 213 l 339 0 l 117 0 l 200 213 l -6 213 l 33 426 l 283 426 l 354 608 l 154 608 l 192 822 l 438 822 l 518 1028 l 740 1028 l 660 822 l 890 822 l 971 1028 l 1193 1028 l 1113 822 l 1285 822 l 1247 608 l 1029 608 m 807 608 l 576 608 l 506 426 l 736 426 l 807 608 z "},"$":{"ha":914,"x_min":40,"x_max":865,"o":"m 608 699 q 554 796 614 774 l 517 581 q 670 530 617 551 q 766 462 724 508 q 808 338 808 415 q 803 283 808 322 q 739 142 790 207 q 603 37 688 78 q 413 -8 519 -4 l 393 -121 l 306 -121 l 325 -7 q 117 69 193 6 q 40 242 40 132 q 43 288 40 272 l 296 288 q 358 181 288 201 l 397 400 q 248 447 303 425 q 151 517 193 469 q 108 642 108 564 q 114 699 108 671 q 244 902 136 825 q 501 988 353 979 l 521 1100 l 608 1100 l 589 988 q 793 913 721 976 q 865 739 865 850 q 863 699 865 726 l 608 699 m 367 710 q 365 693 365 704 q 435 610 365 640 l 468 803 q 401 772 428 796 q 367 710 374 749 m 553 275 q 554 290 554 281 q 481 372 554 344 l 446 176 q 517 210 489 183 q 553 275 546 236 z "},"%":{"ha":1131,"x_min":100,"x_max":1063,"o":"m 104 758 q 200 931 125 869 q 378 992 275 992 q 520 945 467 992 q 574 813 574 899 q 568 758 574 785 q 474 586 549 647 q 297 525 400 525 q 153 572 207 525 q 100 706 100 619 q 104 758 100 732 m 1050 978 l 342 0 l 113 0 l 821 978 l 1050 978 m 353 851 q 269 758 286 851 q 267 726 267 733 q 319 665 267 665 q 374 688 351 665 q 404 758 396 711 q 407 789 407 781 q 353 851 407 851 m 596 219 q 690 392 615 331 q 868 453 765 453 q 1010 407 957 453 q 1063 275 1063 361 q 1057 219 1063 246 q 963 47 1038 108 q 786 -14 889 -14 q 644 33 697 -14 q 590 165 590 79 q 596 219 590 193 m 843 313 q 789 290 811 313 q 758 219 767 267 q 756 188 756 194 q 810 126 756 126 q 863 150 842 126 q 893 219 885 174 q 896 250 896 242 q 843 313 896 313 z "},"&":{"ha":1122,"x_min":18,"x_max":1047,"o":"m 960 386 q 844 229 899 290 l 1039 0 l 763 0 l 688 88 q 347 -15 536 -15 q 106 52 194 -15 q 18 235 18 119 q 90 431 18 344 q 281 568 161 517 q 238 699 238 635 q 282 849 238 783 q 406 951 326 915 q 585 988 485 988 q 777 931 710 988 q 844 786 844 874 q 840 744 844 768 l 618 744 q 619 761 619 750 q 601 802 619 788 q 556 817 583 817 q 492 792 518 817 q 465 731 465 768 q 521 613 465 682 l 717 381 l 742 419 l 808 507 l 1047 507 l 960 386 m 394 176 q 567 228 488 176 l 388 438 q 294 369 328 410 q 261 279 261 328 q 297 205 261 233 q 394 176 332 176 z "},"'":{"ha":307,"x_min":146,"x_max":376,"o":"m 376 1111 l 306 804 l 146 804 l 181 1111 l 376 1111 z "},"(":{"ha":663,"x_min":117,"x_max":808,"o":"m 286 -290 q 160 -56 203 -194 q 117 249 117 83 q 172 631 117 439 q 331 990 228 824 q 574 1268 435 1157 l 808 1268 l 804 1246 q 564 974 667 1131 q 405 640 461 818 q 349 286 349 463 q 394 -16 349 126 q 525 -268 439 -158 l 521 -290 l 286 -290 z "},")":{"ha":663,"x_min":-97,"x_max":579,"o":"m -97 -290 l -93 -268 q 141 5 42 -150 q 294 333 240 160 q 349 679 349 507 q 301 989 349 843 q 160 1246 253 1135 l 164 1268 l 399 1268 q 533 1028 488 1171 q 579 715 579 885 q 526 340 579 529 q 372 -15 472 150 q 138 -290 272 -181 l -97 -290 z "},"*":{"ha":742,"x_min":157,"x_max":718,"o":"m 664 965 l 718 824 l 538 764 l 699 706 l 589 558 l 471 681 l 474 500 l 311 500 l 375 681 l 217 557 l 157 707 l 338 767 l 179 822 l 283 965 l 406 844 l 403 1028 l 568 1028 l 500 844 l 664 965 z "},"+":{"ha":872,"x_min":78,"x_max":825,"o":"m 786 378 l 546 378 l 503 132 l 275 132 l 318 378 l 78 378 l 115 593 l 357 593 l 400 840 l 628 840 l 585 593 l 825 593 l 786 378 z "},",":{"ha":403,"x_min":-56,"x_max":325,"o":"m 325 225 l 100 -178 l -56 -178 l 83 225 l 325 225 z "},"-":{"ha":806,"x_min":69,"x_max":717,"o":"m 717 586 l 681 389 l 69 389 l 106 586 l 717 586 z "},".":{"ha":392,"x_min":4,"x_max":289,"o":"m 125 -11 q 37 19 69 -11 q 4 94 4 49 q 52 203 4 158 q 171 247 100 247 q 257 217 225 247 q 289 140 289 188 q 241 33 289 78 q 125 -11 193 -11 z "},"/":{"ha":629,"x_min":-103,"x_max":779,"o":"m 779 1319 l 126 -260 l -103 -260 l 549 1319 l 779 1319 z "},":":{"ha":394,"x_min":4,"x_max":289,"o":"m 125 -11 q 37 19 69 -11 q 4 94 4 49 q 52 203 4 158 q 171 247 100 247 q 257 217 225 247 q 289 140 289 188 q 241 33 289 78 q 125 -11 193 -11 m 125 554 q 37 584 69 554 q 4 660 4 614 q 52 768 4 724 q 171 813 100 813 q 257 783 225 813 q 289 706 289 753 q 241 599 289 643 q 125 554 193 554 z "},";":{"ha":482,"x_min":-43,"x_max":425,"o":"m 261 543 q 173 573 206 543 q 140 649 140 603 q 188 757 140 713 q 307 801 236 801 q 393 772 361 801 q 425 694 425 742 q 377 588 425 632 q 261 543 329 543 m 338 225 l 113 -178 l -43 -178 l 96 225 l 338 225 z "},"<":{"ha":765,"x_min":94,"x_max":729,"o":"m 322 179 l 94 486 l 431 793 l 729 793 l 392 486 l 621 179 l 322 179 z "},"=":{"ha":967,"x_min":60,"x_max":939,"o":"m 939 769 l 900 556 l 121 556 l 160 769 l 939 769 m 875 415 l 838 201 l 60 201 l 97 415 l 875 415 z "},">":{"ha":751,"x_min":49,"x_max":683,"o":"m 157 793 l 456 793 l 683 486 l 347 179 l 49 179 l 386 486 l 157 793 z "},"?":{"ha":747,"x_min":86,"x_max":764,"o":"m 483 1029 q 688 968 613 1029 q 764 794 764 907 q 758 732 764 761 q 636 528 735 601 q 397 454 538 456 l 372 350 l 164 350 l 201 608 l 285 608 q 455 635 393 608 q 528 733 517 663 q 529 754 529 740 q 507 813 529 792 q 444 835 485 835 q 362 806 394 835 q 321 729 329 778 l 97 729 q 161 882 111 814 q 294 990 211 950 q 483 1029 376 1029 m 207 -11 q 119 19 151 -11 q 86 94 86 49 q 134 203 86 158 q 253 247 182 247 q 339 217 307 247 q 371 140 371 188 q 323 33 371 78 q 207 -11 275 -11 z "},"@":{"ha":1489,"x_min":90,"x_max":1386,"o":"m 847 928 q 1133 866 1011 928 q 1320 692 1254 804 q 1386 435 1386 581 q 1345 215 1386 317 q 1224 53 1304 114 q 1035 -7 1144 -7 q 915 22 963 -7 q 849 104 867 51 q 750 20 811 50 q 617 -10 689 -10 q 454 51 513 -10 q 396 221 396 113 q 437 412 396 322 q 551 556 478 501 q 718 610 625 610 q 876 526 835 610 l 889 600 l 1081 600 l 1018 251 q 1014 208 1014 229 q 1026 162 1014 178 q 1069 146 1039 146 q 1172 231 1136 146 q 1207 428 1207 317 q 1106 677 1207 586 q 824 768 1004 768 q 541 693 668 768 q 341 488 414 618 q 268 203 268 358 q 367 -58 268 35 q 642 -151 465 -151 q 886 -101 778 -151 l 925 -253 q 619 -312 789 -312 q 340 -251 460 -312 q 156 -78 221 -190 q 90 185 90 35 q 189 565 90 394 q 460 831 288 735 q 847 928 633 928 m 693 161 q 797 212 754 161 q 840 333 840 263 q 815 411 840 382 q 743 440 789 440 q 640 388 681 440 q 600 263 600 335 q 624 189 600 217 q 693 161 649 161 z "},"A":{"ha":1024,"x_min":-49,"x_max":932,"o":"m 653 172 l 289 172 l 200 0 l -49 0 l 476 975 l 751 975 l 932 0 l 681 0 l 653 172 m 625 353 l 568 714 l 382 353 l 625 353 z "},"B":{"ha":915,"x_min":15,"x_max":903,"o":"m 899 722 q 828 579 883 636 q 694 500 772 522 q 804 432 764 485 q 844 308 844 379 q 840 265 844 286 q 721 72 819 143 q 469 0 622 0 l 15 0 l 188 975 l 626 975 q 831 921 758 975 q 903 771 903 867 q 899 722 903 747 m 510 579 q 606 606 569 579 q 650 682 642 632 q 651 704 651 690 q 625 766 651 744 q 547 788 599 788 l 392 788 l 356 579 l 510 579 m 604 297 q 607 322 607 314 q 578 385 607 363 q 497 408 549 408 l 325 408 l 286 189 l 461 189 q 558 217 522 189 q 604 297 594 244 z "},"C":{"ha":1058,"x_min":53,"x_max":1042,"o":"m 63 489 q 170 747 88 633 q 375 923 253 860 q 639 986 497 986 q 920 894 813 986 q 1042 644 1028 803 l 781 644 q 715 735 763 704 q 597 767 667 767 q 407 691 488 767 q 304 489 326 615 q 297 421 297 450 q 351 267 297 324 q 500 210 406 210 q 627 242 568 210 q 726 333 686 274 l 988 333 q 778 84 918 175 q 464 -7 638 -7 q 246 42 339 -7 q 103 179 153 90 q 53 386 53 268 q 63 489 53 439 z "},"D":{"ha":1010,"x_min":15,"x_max":988,"o":"m 553 975 q 785 927 688 975 q 935 792 883 879 q 988 589 988 706 q 978 488 988 549 q 870 233 953 344 q 660 61 788 122 q 381 0 533 0 l 15 0 l 188 975 l 553 975 m 401 203 q 625 278 536 203 q 736 488 714 353 q 743 557 743 529 q 681 716 743 660 q 503 772 618 772 l 389 772 l 289 203 l 401 203 z "},"E":{"ha":751,"x_min":15,"x_max":785,"o":"m 392 788 l 357 585 l 675 585 l 643 406 l 325 406 l 286 188 l 646 188 l 613 0 l 15 0 l 188 975 l 785 975 l 751 788 l 392 788 z "},"F":{"ha":760,"x_min":15,"x_max":822,"o":"m 822 975 l 789 788 l 392 788 l 356 578 l 653 578 l 619 397 l 322 397 l 253 0 l 15 0 l 188 975 l 822 975 z "},"G":{"ha":1058,"x_min":53,"x_max":1042,"o":"m 63 489 q 170 747 88 633 q 376 923 253 860 q 644 986 500 986 q 926 901 819 986 q 1042 667 1032 817 l 781 667 q 717 741 763 715 q 607 767 672 767 q 409 691 492 767 q 304 489 326 615 q 297 417 297 447 q 357 258 297 314 q 526 203 417 203 q 683 248 615 203 q 793 376 751 293 l 493 376 l 522 550 l 1039 550 l 1000 329 q 881 164 958 240 q 699 40 804 88 q 471 -7 593 -7 q 249 42 344 -7 q 103 181 154 92 q 53 388 53 269 q 63 489 53 428 z "},"H":{"ha":1015,"x_min":15,"x_max":1032,"o":"m 1032 975 l 860 0 l 622 0 l 693 404 l 324 404 l 253 0 l 15 0 l 188 975 l 425 975 l 357 592 l 726 592 l 794 975 l 1032 975 z "},"I":{"ha":410,"x_min":15,"x_max":425,"o":"m 425 975 l 253 0 l 15 0 l 188 975 l 425 975 z "},"J":{"ha":803,"x_min":17,"x_max":799,"o":"m 799 975 l 682 311 q 553 74 654 157 q 304 -10 451 -10 q 94 57 171 -10 q 17 249 17 124 q 24 326 17 292 l 260 326 q 256 286 256 304 q 276 224 256 244 q 335 203 297 203 q 406 230 378 203 q 444 311 435 257 l 561 975 l 799 975 z "},"K":{"ha":968,"x_min":15,"x_max":1029,"o":"m 567 497 l 871 0 l 581 0 l 329 431 l 253 0 l 15 0 l 188 975 l 425 975 l 350 547 l 751 975 l 1029 975 l 567 497 z "},"L":{"ha":663,"x_min":15,"x_max":596,"o":"m 285 181 l 596 181 l 564 0 l 15 0 l 188 975 l 425 975 l 285 181 z "},"M":{"ha":1275,"x_min":15,"x_max":1292,"o":"m 1292 975 l 1119 0 l 882 0 l 986 585 l 664 0 l 472 0 l 356 588 l 253 0 l 15 0 l 188 975 l 468 975 l 624 300 l 1013 975 l 1292 975 z "},"N":{"ha":1044,"x_min":15,"x_max":1060,"o":"m 888 0 l 650 0 l 360 601 l 253 0 l 15 0 l 188 975 l 425 975 l 715 371 l 822 975 l 1060 975 l 888 0 z "},"O":{"ha":1092,"x_min":65,"x_max":1058,"o":"m 479 -10 q 262 42 356 -10 q 117 186 168 93 q 65 400 65 279 q 139 705 65 571 q 344 914 213 839 q 642 989 475 989 q 861 938 767 989 q 1007 795 956 888 q 1058 583 1058 703 q 985 277 1058 413 q 779 66 911 142 q 479 -10 647 -10 m 515 210 q 676 257 607 210 q 784 384 746 304 q 822 557 822 464 q 767 714 822 657 q 611 771 711 771 q 449 724 519 771 q 341 598 379 676 q 303 425 303 519 q 358 267 303 325 q 515 210 414 210 z "},"P":{"ha":867,"x_min":15,"x_max":881,"o":"m 875 661 q 810 506 861 576 q 670 393 758 436 q 463 350 582 350 l 315 350 l 253 0 l 15 0 l 188 975 l 572 975 q 803 908 725 975 q 881 725 881 840 q 875 661 881 690 m 476 536 q 633 661 610 536 q 636 693 636 683 q 608 762 636 738 q 521 786 579 786 l 392 786 l 349 536 l 476 536 z "},"Q":{"ha":1094,"x_min":65,"x_max":1058,"o":"m 1058 583 q 992 290 1058 421 q 806 82 925 158 l 968 -167 l 681 -167 l 588 -1 q 479 -10 536 -10 q 262 42 356 -10 q 117 186 168 93 q 65 400 65 279 q 139 705 65 571 q 344 914 213 839 q 642 989 475 989 q 861 938 767 989 q 1007 795 956 888 q 1058 583 1058 703 m 303 425 q 358 267 303 325 q 515 210 414 210 q 676 257 607 210 q 784 384 746 304 q 822 557 822 464 q 767 714 822 657 q 611 771 711 771 q 449 724 519 771 q 341 598 379 676 q 303 425 303 519 z "},"R":{"ha":906,"x_min":15,"x_max":896,"o":"m 586 975 q 817 906 738 975 q 896 728 896 838 q 890 668 896 696 q 806 494 874 571 q 624 386 738 418 l 781 0 l 513 0 l 375 368 l 318 368 l 253 0 l 15 0 l 188 975 l 586 975 m 647 658 q 650 688 650 681 q 622 756 650 732 q 538 781 593 781 l 390 781 l 347 536 l 494 536 q 598 568 560 536 q 647 658 636 600 z "},"S":{"ha":864,"x_min":46,"x_max":828,"o":"m 403 -10 q 145 59 244 -10 q 46 254 46 128 q 49 292 46 267 l 296 292 q 321 208 292 239 q 410 178 350 178 q 495 201 464 178 q 526 268 526 225 q 487 340 526 313 q 364 403 447 368 q 233 466 283 436 q 144 547 182 496 q 107 676 107 599 q 154 843 106 772 q 289 951 203 914 q 486 989 375 989 q 664 958 586 989 q 785 867 742 926 q 828 728 828 808 q 826 697 828 707 l 574 697 q 575 714 575 703 q 548 777 575 753 q 474 801 521 801 q 392 777 424 801 q 361 711 361 753 q 400 641 361 669 q 521 575 439 613 q 655 506 603 538 q 744 420 707 474 q 782 289 782 367 q 736 135 782 203 q 604 28 690 67 q 403 -10 518 -10 z "},"T":{"ha":821,"x_min":101,"x_max":889,"o":"m 889 975 l 857 788 l 597 788 l 458 0 l 221 0 l 360 788 l 101 788 l 135 975 l 889 975 z "},"U":{"ha":979,"x_min":74,"x_max":1000,"o":"m 421 975 l 318 393 q 313 343 313 357 q 349 245 313 279 q 456 211 385 211 q 592 258 539 211 q 660 393 644 306 l 763 975 l 1000 975 l 897 393 q 803 170 874 261 q 633 35 733 79 q 414 -10 532 -10 q 167 69 261 -10 q 74 299 74 149 q 82 393 74 343 l 183 975 l 421 975 z "},"V":{"ha":1014,"x_min":114,"x_max":1103,"o":"m 367 975 l 479 239 l 850 975 l 1103 975 l 585 0 l 288 0 l 114 975 l 367 975 z "},"W":{"ha":1461,"x_min":136,"x_max":1529,"o":"m 1529 975 l 1103 0 l 815 0 l 772 640 l 499 0 l 211 0 l 136 975 l 390 975 l 406 265 l 704 975 l 967 975 l 1008 269 l 1274 975 l 1529 975 z "},"X":{"ha":993,"x_min":-31,"x_max":1049,"o":"m 651 483 l 889 0 l 613 0 l 467 299 l 239 0 l -31 0 l 369 496 l 135 975 l 411 975 l 556 681 l 779 975 l 1049 975 l 651 483 z "},"Y":{"ha":932,"x_min":111,"x_max":1024,"o":"m 1024 975 l 572 322 l 514 0 l 276 0 l 335 322 l 111 975 l 381 975 l 497 568 l 757 975 l 1024 975 z "},"Z":{"ha":828,"x_min":-1,"x_max":860,"o":"m 303 194 l 722 194 l 688 0 l -1 0 l 31 181 l 553 781 l 136 781 l 171 975 l 860 975 l 828 794 l 303 194 z "},"[":{"ha":708,"x_min":46,"x_max":738,"o":"m 738 1275 l 704 1083 l 510 1083 l 303 -90 l 497 -90 l 463 -283 l 46 -283 l 321 1275 l 738 1275 z "},"\\":{"ha":783,"x_min":267,"x_max":563,"o":"m 333 -260 l 267 1319 l 496 1319 l 563 -260 l 333 -260 z "},"]":{"ha":708,"x_min":6,"x_max":697,"o":"m 422 -290 l 6 -290 l 39 -97 l 233 -97 l 440 1076 l 247 1076 l 281 1268 l 697 1268 l 422 -290 z "},"^":{"ha":985,"x_min":13,"x_max":914,"o":"m 251 229 l 13 229 l 481 978 l 711 978 l 914 229 l 674 229 l 547 703 l 251 229 z "},"_":{"ha":1083,"x_min":-1,"x_max":899,"o":"m 899 -57 l 860 -285 l -1 -285 l 38 -57 l 899 -57 z "},"`":{"ha":404,"x_min":115,"x_max":454,"o":"m 454 992 l 424 828 l 115 968 l 147 1153 l 454 992 z "},"a":{"ha":943,"x_min":29,"x_max":924,"o":"m 38 389 q 119 599 58 508 q 267 738 181 689 q 449 786 353 786 q 586 753 531 786 q 667 665 642 719 l 686 775 l 924 775 l 786 0 l 549 0 l 569 110 q 457 22 525 56 q 307 -11 389 -11 q 162 26 225 -11 q 64 133 99 64 q 29 294 29 201 q 38 389 29 339 m 618 388 q 622 433 622 413 q 583 540 622 501 q 482 579 543 579 q 353 528 411 579 q 279 389 294 478 q 275 343 275 364 q 315 235 275 275 q 414 196 354 196 q 543 247 485 196 q 618 388 601 299 z "},"b":{"ha":943,"x_min":15,"x_max":910,"o":"m 369 665 q 482 753 414 719 q 631 786 550 786 q 833 705 756 786 q 910 483 910 624 q 901 389 910 439 q 819 178 881 269 q 672 38 758 88 q 490 -11 586 -11 q 353 22 408 -11 q 272 108 297 54 l 253 0 l 15 0 l 197 1028 l 435 1028 l 369 665 m 661 389 q 665 432 665 413 q 626 540 665 501 q 525 579 586 579 q 396 528 454 579 q 321 388 338 476 q 317 342 317 363 q 356 235 317 274 q 456 196 394 196 q 585 248 526 196 q 661 389 644 300 z "},"c":{"ha":840,"x_min":29,"x_max":817,"o":"m 38 388 q 124 599 58 508 q 285 738 189 689 q 496 786 382 786 q 726 710 642 786 q 817 494 811 633 l 564 494 q 456 583 549 583 q 343 533 390 583 q 279 388 296 482 q 274 326 274 358 q 304 226 274 261 q 388 192 335 192 q 525 281 479 192 l 779 281 q 613 67 725 144 q 356 -11 500 -11 q 117 72 206 -11 q 29 297 29 154 q 38 388 29 340 z "},"d":{"ha":943,"x_min":29,"x_max":968,"o":"m 38 389 q 119 599 58 508 q 267 738 181 689 q 449 786 353 786 q 583 754 525 786 q 667 668 640 722 l 731 1028 l 968 1028 l 786 0 l 549 0 l 568 111 q 457 22 524 56 q 308 -11 390 -11 q 163 26 226 -11 q 65 133 100 64 q 29 296 29 203 q 38 389 29 339 m 618 388 q 622 433 622 413 q 583 540 622 501 q 482 579 543 579 q 353 528 411 579 q 279 389 294 478 q 275 343 275 364 q 315 235 275 275 q 414 196 354 196 q 543 247 485 196 q 618 388 601 299 z "},"e":{"ha":856,"x_min":29,"x_max":825,"o":"m 499 786 q 737 705 649 786 q 825 483 825 624 q 818 401 825 438 q 801 333 813 369 l 264 333 q 263 307 263 325 q 296 214 263 246 q 385 182 329 182 q 521 257 474 182 l 774 257 q 611 64 724 139 q 358 -11 499 -11 q 119 72 208 -11 q 29 299 29 156 q 38 388 29 342 q 124 599 58 508 q 286 738 189 689 q 499 786 383 786 m 585 454 q 588 481 588 474 q 553 566 588 536 q 461 596 518 596 q 353 559 400 596 q 286 454 307 522 l 585 454 z "},"f":{"ha":500,"x_min":39,"x_max":592,"o":"m 557 886 q 458 867 489 890 q 415 782 426 843 l 414 775 l 542 775 l 507 578 l 379 578 l 278 0 l 39 0 l 140 578 l 54 578 l 89 775 l 175 775 l 179 797 q 301 1015 206 940 q 554 1089 396 1089 q 592 1088 579 1089 l 557 886 z "},"g":{"ha":943,"x_min":-26,"x_max":924,"o":"m 449 786 q 588 753 531 786 q 667 665 644 719 l 686 775 l 924 775 l 788 1 q 710 -192 768 -106 q 556 -331 653 -279 q 332 -382 460 -382 q 67 -301 160 -382 q -17 -81 -26 -219 l 218 -81 q 259 -151 222 -125 q 357 -176 296 -176 q 482 -134 431 -176 q 550 1 533 -92 l 569 111 q 458 23 525 57 q 308 -11 390 -11 q 163 26 226 -11 q 65 133 100 64 q 29 296 29 203 q 38 389 29 339 q 119 599 58 508 q 267 738 181 689 q 449 786 353 786 m 618 388 q 622 433 622 413 q 583 540 622 501 q 482 579 543 579 q 353 528 411 579 q 279 389 294 478 q 275 343 275 364 q 315 235 275 275 q 414 196 354 196 q 543 247 485 196 q 618 388 601 299 z "},"h":{"ha":936,"x_min":15,"x_max":875,"o":"m 629 783 q 809 718 743 783 q 875 536 875 653 q 867 453 875 497 l 786 0 l 550 0 l 625 421 q 629 463 629 444 q 597 553 629 521 q 506 585 564 585 q 389 542 436 585 q 328 421 342 499 l 328 424 l 253 0 l 15 0 l 197 1028 l 435 1028 l 372 672 q 485 753 418 724 q 629 783 551 783 z "},"i":{"ha":410,"x_min":15,"x_max":451,"o":"m 286 856 q 198 885 231 856 q 165 961 165 915 q 214 1068 165 1024 q 332 1113 263 1113 q 419 1083 388 1113 q 451 1006 451 1053 q 403 900 451 944 q 286 856 354 856 m 389 775 l 253 0 l 15 0 l 151 775 l 389 775 z "},"j":{"ha":408,"x_min":-179,"x_max":450,"o":"m 285 856 q 197 885 229 856 q 164 961 164 915 q 213 1068 164 1024 q 331 1113 261 1113 q 417 1083 385 1113 q 450 1008 450 1054 q 402 901 450 946 q 285 856 354 856 m 235 -100 q -86 -369 189 -369 l -179 -369 l -143 -168 l -86 -168 q -28 -153 -47 -168 q -3 -103 -10 -137 l 151 775 l 389 775 l 235 -100 z "},"k":{"ha":858,"x_min":15,"x_max":917,"o":"m 526 386 l 783 0 l 489 0 l 310 324 l 253 0 l 15 0 l 197 1028 l 435 1028 l 335 461 l 624 775 l 917 775 l 526 386 z "},"l":{"ha":410,"x_min":15,"x_max":435,"o":"m 435 1028 l 253 0 l 15 0 l 197 1028 l 435 1028 z "},"m":{"ha":1471,"x_min":15,"x_max":1408,"o":"m 1143 783 q 1338 717 1268 783 q 1408 533 1408 651 q 1400 453 1408 497 l 1319 0 l 1083 0 l 1158 421 q 1161 458 1161 435 q 1128 547 1161 517 q 1038 578 1096 578 q 921 537 968 578 q 861 421 874 496 l 786 0 l 550 0 l 625 421 q 628 458 628 435 q 595 547 628 517 q 504 578 563 578 q 388 537 435 578 q 328 421 340 496 l 328 428 l 253 0 l 15 0 l 151 775 l 389 775 l 372 676 q 480 755 417 726 q 617 783 543 783 q 767 746 706 783 q 856 638 829 708 q 983 743 907 703 q 1143 783 1060 783 z "},"n":{"ha":936,"x_min":15,"x_max":875,"o":"m 625 783 q 808 718 742 783 q 875 536 875 653 q 867 453 875 497 l 786 0 l 550 0 l 625 421 q 629 463 629 444 q 597 553 629 521 q 506 585 564 585 q 389 542 436 585 q 328 421 342 499 l 328 428 l 253 0 l 15 0 l 151 775 l 389 775 l 371 671 q 483 753 417 722 q 625 783 549 783 z "},"o":{"ha":885,"x_min":29,"x_max":851,"o":"m 369 -11 q 192 29 269 -11 q 72 143 114 69 q 29 314 29 217 q 92 554 29 446 q 264 724 154 663 q 508 786 374 786 q 687 745 608 786 q 808 631 765 704 q 851 460 851 557 q 788 219 851 326 q 615 50 725 111 q 369 -11 504 -11 m 403 193 q 508 228 461 193 q 580 320 554 264 q 606 438 606 376 q 568 544 606 507 q 474 582 531 582 q 369 547 414 582 q 299 454 324 511 q 274 335 274 397 q 310 230 274 267 q 403 193 346 193 z "},"p":{"ha":943,"x_min":-50,"x_max":910,"o":"m 369 665 q 481 753 414 719 q 631 786 549 786 q 833 704 756 786 q 910 482 910 622 q 901 389 910 439 q 819 178 881 269 q 672 38 758 88 q 490 -11 586 -11 q 354 22 410 -11 q 272 108 299 56 l 188 -369 l -50 -369 l 151 775 l 389 775 l 369 665 m 661 389 q 665 432 665 413 q 626 540 665 501 q 525 579 586 579 q 396 528 454 579 q 321 388 338 476 q 317 342 317 363 q 356 235 317 274 q 456 196 394 196 q 585 248 526 196 q 661 389 644 300 z "},"q":{"ha":943,"x_min":28,"x_max":924,"o":"m 36 386 q 120 592 57 501 q 274 733 183 682 q 460 783 364 783 q 588 758 535 783 q 671 686 640 732 l 686 775 l 924 775 l 722 -369 l 485 -369 l 567 97 q 455 19 518 49 q 318 -10 392 -10 q 169 29 235 -10 q 65 138 103 68 q 28 301 28 208 q 36 386 28 343 m 618 388 q 622 432 622 411 q 581 540 622 503 q 482 578 540 578 q 397 556 440 578 q 322 492 354 535 q 278 386 289 449 q 274 343 274 364 q 315 234 274 272 q 414 196 357 196 q 499 217 456 196 q 574 282 542 239 q 618 388 607 325 z "},"r":{"ha":594,"x_min":15,"x_max":635,"o":"m 364 635 q 488 744 418 704 q 635 783 558 783 l 590 532 l 525 532 q 385 494 436 532 q 317 360 333 456 l 253 0 l 15 0 l 151 775 l 389 775 l 364 635 z "},"s":{"ha":775,"x_min":17,"x_max":713,"o":"m 338 -11 q 173 18 246 -11 q 58 99 100 47 q 17 219 17 151 q 19 254 17 229 l 249 254 q 274 185 246 211 q 356 160 303 160 q 429 176 400 160 q 458 224 458 193 q 427 270 458 253 q 324 313 396 288 q 198 362 249 338 q 111 432 147 386 q 75 547 75 478 q 115 670 75 615 q 228 756 156 725 q 397 786 301 786 q 564 755 493 786 q 674 668 635 724 q 713 543 713 613 l 711 522 l 496 522 q 471 589 499 564 q 392 614 443 614 q 326 597 351 614 q 300 551 300 581 q 334 501 300 521 q 440 456 368 481 q 565 406 515 431 q 649 338 614 382 q 685 229 685 294 q 640 100 685 154 q 516 17 594 46 q 338 -11 438 -11 z "},"t":{"ha":564,"x_min":61,"x_max":583,"o":"m 338 267 q 336 249 336 260 q 351 213 336 224 q 399 201 365 201 l 483 201 l 447 0 l 326 0 q 93 196 93 0 q 100 269 93 225 l 156 578 l 61 578 l 96 775 l 190 775 l 224 964 l 461 964 l 428 775 l 583 775 l 549 578 l 393 578 l 338 267 z "},"u":{"ha":936,"x_min":58,"x_max":917,"o":"m 917 775 l 781 0 l 543 0 l 561 106 q 449 23 515 54 q 308 -8 383 -8 q 125 58 192 -8 q 58 242 58 124 q 65 322 58 286 l 146 775 l 382 775 l 308 354 q 304 311 304 332 q 337 222 304 253 q 428 190 369 190 q 541 230 494 190 q 603 343 588 269 l 679 775 l 917 775 z "},"v":{"ha":869,"x_min":79,"x_max":924,"o":"m 403 222 l 669 775 l 924 775 l 511 0 l 217 0 l 79 775 l 332 775 l 403 222 z "},"w":{"ha":1203,"x_min":72,"x_max":1265,"o":"m 1265 775 l 918 0 l 656 0 l 622 503 l 407 0 l 146 0 l 72 775 l 310 775 l 321 221 l 550 775 l 801 775 l 836 221 l 1042 775 l 1265 775 z "},"x":{"ha":817,"x_min":-57,"x_max":869,"o":"m 542 383 l 740 0 l 474 0 l 363 214 l 200 0 l -57 0 l 268 396 l 72 775 l 339 775 l 450 560 l 613 775 l 869 775 l 542 383 z "},"y":{"ha":878,"x_min":1,"x_max":944,"o":"m 329 775 l 424 290 l 688 775 l 944 775 l 257 -368 l 1 -368 l 249 26 l 65 775 l 329 775 z "},"z":{"ha":689,"x_min":-28,"x_max":703,"o":"m 272 196 l 610 196 l 574 0 l -28 0 l 7 189 l 397 579 l 78 579 l 113 775 l 703 775 l 669 586 l 272 196 z "},"{":{"ha":693,"x_min":128,"x_max":750,"o":"m 161 583 q 313 690 296 589 q 326 847 321 733 q 342 1019 332 968 q 446 1203 363 1138 q 650 1269 529 1269 l 750 1269 l 715 1075 l 663 1075 q 594 1056 618 1075 q 563 996 569 1036 q 555 926 558 971 q 550 865 551 882 q 531 681 542 744 q 473 554 518 604 q 351 490 428 504 l 350 488 q 468 356 468 464 q 457 271 468 322 q 419 118 446 219 q 383 -44 383 -14 q 456 -99 383 -99 l 510 -99 l 475 -293 l 375 -293 q 209 -242 269 -293 q 149 -97 149 -192 q 163 3 149 -57 q 206 153 178 63 q 233 247 221 203 q 244 311 244 292 q 217 371 244 350 q 128 394 189 392 l 161 583 z "},"|":{"ha":404,"x_min":-18,"x_max":450,"o":"m 219 -179 l -18 -179 l 213 1132 l 450 1132 l 219 -179 z "},"}":{"ha":693,"x_min":-21,"x_max":601,"o":"m 568 394 q 417 288 435 389 q 404 142 410 246 q 388 -42 399 24 q 283 -227 367 -161 q 79 -293 200 -293 l -21 -293 l 14 -99 l 67 -99 q 135 -78 111 -99 q 165 -18 158 -58 q 174 58 171 10 q 179 119 178 106 q 197 296 188 247 q 256 423 211 374 q 378 488 301 472 l 379 490 q 260 633 260 514 q 264 681 260 656 q 307 850 275 739 q 343 996 339 964 q 346 1019 346 1013 q 328 1061 346 1047 q 274 1075 311 1075 l 219 1075 l 254 1269 l 354 1269 q 520 1219 460 1269 q 581 1075 581 1168 q 575 1019 581 1046 q 528 842 565 967 q 508 776 524 828 q 488 690 493 725 q 485 667 485 674 q 601 583 485 589 l 568 394 z "},"~":{"ha":883,"x_min":18,"x_max":879,"o":"m 18 289 q 156 517 71 443 q 349 590 240 590 q 427 577 394 590 q 501 538 460 564 q 555 508 533 518 q 600 499 576 499 q 703 590 675 499 l 879 590 q 742 363 828 436 q 549 289 657 289 q 472 302 504 289 q 397 342 439 315 q 344 371 365 361 q 297 381 322 381 q 193 289 224 381 l 18 289 z "}," ":{"ha":321,"x_min":0,"x_max":0,"o":""},"¡":{"ha":571,"x_min":47,"x_max":474,"o":"m 353 794 q 441 765 408 794 q 474 689 474 735 q 426 581 474 625 q 307 536 378 536 q 221 566 253 536 q 189 643 189 596 q 237 750 189 706 q 353 794 285 794 m 47 -226 l 193 439 l 394 439 l 304 -226 l 47 -226 z "},"¢":{"ha":876,"x_min":43,"x_max":790,"o":"m 460 526 q 340 481 388 526 q 276 356 292 436 q 272 310 272 331 q 305 217 272 250 q 399 185 338 185 q 484 206 447 185 q 538 264 521 226 l 757 264 q 631 78 728 150 q 407 -6 535 6 l 388 -118 l 299 -118 l 318 -6 q 114 80 185 6 q 43 276 43 154 q 50 356 43 310 q 182 607 78 511 q 446 717 286 703 l 465 829 l 554 829 l 535 717 q 719 641 649 706 q 790 474 790 576 q 789 447 790 456 l 571 447 q 460 526 558 526 z "},"£":{"ha":921,"x_min":25,"x_max":872,"o":"m 651 722 q 653 749 653 731 q 556 843 653 843 q 465 809 501 843 q 417 708 428 775 q 413 657 413 683 q 421 558 413 625 l 672 558 l 644 399 l 426 399 l 426 394 q 384 282 417 340 q 296 181 351 224 l 778 181 l 746 -6 l 38 -6 l 25 111 q 143 235 101 169 q 201 396 185 300 l 201 399 l 51 399 l 79 558 l 190 558 q 186 632 186 592 q 194 732 186 678 q 327 956 219 875 q 585 1038 435 1038 q 801 967 729 1038 q 872 778 872 896 q 868 722 872 751 l 651 722 z "},"¤":{"ha":801,"x_min":67,"x_max":781,"o":"m 692 675 q 718 574 718 631 q 714 525 718 550 q 639 376 700 439 l 701 301 l 593 208 l 519 297 q 378 272 456 272 q 246 297 301 272 l 142 208 l 67 301 l 156 378 q 132 476 132 421 q 136 525 132 500 q 210 674 153 615 l 146 751 l 254 844 l 331 751 q 468 775 394 775 q 597 753 538 775 l 706 844 l 781 751 l 692 675 m 319 524 q 317 496 317 504 q 341 431 317 453 q 403 410 365 410 q 483 439 447 410 q 529 524 519 468 q 532 554 532 546 q 508 619 532 597 q 444 640 483 640 q 365 610 400 640 q 319 524 329 581 z "},"¥":{"ha":932,"x_min":32,"x_max":1024,"o":"m 757 590 l 896 590 l 868 431 l 646 429 l 588 344 l 853 344 l 825 186 l 547 186 l 514 0 l 276 0 l 310 186 l 32 186 l 60 344 l 328 344 l 299 429 l 75 431 l 103 590 l 243 590 l 111 975 l 381 975 l 493 543 l 757 975 l 1024 975 l 757 590 z "},"¦":{"ha":529,"x_min":43,"x_max":513,"o":"m 275 1132 l 513 1132 l 413 563 l 174 563 l 275 1132 m 281 -179 l 43 -179 l 144 390 l 382 390 l 281 -179 z "},"§":{"ha":815,"x_min":10,"x_max":785,"o":"m 547 726 q 549 749 549 735 q 483 822 549 822 q 393 754 406 822 q 392 739 392 749 q 431 674 392 704 q 578 596 471 644 q 719 500 671 553 q 767 379 767 447 q 763 339 767 360 q 708 219 751 271 q 579 131 664 167 q 646 -19 646 64 q 642 -62 646 -40 q 581 -190 629 -133 q 456 -279 533 -247 q 278 -311 378 -311 q 81 -251 151 -311 q 10 -89 10 -192 q 13 -49 10 -76 l 247 -49 q 246 -71 246 -57 q 311 -144 246 -144 q 372 -128 349 -144 q 400 -76 394 -111 q 401 -61 401 -71 q 362 3 401 -26 q 217 82 322 32 q 76 178 124 125 q 28 301 28 232 q 31 339 28 326 q 217 547 60 492 q 149 701 149 614 q 151 740 149 726 q 212 868 164 811 q 338 957 260 925 q 517 989 417 989 q 715 929 644 989 q 785 765 785 869 q 782 726 785 754 l 547 726 m 418 447 q 319 410 358 447 q 281 319 281 372 q 307 256 281 281 q 379 231 333 231 q 469 262 432 231 q 513 339 506 293 q 515 363 515 356 q 490 424 515 400 q 418 447 464 447 z "},"¨":{"ha":510,"x_min":111,"x_max":597,"o":"m 197 861 q 135 885 160 861 q 111 944 111 908 q 148 1030 111 994 q 233 1065 185 1065 q 296 1042 272 1065 q 319 982 319 1018 q 283 897 319 932 q 197 861 246 861 m 475 861 q 413 885 438 861 q 389 944 389 908 q 426 1030 389 994 q 511 1065 463 1065 q 574 1042 550 1065 q 597 982 597 1018 q 560 897 597 932 q 475 861 524 861 z "},"©":{"ha":1082,"x_min":58,"x_max":1057,"o":"m 646 989 q 864 940 771 989 q 1007 801 957 890 q 1057 594 1057 713 q 1047 490 1057 540 q 940 232 1022 346 q 735 54 858 118 q 469 -10 613 -10 q 251 40 344 -10 q 108 178 158 89 q 58 386 58 268 q 68 490 58 440 q 176 749 94 635 q 381 926 258 863 q 646 989 503 989 m 633 913 q 408 860 508 913 q 241 713 307 808 q 153 490 175 618 q 144 393 144 440 q 233 154 144 242 q 483 67 322 67 q 708 119 607 67 q 875 268 808 172 q 963 490 942 364 q 972 590 972 551 q 883 826 972 740 q 633 913 793 913 m 614 803 q 448 765 525 803 q 319 656 371 726 q 250 490 267 585 q 244 424 244 458 q 315 244 244 310 q 504 178 386 178 q 704 240 614 178 q 833 406 794 303 l 631 406 q 525 338 594 338 q 460 365 483 338 q 438 443 438 392 q 442 490 438 465 q 492 604 454 565 q 579 643 529 643 q 635 625 615 643 q 660 575 656 607 l 864 575 q 794 742 863 681 q 614 803 725 803 z "},"ª":{"ha":651,"x_min":89,"x_max":711,"o":"m 94 736 q 149 869 108 813 q 247 957 189 926 q 369 988 304 988 q 519 903 483 988 l 533 981 l 711 981 l 626 492 l 447 492 l 461 568 q 282 485 393 485 q 142 538 196 485 q 89 679 89 590 q 94 736 89 710 m 493 760 q 468 824 493 801 q 404 846 443 846 q 315 810 354 846 q 276 711 276 774 q 301 647 276 669 q 365 625 326 625 q 454 661 415 625 q 493 760 493 697 z "},"«":{"ha":774,"x_min":64,"x_max":756,"o":"m 138 167 l 64 410 l 224 653 l 443 653 l 279 410 l 357 167 l 138 167 m 450 167 l 376 410 l 536 653 l 756 653 l 592 410 l 669 167 l 450 167 z "},"¬":{"ha":1072,"x_min":49,"x_max":1028,"o":"m 1028 614 l 964 250 l 726 250 l 758 433 l 49 433 l 81 614 l 1028 614 z "},"­":{"ha":806,"x_min":69,"x_max":717,"o":"m 717 586 l 681 389 l 69 389 l 106 586 l 717 586 z "},"®":{"ha":714,"x_min":103,"x_max":718,"o":"m 464 990 q 649 924 581 990 q 718 750 718 858 q 713 690 718 718 q 647 535 697 604 q 521 428 596 467 q 358 390 446 390 q 173 456 243 390 q 103 629 103 522 q 108 690 103 663 q 174 846 124 778 q 301 952 225 914 q 464 990 376 990 m 628 690 q 632 740 632 715 q 584 866 632 819 q 450 913 536 913 q 281 851 350 913 q 193 690 211 790 q 189 643 189 665 q 237 515 189 563 q 371 468 285 468 q 540 530 469 468 q 628 690 611 592 m 465 842 q 533 821 508 842 q 557 764 557 800 q 538 702 557 729 q 486 661 519 675 l 536 547 l 419 547 l 381 650 l 379 650 l 361 547 l 258 547 l 311 842 l 465 842 m 390 721 l 424 721 q 447 739 443 721 l 447 742 q 431 756 447 756 l 396 756 l 390 721 z "},"¯":{"ha":583,"x_min":97,"x_max":682,"o":"m 682 1036 l 653 872 l 97 872 l 126 1036 l 682 1036 z "},"°":{"ha":643,"x_min":90,"x_max":672,"o":"m 94 735 q 206 917 115 850 q 426 985 297 985 q 606 931 540 985 q 672 783 672 878 q 668 735 672 760 q 557 551 647 619 q 339 482 467 482 q 158 537 225 482 q 90 686 90 592 q 94 735 90 710 m 483 733 q 486 765 486 756 q 463 834 486 811 q 403 857 439 857 q 325 825 361 857 q 278 733 289 793 q 275 703 275 711 q 300 635 275 658 q 361 611 325 611 q 438 642 403 611 q 483 733 474 674 z "},"±":{"ha":874,"x_min":39,"x_max":846,"o":"m 568 494 l 546 365 l 786 365 l 747 151 l 39 151 l 78 365 l 318 365 l 340 494 l 100 494 l 138 708 l 378 708 l 406 869 l 633 869 l 606 708 l 846 708 l 808 494 l 568 494 z "},"²":{"ha":532,"x_min":69,"x_max":569,"o":"m 389 992 q 524 953 479 992 q 569 860 569 915 q 568 838 569 844 q 514 750 558 788 q 374 669 469 713 l 282 628 l 524 628 l 499 489 l 69 489 l 93 622 l 282 725 q 376 825 367 774 l 378 835 q 370 856 378 849 q 349 864 363 864 q 299 814 311 864 l 121 814 q 210 942 139 893 q 389 992 282 992 z "},"³":{"ha":519,"x_min":65,"x_max":557,"o":"m 104 822 q 187 943 119 894 q 367 992 254 992 q 506 957 454 992 q 557 865 557 922 q 526 783 557 815 q 442 740 494 751 l 440 736 q 526 644 526 713 q 456 527 526 571 q 278 483 386 483 q 65 629 65 483 q 67 653 65 644 l 250 653 q 289 610 246 610 q 326 624 311 610 q 342 665 342 638 q 329 692 342 683 q 293 701 317 701 l 247 701 l 260 779 l 299 779 q 361 825 353 779 q 326 865 368 865 q 293 855 306 865 q 274 822 281 844 l 104 822 z "},"´":{"ha":363,"x_min":89,"x_max":482,"o":"m 450 968 l 89 828 l 118 992 l 482 1153 l 450 968 z "},"µ":{"ha":979,"x_min":-31,"x_max":942,"o":"m 942 775 l 804 0 l 567 0 l 586 113 q 477 24 543 56 q 332 -8 411 -8 q 271 3 300 -8 l 206 -369 l -31 -369 l 171 775 l 407 775 l 332 354 q 329 317 329 340 q 362 228 329 258 q 453 197 394 197 q 569 238 522 197 q 629 354 617 279 l 629 351 l 704 775 l 942 775 z "},"¶":{"ha":983,"x_min":82,"x_max":981,"o":"m 808 0 l 613 0 l 753 794 l 667 794 l 526 0 l 331 0 l 399 379 l 367 379 q 152 445 222 379 q 82 617 82 511 q 88 676 82 638 q 149 825 103 757 q 278 934 196 893 q 471 975 360 975 l 981 975 l 808 0 z "},"·":{"ha":415,"x_min":18,"x_max":303,"o":"m 139 308 q 51 338 83 308 q 18 414 18 368 q 66 522 18 478 q 185 567 114 567 q 271 537 239 567 q 303 460 303 507 q 255 353 303 397 q 139 308 207 308 z "},"¸":{"ha":435,"x_min":-122,"x_max":315,"o":"m 161 -51 q 270 -83 225 -51 q 315 -176 315 -114 q 313 -210 315 -197 q 235 -330 299 -289 q 92 -371 171 -371 l -122 -371 l -99 -240 l 82 -240 q 126 -232 110 -240 q 144 -204 142 -224 q 136 -177 149 -185 q 96 -169 124 -169 l -3 -169 l 29 10 l 172 10 l 161 -51 z "},"¹":{"ha":346,"x_min":106,"x_max":392,"o":"m 106 840 l 129 978 l 392 978 l 306 489 l 126 489 l 189 840 l 106 840 z "},"º":{"ha":636,"x_min":90,"x_max":664,"o":"m 94 735 q 203 915 114 846 q 419 985 293 985 q 598 929 532 985 q 664 782 664 874 q 660 735 664 760 q 602 604 647 661 q 487 515 557 547 q 333 482 417 482 q 156 538 221 482 q 90 688 90 594 q 94 735 90 710 m 478 733 q 481 760 481 753 q 456 826 481 803 q 396 850 432 850 q 319 820 353 850 q 276 733 286 790 q 274 706 274 714 q 297 641 274 664 q 357 618 319 618 q 434 648 400 618 q 478 733 468 678 z "},"»":{"ha":774,"x_min":28,"x_max":719,"o":"m 192 410 l 114 653 l 333 653 l 407 410 l 247 167 l 28 167 l 192 410 m 504 410 l 426 653 l 646 653 l 719 410 l 560 167 l 340 167 l 504 410 z "},"¼":{"ha":1092,"x_min":51,"x_max":1013,"o":"m 133 840 l 157 978 l 419 978 l 333 489 l 154 489 l 217 840 l 133 840 m 988 975 l 281 0 l 51 0 l 760 975 l 988 975 m 996 86 l 940 86 l 924 0 l 744 0 l 761 86 l 490 86 l 506 181 l 763 489 l 1011 489 l 958 188 l 1013 188 l 996 86 m 818 371 l 679 192 l 788 192 l 818 371 z "},"½":{"ha":1140,"x_min":51,"x_max":1138,"o":"m 989 978 l 281 0 l 51 0 l 760 978 l 989 978 m 217 840 l 133 840 l 157 978 l 419 978 l 333 489 l 154 489 l 217 840 m 957 501 q 1092 463 1047 501 q 1138 369 1138 425 q 1136 347 1138 354 q 1082 260 1126 297 q 942 179 1038 222 l 850 138 l 1092 138 l 1067 -1 l 638 -1 l 661 132 l 850 235 q 944 335 935 283 l 946 344 q 938 366 946 358 q 917 374 931 374 q 867 324 879 374 l 689 324 q 778 452 707 403 q 957 501 850 501 z "},"¾":{"ha":1238,"x_min":114,"x_max":1172,"o":"m 153 822 q 235 943 168 894 q 415 992 303 992 q 554 957 503 992 q 606 865 606 922 q 574 783 606 815 q 490 740 543 751 l 489 736 q 575 644 575 713 q 505 527 575 571 q 326 483 435 483 q 114 629 114 483 q 115 653 114 644 l 299 653 q 338 610 294 610 q 375 624 360 610 q 390 665 390 638 q 378 692 390 683 q 342 701 365 701 l 296 701 l 308 779 l 347 779 q 410 825 401 779 q 375 865 417 865 q 342 855 354 865 q 322 822 329 844 l 153 822 m 1149 978 l 440 0 l 213 0 l 919 978 l 1149 978 m 1154 86 l 1100 86 l 1083 0 l 906 0 l 921 86 l 649 86 l 665 181 l 908 489 l 1171 489 l 1117 188 l 1172 188 l 1154 86 m 982 385 l 838 188 l 946 188 l 982 385 z "},"¿":{"ha":747,"x_min":-18,"x_max":660,"o":"m 539 794 q 627 765 594 794 q 660 689 660 735 q 612 581 660 625 q 493 536 564 536 q 407 566 439 536 q 375 643 375 596 q 423 750 375 706 q 539 794 471 794 m 263 -246 q 58 -185 133 -246 q -18 -11 -18 -124 q -12 51 -18 22 q 110 255 11 182 q 349 329 208 328 l 374 433 l 582 433 l 544 175 l 461 175 q 291 148 353 175 q 218 50 229 121 q 217 29 217 43 q 239 -30 217 -8 q 301 -51 261 -51 q 384 -23 351 -51 q 425 54 417 6 l 649 54 q 585 -99 635 -31 q 452 -206 535 -167 q 263 -246 369 -246 z "},"À":{"ha":1024,"x_min":-49,"x_max":932,"o":"m 653 172 l 289 172 l 200 0 l -49 0 l 476 975 l 751 975 l 932 0 l 681 0 l 653 172 m 625 353 l 568 714 l 382 353 l 625 353 m 815 1194 l 785 1031 l 476 1171 l 508 1356 l 815 1194 z "},"Á":{"ha":1024,"x_min":-49,"x_max":932,"o":"m 653 172 l 289 172 l 200 0 l -49 0 l 476 975 l 751 975 l 932 0 l 681 0 l 653 172 m 625 353 l 568 714 l 382 353 l 625 353 m 811 1171 l 450 1031 l 479 1194 l 843 1356 l 811 1171 z "},"Â":{"ha":1024,"x_min":-49,"x_max":932,"o":"m 653 172 l 289 172 l 200 0 l -49 0 l 476 975 l 751 975 l 932 0 l 681 0 l 653 172 m 625 353 l 568 714 l 382 353 l 625 353 m 646 1149 l 408 1028 l 438 1192 l 674 1308 l 868 1192 l 839 1028 l 646 1149 z "},"Ã":{"ha":1024,"x_min":-49,"x_max":942,"o":"m 653 172 l 289 172 l 200 0 l -49 0 l 476 975 l 751 975 l 932 0 l 681 0 l 653 172 m 625 353 l 568 714 l 382 353 l 625 353 m 350 1050 q 578 1256 418 1256 q 631 1247 608 1256 q 681 1219 653 1238 q 717 1199 701 1206 q 749 1193 732 1193 q 819 1256 801 1193 l 942 1256 q 714 1050 874 1050 q 661 1059 683 1050 q 611 1086 639 1068 q 575 1106 590 1100 q 543 1113 560 1113 q 471 1050 493 1113 l 350 1050 z "},"Ä":{"ha":1024,"x_min":-49,"x_max":932,"o":"m 653 172 l 289 172 l 200 0 l -49 0 l 476 975 l 751 975 l 932 0 l 681 0 l 653 172 m 625 353 l 568 714 l 382 353 l 625 353 m 490 1064 q 428 1088 453 1064 q 404 1147 404 1111 q 441 1233 404 1197 q 526 1268 478 1268 q 589 1244 565 1268 q 613 1185 613 1221 q 576 1099 613 1135 q 490 1064 539 1064 m 768 1064 q 706 1088 731 1064 q 682 1147 682 1111 q 719 1233 682 1197 q 804 1268 756 1268 q 867 1244 843 1268 q 890 1185 890 1221 q 853 1099 890 1135 q 768 1064 817 1064 z "},"Å":{"ha":1024,"x_min":-49,"x_max":932,"o":"m 653 172 l 289 172 l 200 0 l -49 0 l 476 975 l 751 975 l 932 0 l 681 0 l 653 172 m 625 353 l 568 714 l 382 353 l 625 353 m 486 1203 q 556 1325 500 1279 q 685 1371 613 1371 q 787 1335 747 1371 q 826 1239 826 1300 q 799 1133 826 1179 q 724 1060 771 1086 q 625 1035 678 1035 q 523 1071 563 1035 q 483 1168 483 1107 q 486 1203 483 1178 m 724 1218 q 708 1256 724 1242 q 667 1271 692 1271 q 610 1248 635 1271 q 586 1190 586 1225 q 602 1150 586 1165 q 643 1135 618 1135 q 699 1158 675 1135 q 724 1218 724 1182 z "},"Æ":{"ha":1326,"x_min":-62,"x_max":1360,"o":"m 975 788 l 939 588 l 1250 588 l 1219 407 l 908 407 l 869 188 l 1221 188 l 1188 0 l 599 0 l 628 164 l 307 164 l 196 0 l -62 0 l 610 975 l 1360 975 l 1326 788 l 975 788 m 660 344 l 739 799 l 431 344 l 660 344 z "},"Ç":{"ha":1058,"x_min":53,"x_max":1042,"o":"m 500 210 q 627 242 568 210 q 726 333 686 274 l 988 333 q 808 105 926 193 q 540 -3 690 17 l 531 -57 q 640 -88 594 -57 q 685 -182 685 -119 q 682 -215 685 -203 q 604 -335 668 -294 q 461 -376 540 -376 l 247 -376 l 271 -246 l 451 -246 q 495 -237 479 -246 q 514 -210 511 -229 q 506 -183 518 -190 q 465 -175 493 -175 l 367 -175 l 397 -3 q 145 120 238 15 q 53 386 53 225 q 63 489 53 426 q 170 747 88 633 q 375 923 253 860 q 639 986 497 986 q 920 894 813 986 q 1042 644 1028 803 l 781 644 q 715 735 763 704 q 597 767 667 767 q 407 691 488 767 q 304 489 326 615 q 297 421 297 450 q 351 267 297 324 q 500 210 406 210 z "},"È":{"ha":751,"x_min":15,"x_max":785,"o":"m 392 788 l 357 585 l 675 585 l 643 406 l 325 406 l 286 188 l 646 188 l 613 0 l 15 0 l 188 975 l 785 975 l 751 788 l 392 788 m 682 1194 l 651 1031 l 343 1171 l 375 1356 l 682 1194 z "},"É":{"ha":751,"x_min":15,"x_max":785,"o":"m 392 788 l 357 585 l 675 585 l 643 406 l 325 406 l 286 188 l 646 188 l 613 0 l 15 0 l 188 975 l 785 975 l 751 788 l 392 788 m 678 1171 l 317 1031 l 346 1194 l 710 1356 l 678 1171 z "},"Ê":{"ha":751,"x_min":15,"x_max":785,"o":"m 392 788 l 357 585 l 675 585 l 643 406 l 325 406 l 286 188 l 646 188 l 613 0 l 15 0 l 188 975 l 785 975 l 751 788 l 392 788 m 511 1149 l 274 1028 l 303 1192 l 539 1308 l 733 1192 l 704 1028 l 511 1149 z "},"Ë":{"ha":751,"x_min":15,"x_max":785,"o":"m 392 788 l 357 585 l 675 585 l 643 406 l 325 406 l 286 188 l 646 188 l 613 0 l 15 0 l 188 975 l 785 975 l 751 788 l 392 788 m 357 1064 q 295 1088 319 1064 q 271 1147 271 1111 q 308 1233 271 1197 q 393 1268 344 1268 q 456 1244 432 1268 q 479 1185 479 1221 q 442 1099 479 1135 q 357 1064 406 1064 m 635 1064 q 573 1088 597 1064 q 549 1147 549 1111 q 585 1233 549 1197 q 671 1268 622 1268 q 733 1244 710 1268 q 757 1185 757 1221 q 720 1099 757 1135 q 635 1064 683 1064 z "},"Ì":{"ha":410,"x_min":15,"x_max":508,"o":"m 425 975 l 253 0 l 15 0 l 188 975 l 425 975 m 508 1194 l 478 1031 l 169 1171 l 201 1356 l 508 1194 z "},"Í":{"ha":410,"x_min":15,"x_max":536,"o":"m 425 975 l 253 0 l 15 0 l 188 975 l 425 975 m 504 1171 l 143 1031 l 172 1194 l 536 1356 l 504 1171 z "},"Î":{"ha":410,"x_min":15,"x_max":561,"o":"m 425 975 l 253 0 l 15 0 l 188 975 l 425 975 m 339 1149 l 101 1028 l 131 1192 l 367 1308 l 561 1192 l 532 1028 l 339 1149 z "},"Ï":{"ha":410,"x_min":15,"x_max":583,"o":"m 425 975 l 253 0 l 15 0 l 188 975 l 425 975 m 183 1064 q 122 1088 146 1064 q 97 1147 97 1111 q 134 1233 97 1197 q 219 1268 171 1268 q 282 1244 258 1268 q 306 1185 306 1221 q 269 1099 306 1135 q 183 1064 232 1064 m 461 1064 q 399 1088 424 1064 q 375 1147 375 1111 q 412 1233 375 1197 q 497 1268 449 1268 q 560 1244 536 1268 q 583 1185 583 1221 q 547 1099 583 1135 q 461 1064 510 1064 z "},"Ð":{"ha":1017,"x_min":4,"x_max":994,"o":"m 560 975 q 794 927 696 975 q 943 792 892 879 q 994 589 994 706 q 985 488 994 536 q 878 233 960 344 q 669 61 796 122 q 388 0 542 0 l 22 0 l 90 389 l 4 389 l 40 586 l 126 586 l 194 975 l 560 975 m 743 488 q 750 557 750 529 q 688 716 750 660 q 510 772 625 772 l 397 772 l 364 586 l 576 586 l 542 389 l 331 389 l 297 203 l 410 203 q 633 278 544 203 q 743 488 721 353 z "},"Ñ":{"ha":1044,"x_min":15,"x_max":1060,"o":"m 888 0 l 650 0 l 360 601 l 253 0 l 15 0 l 188 975 l 425 975 l 715 371 l 822 975 l 1060 975 l 888 0 m 360 1050 q 588 1256 428 1256 q 640 1247 618 1256 q 690 1219 663 1238 q 726 1199 711 1206 q 758 1193 742 1193 q 829 1256 811 1193 l 951 1256 q 724 1050 883 1050 q 671 1059 693 1050 q 621 1086 649 1068 q 585 1106 600 1100 q 553 1113 569 1113 q 481 1050 503 1113 l 360 1050 z "},"Ò":{"ha":1092,"x_min":65,"x_max":1058,"o":"m 479 -10 q 262 42 356 -10 q 117 186 168 93 q 65 400 65 279 q 139 705 65 571 q 344 914 213 839 q 642 989 475 989 q 861 938 767 989 q 1007 795 956 888 q 1058 583 1058 703 q 985 277 1058 413 q 779 66 911 142 q 479 -10 647 -10 m 515 210 q 676 257 607 210 q 784 384 746 304 q 822 557 822 464 q 767 714 822 657 q 611 771 711 771 q 449 724 519 771 q 341 598 379 676 q 303 425 303 519 q 358 267 303 325 q 515 210 414 210 m 847 1200 l 817 1036 l 508 1176 l 540 1361 l 847 1200 z "},"Ó":{"ha":1092,"x_min":65,"x_max":1058,"o":"m 479 -10 q 262 42 356 -10 q 117 186 168 93 q 65 400 65 279 q 139 705 65 571 q 344 914 213 839 q 642 989 475 989 q 861 938 767 989 q 1007 795 956 888 q 1058 583 1058 703 q 985 277 1058 413 q 779 66 911 142 q 479 -10 647 -10 m 515 210 q 676 257 607 210 q 784 384 746 304 q 822 557 822 464 q 767 714 822 657 q 611 771 711 771 q 449 724 519 771 q 341 598 379 676 q 303 425 303 519 q 358 267 303 325 q 515 210 414 210 m 843 1176 l 482 1036 l 511 1200 l 875 1361 l 843 1176 z "},"Ô":{"ha":1092,"x_min":65,"x_max":1058,"o":"m 479 -10 q 262 42 356 -10 q 117 186 168 93 q 65 400 65 279 q 139 705 65 571 q 344 914 213 839 q 642 989 475 989 q 861 938 767 989 q 1007 795 956 888 q 1058 583 1058 703 q 985 277 1058 413 q 779 66 911 142 q 479 -10 647 -10 m 515 210 q 676 257 607 210 q 784 384 746 304 q 822 557 822 464 q 767 714 822 657 q 611 771 711 771 q 449 724 519 771 q 341 598 379 676 q 303 425 303 519 q 358 267 303 325 q 515 210 414 210 m 678 1154 l 440 1033 l 469 1197 l 706 1314 l 900 1197 l 871 1033 l 678 1154 z "},"Õ":{"ha":1092,"x_min":65,"x_max":1058,"o":"m 479 -10 q 262 42 356 -10 q 117 186 168 93 q 65 400 65 279 q 139 705 65 571 q 344 914 213 839 q 642 989 475 989 q 861 938 767 989 q 1007 795 956 888 q 1058 583 1058 703 q 985 277 1058 413 q 779 66 911 142 q 479 -10 647 -10 m 515 210 q 676 257 607 210 q 784 384 746 304 q 822 557 822 464 q 767 714 822 657 q 611 771 711 771 q 449 724 519 771 q 341 598 379 676 q 303 425 303 519 q 358 267 303 325 q 515 210 414 210 m 382 1056 q 610 1261 450 1261 q 663 1252 640 1261 q 713 1225 685 1243 q 749 1205 733 1211 q 781 1199 764 1199 q 851 1261 833 1199 l 974 1261 q 746 1056 906 1056 q 693 1065 715 1056 q 643 1092 671 1074 q 607 1112 622 1106 q 575 1118 592 1118 q 503 1056 525 1118 l 382 1056 z "},"Ö":{"ha":1092,"x_min":65,"x_max":1058,"o":"m 479 -10 q 262 42 356 -10 q 117 186 168 93 q 65 400 65 279 q 139 705 65 571 q 344 914 213 839 q 642 989 475 989 q 861 938 767 989 q 1007 795 956 888 q 1058 583 1058 703 q 985 277 1058 413 q 779 66 911 142 q 479 -10 647 -10 m 515 210 q 676 257 607 210 q 784 384 746 304 q 822 557 822 464 q 767 714 822 657 q 611 771 711 771 q 449 724 519 771 q 341 598 379 676 q 303 425 303 519 q 358 267 303 325 q 515 210 414 210 m 522 1069 q 460 1093 485 1069 q 436 1153 436 1117 q 473 1238 436 1203 q 558 1274 510 1274 q 621 1250 597 1274 q 644 1190 644 1226 q 608 1105 644 1140 q 522 1069 571 1069 m 800 1069 q 738 1093 763 1069 q 714 1153 714 1117 q 751 1238 714 1203 q 836 1274 788 1274 q 899 1250 875 1274 q 922 1190 922 1226 q 885 1105 922 1140 q 800 1069 849 1069 z "},"×":{"ha":885,"x_min":78,"x_max":829,"o":"m 613 496 l 772 301 l 589 147 l 431 340 l 206 149 l 78 301 l 303 493 l 150 679 l 333 833 l 485 649 l 701 833 l 829 681 l 613 496 z "},"Ø":{"ha":1092,"x_min":-40,"x_max":1163,"o":"m 992 819 q 1057 583 1057 719 q 983 277 1057 413 q 778 66 910 142 q 478 -10 646 -10 q 322 15 393 -10 q 196 86 250 40 l 104 1 l -40 1 l 132 160 q 64 400 64 260 q 138 705 64 571 q 342 914 211 839 q 640 989 474 989 q 926 893 815 989 l 1019 978 l 1163 978 l 992 819 m 301 425 q 317 331 301 374 l 749 729 q 610 771 694 771 q 448 724 518 771 q 340 598 378 676 q 301 425 301 519 m 821 557 q 806 649 821 607 l 375 251 q 514 210 429 210 q 675 257 606 210 q 783 384 744 304 q 821 557 821 464 z "},"Ù":{"ha":979,"x_min":74,"x_max":1000,"o":"m 421 975 l 318 393 q 313 343 313 357 q 349 245 313 279 q 456 211 385 211 q 592 258 539 211 q 660 393 644 306 l 763 975 l 1000 975 l 897 393 q 803 170 874 261 q 633 35 733 79 q 414 -10 532 -10 q 167 69 261 -10 q 74 299 74 149 q 82 393 74 343 l 183 975 l 421 975 m 793 1194 l 763 1031 l 454 1171 l 486 1356 l 793 1194 z "},"Ú":{"ha":979,"x_min":74,"x_max":1000,"o":"m 421 975 l 318 393 q 313 343 313 357 q 349 245 313 279 q 456 211 385 211 q 592 258 539 211 q 660 393 644 306 l 763 975 l 1000 975 l 897 393 q 803 170 874 261 q 633 35 733 79 q 414 -10 532 -10 q 167 69 261 -10 q 74 299 74 149 q 82 393 74 343 l 183 975 l 421 975 m 789 1171 l 428 1031 l 457 1194 l 821 1356 l 789 1171 z "},"Û":{"ha":979,"x_min":74,"x_max":1000,"o":"m 421 975 l 318 393 q 313 343 313 357 q 349 245 313 279 q 456 211 385 211 q 592 258 539 211 q 660 393 644 306 l 763 975 l 1000 975 l 897 393 q 803 170 874 261 q 633 35 733 79 q 414 -10 532 -10 q 167 69 261 -10 q 74 299 74 149 q 82 393 74 343 l 183 975 l 421 975 m 624 1149 l 386 1028 l 415 1192 l 651 1308 l 846 1192 l 817 1028 l 624 1149 z "},"Ü":{"ha":979,"x_min":74,"x_max":1000,"o":"m 421 975 l 318 393 q 313 343 313 357 q 349 245 313 279 q 456 211 385 211 q 592 258 539 211 q 660 393 644 306 l 763 975 l 1000 975 l 897 393 q 803 170 874 261 q 633 35 733 79 q 414 -10 532 -10 q 167 69 261 -10 q 74 299 74 149 q 82 393 74 343 l 183 975 l 421 975 m 468 1064 q 406 1088 431 1064 q 382 1147 382 1111 q 419 1233 382 1197 q 504 1268 456 1268 q 567 1244 543 1268 q 590 1185 590 1221 q 553 1099 590 1135 q 468 1064 517 1064 m 746 1064 q 684 1088 708 1064 q 660 1147 660 1111 q 697 1233 660 1197 q 782 1268 733 1268 q 844 1244 821 1268 q 868 1185 868 1221 q 831 1099 868 1135 q 746 1064 794 1064 z "},"Ý":{"ha":932,"x_min":111,"x_max":1024,"o":"m 1024 975 l 572 322 l 514 0 l 276 0 l 335 322 l 111 975 l 381 975 l 497 568 l 757 975 l 1024 975 m 765 1171 l 404 1031 l 433 1194 l 797 1356 l 765 1171 z "},"Þ":{"ha":867,"x_min":15,"x_max":851,"o":"m 846 489 q 779 337 831 406 q 640 226 728 268 q 432 185 551 185 l 285 185 l 253 0 l 15 0 l 188 975 l 422 975 l 392 794 l 540 794 q 772 727 693 794 q 851 549 851 660 q 846 489 851 517 m 446 364 q 553 397 514 364 q 603 489 593 431 q 606 521 606 511 q 577 590 606 565 q 490 614 549 614 l 361 614 l 317 364 l 446 364 z "},"ß":{"ha":1014,"x_min":0,"x_max":965,"o":"m 131 742 q 273 978 157 890 q 574 1067 389 1067 q 744 1038 672 1067 q 854 959 817 1008 q 892 849 892 910 q 853 724 892 776 q 750 615 814 671 q 703 569 718 586 q 688 539 688 553 q 708 508 688 522 q 803 465 729 494 q 928 384 890 431 q 965 260 965 338 q 922 117 965 179 q 800 20 878 54 q 624 -14 722 -14 q 407 56 482 -14 q 339 251 332 126 l 557 251 q 577 183 554 208 q 642 158 600 158 q 708 177 685 158 q 732 232 732 196 q 710 278 732 258 q 632 318 689 297 q 488 394 532 356 q 443 488 443 432 q 472 574 443 535 q 557 663 501 613 q 626 733 604 706 q 649 793 649 761 q 619 849 649 828 q 536 869 589 869 q 418 832 461 869 q 364 725 375 794 l 236 0 l 0 0 l 131 742 z "},"à":{"ha":943,"x_min":29,"x_max":924,"o":"m 38 389 q 119 599 58 508 q 267 738 181 689 q 449 786 353 786 q 586 753 531 786 q 667 665 642 719 l 686 775 l 924 775 l 786 0 l 549 0 l 569 110 q 457 22 525 56 q 307 -11 389 -11 q 162 26 225 -11 q 64 133 99 64 q 29 294 29 201 q 38 389 29 339 m 618 388 q 622 433 622 413 q 583 540 622 501 q 482 579 543 579 q 353 528 411 579 q 279 389 294 478 q 275 343 275 364 q 315 235 275 275 q 414 196 354 196 q 543 247 485 196 q 618 388 601 299 m 743 992 l 713 828 l 404 968 l 436 1153 l 743 992 z "},"á":{"ha":943,"x_min":29,"x_max":924,"o":"m 38 389 q 119 599 58 508 q 267 738 181 689 q 449 786 353 786 q 586 753 531 786 q 667 665 642 719 l 686 775 l 924 775 l 786 0 l 549 0 l 569 110 q 457 22 525 56 q 307 -11 389 -11 q 162 26 225 -11 q 64 133 99 64 q 29 294 29 201 q 38 389 29 339 m 618 388 q 622 433 622 413 q 583 540 622 501 q 482 579 543 579 q 353 528 411 579 q 279 389 294 478 q 275 343 275 364 q 315 235 275 275 q 414 196 354 196 q 543 247 485 196 q 618 388 601 299 m 739 968 l 378 828 l 407 992 l 771 1153 l 739 968 z "},"â":{"ha":943,"x_min":29,"x_max":924,"o":"m 38 389 q 119 599 58 508 q 267 738 181 689 q 449 786 353 786 q 586 753 531 786 q 667 665 642 719 l 686 775 l 924 775 l 786 0 l 549 0 l 569 110 q 457 22 525 56 q 307 -11 389 -11 q 162 26 225 -11 q 64 133 99 64 q 29 294 29 201 q 38 389 29 339 m 618 388 q 622 433 622 413 q 583 540 622 501 q 482 579 543 579 q 353 528 411 579 q 279 389 294 478 q 275 343 275 364 q 315 235 275 275 q 414 196 354 196 q 543 247 485 196 q 618 388 601 299 m 574 946 l 336 825 l 365 989 l 601 1106 l 796 989 l 767 825 l 574 946 z "},"ã":{"ha":943,"x_min":29,"x_max":924,"o":"m 38 389 q 119 599 58 508 q 267 738 181 689 q 449 786 353 786 q 586 753 531 786 q 667 665 642 719 l 686 775 l 924 775 l 786 0 l 549 0 l 569 110 q 457 22 525 56 q 307 -11 389 -11 q 162 26 225 -11 q 64 133 99 64 q 29 294 29 201 q 38 389 29 339 m 618 388 q 622 433 622 413 q 583 540 622 501 q 482 579 543 579 q 353 528 411 579 q 279 389 294 478 q 275 343 275 364 q 315 235 275 275 q 414 196 354 196 q 543 247 485 196 q 618 388 601 299 m 278 847 q 506 1053 346 1053 q 558 1044 536 1053 q 608 1017 581 1035 q 644 997 629 1003 q 676 990 660 990 q 747 1053 729 990 l 869 1053 q 642 847 801 847 q 589 856 611 847 q 539 883 567 865 q 503 903 518 897 q 471 910 488 910 q 399 847 421 910 l 278 847 z "},"ä":{"ha":943,"x_min":29,"x_max":924,"o":"m 38 389 q 119 599 58 508 q 267 738 181 689 q 449 786 353 786 q 586 753 531 786 q 667 665 642 719 l 686 775 l 924 775 l 786 0 l 549 0 l 569 110 q 457 22 525 56 q 307 -11 389 -11 q 162 26 225 -11 q 64 133 99 64 q 29 294 29 201 q 38 389 29 339 m 618 388 q 622 433 622 413 q 583 540 622 501 q 482 579 543 579 q 353 528 411 579 q 279 389 294 478 q 275 343 275 364 q 315 235 275 275 q 414 196 354 196 q 543 247 485 196 q 618 388 601 299 m 418 861 q 356 885 381 861 q 332 944 332 908 q 369 1030 332 994 q 454 1065 406 1065 q 517 1042 493 1065 q 540 982 540 1018 q 503 897 540 932 q 418 861 467 861 m 696 861 q 634 885 658 861 q 610 944 610 908 q 647 1030 610 994 q 732 1065 683 1065 q 794 1042 771 1065 q 818 982 818 1018 q 781 897 818 932 q 696 861 744 861 z "},"å":{"ha":943,"x_min":29,"x_max":924,"o":"m 38 389 q 119 599 58 508 q 267 738 181 689 q 449 786 353 786 q 586 753 531 786 q 667 665 642 719 l 686 775 l 924 775 l 786 0 l 549 0 l 569 110 q 457 22 525 56 q 307 -11 389 -11 q 162 26 225 -11 q 64 133 99 64 q 29 294 29 201 q 38 389 29 339 m 618 388 q 622 433 622 413 q 583 540 622 501 q 482 579 543 579 q 353 528 411 579 q 279 389 294 478 q 275 343 275 364 q 315 235 275 275 q 414 196 354 196 q 543 247 485 196 q 618 388 601 299 m 414 1000 q 484 1122 428 1076 q 613 1168 540 1168 q 715 1133 675 1168 q 754 1036 754 1097 q 726 930 754 976 q 652 858 699 883 q 553 832 606 832 q 451 868 490 832 q 411 965 411 904 q 414 1000 411 975 m 651 1015 q 635 1053 651 1039 q 594 1068 619 1068 q 538 1045 563 1068 q 514 988 514 1022 q 530 947 514 963 q 571 932 546 932 q 627 956 603 932 q 651 1015 651 979 z "},"æ":{"ha":1485,"x_min":29,"x_max":1454,"o":"m 1169 786 q 1377 706 1300 786 q 1454 490 1454 626 q 1446 401 1454 447 q 1428 333 1439 365 l 853 333 q 890 218 850 257 q 992 179 929 179 q 1087 200 1047 179 q 1147 257 1126 221 l 1401 257 q 1252 64 1351 139 q 1029 -11 1153 -11 q 886 22 946 -11 q 801 111 826 54 l 782 0 l 550 0 l 569 111 q 456 22 524 56 q 308 -11 388 -11 q 163 26 226 -11 q 65 133 100 64 q 29 296 29 203 q 38 389 29 339 q 119 599 58 508 q 268 738 181 689 q 453 786 356 786 q 585 756 531 786 q 668 667 640 725 l 686 775 l 919 775 l 900 667 q 1169 786 1001 786 m 1213 454 q 1215 479 1215 471 q 1174 565 1215 533 q 1069 596 1133 596 q 952 560 1006 596 q 875 454 899 524 l 1213 454 m 618 388 q 622 433 622 413 q 583 540 622 501 q 482 579 543 579 q 353 528 411 579 q 279 389 294 478 q 275 343 275 364 q 315 235 275 275 q 414 196 354 196 q 543 247 485 196 q 618 388 601 299 z "},"ç":{"ha":840,"x_min":29,"x_max":817,"o":"m 388 192 q 525 281 479 192 l 779 281 q 639 88 731 163 q 426 -6 547 13 l 417 -57 q 526 -88 481 -57 q 571 -182 571 -119 q 568 -215 571 -203 q 490 -335 554 -294 q 347 -376 426 -376 l 133 -376 l 157 -246 l 338 -246 q 381 -237 365 -246 q 400 -210 397 -229 q 392 -183 404 -190 q 351 -175 379 -175 l 253 -175 l 283 -6 q 97 94 165 14 q 29 299 29 174 q 38 388 29 342 q 124 599 58 508 q 285 738 189 689 q 496 786 382 786 q 726 710 642 786 q 817 494 811 633 l 564 494 q 456 583 549 583 q 343 533 390 583 q 279 388 296 482 q 274 326 274 358 q 304 226 274 261 q 388 192 335 192 z "},"è":{"ha":856,"x_min":29,"x_max":825,"o":"m 499 786 q 737 705 649 786 q 825 483 825 624 q 818 401 825 438 q 801 333 813 369 l 264 333 q 263 307 263 325 q 296 214 263 246 q 385 182 329 182 q 521 257 474 182 l 774 257 q 611 64 724 139 q 358 -11 499 -11 q 119 72 208 -11 q 29 299 29 156 q 38 388 29 342 q 124 599 58 508 q 286 738 189 689 q 499 786 383 786 m 585 454 q 588 481 588 474 q 553 566 588 536 q 461 596 518 596 q 353 559 400 596 q 286 454 307 522 l 585 454 m 706 992 l 675 828 l 367 968 l 399 1153 l 706 992 z "},"é":{"ha":856,"x_min":29,"x_max":825,"o":"m 499 786 q 737 705 649 786 q 825 483 825 624 q 818 401 825 438 q 801 333 813 369 l 264 333 q 263 307 263 325 q 296 214 263 246 q 385 182 329 182 q 521 257 474 182 l 774 257 q 611 64 724 139 q 358 -11 499 -11 q 119 72 208 -11 q 29 299 29 156 q 38 388 29 342 q 124 599 58 508 q 286 738 189 689 q 499 786 383 786 m 585 454 q 588 481 588 474 q 553 566 588 536 q 461 596 518 596 q 353 559 400 596 q 286 454 307 522 l 585 454 m 701 968 l 340 828 l 369 992 l 733 1153 l 701 968 z "},"ê":{"ha":856,"x_min":29,"x_max":825,"o":"m 499 786 q 737 705 649 786 q 825 483 825 624 q 818 401 825 438 q 801 333 813 369 l 264 333 q 263 307 263 325 q 296 214 263 246 q 385 182 329 182 q 521 257 474 182 l 774 257 q 611 64 724 139 q 358 -11 499 -11 q 119 72 208 -11 q 29 299 29 156 q 38 388 29 342 q 124 599 58 508 q 286 738 189 689 q 499 786 383 786 m 585 454 q 588 481 588 474 q 553 566 588 536 q 461 596 518 596 q 353 559 400 596 q 286 454 307 522 l 585 454 m 536 946 l 299 825 l 328 989 l 564 1106 l 758 989 l 729 825 l 536 946 z "},"ë":{"ha":856,"x_min":29,"x_max":825,"o":"m 499 786 q 737 705 649 786 q 825 483 825 624 q 818 401 825 438 q 801 333 813 369 l 264 333 q 263 307 263 325 q 296 214 263 246 q 385 182 329 182 q 521 257 474 182 l 774 257 q 611 64 724 139 q 358 -11 499 -11 q 119 72 208 -11 q 29 299 29 156 q 38 388 29 342 q 124 599 58 508 q 286 738 189 689 q 499 786 383 786 m 585 454 q 588 481 588 474 q 553 566 588 536 q 461 596 518 596 q 353 559 400 596 q 286 454 307 522 l 585 454 m 381 861 q 319 885 343 861 q 294 944 294 908 q 331 1030 294 994 q 417 1065 368 1065 q 479 1042 456 1065 q 503 982 503 1018 q 466 897 503 932 q 381 861 429 861 m 658 861 q 597 885 621 861 q 572 944 572 908 q 609 1030 572 994 q 694 1065 646 1065 q 757 1042 733 1065 q 781 982 781 1018 q 744 897 781 932 q 658 861 707 861 z "},"ì":{"ha":446,"x_min":33,"x_max":490,"o":"m 408 775 l 271 0 l 33 0 l 171 775 l 408 775 m 490 992 l 460 828 l 151 968 l 183 1153 l 490 992 z "},"í":{"ha":446,"x_min":33,"x_max":518,"o":"m 408 775 l 271 0 l 33 0 l 171 775 l 408 775 m 486 968 l 125 828 l 154 992 l 518 1153 l 486 968 z "},"î":{"ha":446,"x_min":33,"x_max":543,"o":"m 408 775 l 271 0 l 33 0 l 171 775 l 408 775 m 321 946 l 83 825 l 113 989 l 349 1106 l 543 989 l 514 825 l 321 946 z "},"ï":{"ha":446,"x_min":33,"x_max":565,"o":"m 408 775 l 271 0 l 33 0 l 171 775 l 408 775 m 165 861 q 103 885 128 861 q 79 944 79 908 q 116 1030 79 994 q 201 1065 153 1065 q 264 1042 240 1065 q 288 982 288 1018 q 251 897 288 932 q 165 861 214 861 m 443 861 q 381 885 406 861 q 357 944 357 908 q 394 1030 357 994 q 479 1065 431 1065 q 542 1042 518 1065 q 565 982 565 1018 q 528 897 565 932 q 443 861 492 861 z "},"ð":{"ha":889,"x_min":31,"x_max":867,"o":"m 771 913 q 867 558 867 749 q 857 440 867 497 q 760 196 832 297 q 588 42 689 94 q 374 -10 488 -10 q 196 29 274 -10 q 74 140 118 68 q 31 310 31 213 q 38 389 31 343 q 125 598 58 508 q 287 735 192 688 q 489 783 382 783 q 644 740 575 783 q 594 861 628 803 l 440 817 l 457 910 l 547 936 q 468 1028 511 985 l 686 1028 q 721 986 699 1014 l 860 1026 l 843 933 l 771 913 m 606 388 q 610 436 610 415 q 572 544 610 507 q 476 581 533 581 q 353 531 410 581 q 279 388 296 482 q 275 339 275 361 q 314 231 275 268 q 410 193 353 193 q 532 243 476 193 q 606 388 588 293 z "},"ñ":{"ha":936,"x_min":15,"x_max":894,"o":"m 625 783 q 808 718 742 783 q 875 536 875 653 q 867 453 875 497 l 786 0 l 550 0 l 625 421 q 629 463 629 444 q 597 553 629 521 q 506 585 564 585 q 389 542 436 585 q 328 421 342 499 l 328 428 l 253 0 l 15 0 l 151 775 l 389 775 l 371 671 q 483 753 417 722 q 625 783 549 783 m 303 847 q 531 1053 371 1053 q 583 1044 561 1053 q 633 1017 606 1035 q 669 997 654 1003 q 701 990 685 990 q 772 1053 754 990 l 894 1053 q 667 847 826 847 q 614 856 636 847 q 564 883 592 865 q 528 903 543 897 q 496 910 513 910 q 424 847 446 910 l 303 847 z "},"ò":{"ha":885,"x_min":29,"x_max":851,"o":"m 369 -11 q 192 29 269 -11 q 72 143 114 69 q 29 314 29 217 q 92 554 29 446 q 264 724 154 663 q 508 786 374 786 q 687 745 608 786 q 808 631 765 704 q 851 460 851 557 q 788 219 851 326 q 615 50 725 111 q 369 -11 504 -11 m 403 193 q 508 228 461 193 q 580 320 554 264 q 606 438 606 376 q 568 544 606 507 q 474 582 531 582 q 369 547 414 582 q 299 454 324 511 q 274 335 274 397 q 310 230 274 267 q 403 193 346 193 m 710 1003 l 679 839 l 371 979 l 403 1164 l 710 1003 z "},"ó":{"ha":885,"x_min":29,"x_max":851,"o":"m 369 -11 q 192 29 269 -11 q 72 143 114 69 q 29 314 29 217 q 92 554 29 446 q 264 724 154 663 q 508 786 374 786 q 687 745 608 786 q 808 631 765 704 q 851 460 851 557 q 788 219 851 326 q 615 50 725 111 q 369 -11 504 -11 m 403 193 q 508 228 461 193 q 580 320 554 264 q 606 438 606 376 q 568 544 606 507 q 474 582 531 582 q 369 547 414 582 q 299 454 324 511 q 274 335 274 397 q 310 230 274 267 q 403 193 346 193 m 706 979 l 344 839 l 374 1003 l 738 1164 l 706 979 z "},"ô":{"ha":885,"x_min":29,"x_max":851,"o":"m 369 -11 q 192 29 269 -11 q 72 143 114 69 q 29 314 29 217 q 92 554 29 446 q 264 724 154 663 q 508 786 374 786 q 687 745 608 786 q 808 631 765 704 q 851 460 851 557 q 788 219 851 326 q 615 50 725 111 q 369 -11 504 -11 m 403 193 q 508 228 461 193 q 580 320 554 264 q 606 438 606 376 q 568 544 606 507 q 474 582 531 582 q 369 547 414 582 q 299 454 324 511 q 274 335 274 397 q 310 230 274 267 q 403 193 346 193 m 539 957 l 301 836 l 331 1000 l 567 1117 l 761 1000 l 732 836 l 539 957 z "},"õ":{"ha":885,"x_min":29,"x_max":851,"o":"m 369 -11 q 192 29 269 -11 q 72 143 114 69 q 29 314 29 217 q 92 554 29 446 q 264 724 154 663 q 508 786 374 786 q 687 745 608 786 q 808 631 765 704 q 851 460 851 557 q 788 219 851 326 q 615 50 725 111 q 369 -11 504 -11 m 403 193 q 508 228 461 193 q 580 320 554 264 q 606 438 606 376 q 568 544 606 507 q 474 582 531 582 q 369 547 414 582 q 299 454 324 511 q 274 335 274 397 q 310 230 274 267 q 403 193 346 193 m 243 858 q 471 1064 311 1064 q 524 1055 501 1064 q 574 1028 546 1046 q 610 1008 594 1014 q 642 1001 625 1001 q 713 1064 694 1001 l 835 1064 q 607 858 767 858 q 554 867 576 858 q 504 894 532 876 q 468 915 483 908 q 436 921 453 921 q 364 858 386 921 l 243 858 z "},"ö":{"ha":885,"x_min":29,"x_max":851,"o":"m 369 -11 q 192 29 269 -11 q 72 143 114 69 q 29 314 29 217 q 92 554 29 446 q 264 724 154 663 q 508 786 374 786 q 687 745 608 786 q 808 631 765 704 q 851 460 851 557 q 788 219 851 326 q 615 50 725 111 q 369 -11 504 -11 m 403 193 q 508 228 461 193 q 580 320 554 264 q 606 438 606 376 q 568 544 606 507 q 474 582 531 582 q 369 547 414 582 q 299 454 324 511 q 274 335 274 397 q 310 230 274 267 q 403 193 346 193 m 385 872 q 323 896 347 872 q 299 956 299 919 q 335 1041 299 1006 q 421 1076 372 1076 q 483 1053 460 1076 q 507 993 507 1029 q 470 908 507 943 q 385 872 433 872 m 663 872 q 601 896 625 872 q 576 956 576 919 q 613 1041 576 1006 q 699 1076 650 1076 q 761 1053 738 1076 q 785 993 785 1029 q 748 908 785 943 q 663 872 711 872 z "},"÷":{"ha":849,"x_min":71,"x_max":817,"o":"m 478 672 q 390 702 422 672 q 357 778 357 732 q 405 886 357 842 q 524 931 453 931 q 610 901 578 931 q 642 824 642 871 q 594 717 642 761 q 478 672 546 672 m 817 593 l 779 379 l 71 379 l 108 593 l 817 593 m 344 43 q 256 73 289 43 q 224 149 224 103 q 272 257 224 213 q 390 301 319 301 q 476 272 444 301 q 508 194 508 242 q 460 88 508 132 q 344 43 413 43 z "},"ø":{"ha":874,"x_min":-53,"x_max":921,"o":"m 788 653 q 846 460 846 572 q 783 219 846 326 q 609 50 719 111 q 364 -11 499 -11 q 139 60 229 -11 l 75 0 l -53 0 l 81 122 q 24 314 24 203 q 86 554 24 446 q 258 724 149 663 q 503 786 368 786 q 729 715 639 786 l 794 775 l 921 775 l 788 653 m 268 335 q 271 297 268 319 l 553 554 q 468 582 517 582 q 363 547 408 582 q 293 454 318 511 q 268 335 268 397 m 600 438 q 596 478 600 460 l 315 219 q 397 193 347 193 q 502 228 456 193 q 574 320 549 264 q 600 438 600 376 z "},"ù":{"ha":936,"x_min":58,"x_max":917,"o":"m 917 775 l 781 0 l 543 0 l 561 106 q 449 23 515 54 q 308 -8 383 -8 q 125 58 192 -8 q 58 242 58 124 q 65 322 58 286 l 146 775 l 382 775 l 308 354 q 304 311 304 332 q 337 222 304 253 q 428 190 369 190 q 541 230 494 190 q 603 343 588 269 l 679 775 l 917 775 m 736 992 l 706 828 l 397 968 l 429 1153 l 736 992 z "},"ú":{"ha":936,"x_min":58,"x_max":917,"o":"m 917 775 l 781 0 l 543 0 l 561 106 q 449 23 515 54 q 308 -8 383 -8 q 125 58 192 -8 q 58 242 58 124 q 65 322 58 286 l 146 775 l 382 775 l 308 354 q 304 311 304 332 q 337 222 304 253 q 428 190 369 190 q 541 230 494 190 q 603 343 588 269 l 679 775 l 917 775 m 732 968 l 371 828 l 400 992 l 764 1153 l 732 968 z "},"û":{"ha":936,"x_min":58,"x_max":917,"o":"m 917 775 l 781 0 l 543 0 l 561 106 q 449 23 515 54 q 308 -8 383 -8 q 125 58 192 -8 q 58 242 58 124 q 65 322 58 286 l 146 775 l 382 775 l 308 354 q 304 311 304 332 q 337 222 304 253 q 428 190 369 190 q 541 230 494 190 q 603 343 588 269 l 679 775 l 917 775 m 567 946 l 329 825 l 358 989 l 594 1106 l 789 989 l 760 825 l 567 946 z "},"ü":{"ha":936,"x_min":58,"x_max":917,"o":"m 917 775 l 781 0 l 543 0 l 561 106 q 449 23 515 54 q 308 -8 383 -8 q 125 58 192 -8 q 58 242 58 124 q 65 322 58 286 l 146 775 l 382 775 l 308 354 q 304 311 304 332 q 337 222 304 253 q 428 190 369 190 q 541 230 494 190 q 603 343 588 269 l 679 775 l 917 775 m 411 861 q 349 885 374 861 q 325 944 325 908 q 362 1030 325 994 q 447 1065 399 1065 q 510 1042 486 1065 q 533 982 533 1018 q 497 897 533 932 q 411 861 460 861 m 689 861 q 627 885 651 861 q 603 944 603 908 q 640 1030 603 994 q 725 1065 676 1065 q 788 1042 764 1065 q 811 982 811 1018 q 774 897 811 932 q 689 861 738 861 z "},"ý":{"ha":878,"x_min":1,"x_max":944,"o":"m 329 775 l 424 290 l 688 775 l 944 775 l 257 -368 l 1 -368 l 249 26 l 65 775 l 329 775 m 701 968 l 340 828 l 369 992 l 733 1153 l 701 968 z "},"þ":{"ha":943,"x_min":-50,"x_max":910,"o":"m 372 674 q 618 783 471 783 q 769 744 703 783 q 872 635 835 706 q 910 472 910 564 q 901 386 910 431 q 817 181 881 271 q 665 40 754 90 q 479 -10 575 -10 q 272 113 336 -10 l 188 -369 l -50 -369 l 197 1028 l 435 1028 l 372 674 m 660 386 q 664 432 664 411 q 623 540 664 501 q 525 578 582 578 q 398 528 458 578 q 321 388 338 479 q 317 344 317 365 q 358 234 317 272 q 457 196 399 196 q 542 217 500 196 q 617 281 585 239 q 660 386 649 324 z "},"ÿ":{"ha":878,"x_min":1,"x_max":944,"o":"m 329 775 l 424 290 l 688 775 l 944 775 l 257 -368 l 1 -368 l 249 26 l 65 775 l 329 775 m 381 861 q 319 885 343 861 q 294 944 294 908 q 331 1030 294 994 q 417 1065 368 1065 q 479 1042 456 1065 q 503 982 503 1018 q 466 897 503 932 q 381 861 429 861 m 658 861 q 597 885 621 861 q 572 944 572 908 q 609 1030 572 994 q 694 1065 646 1065 q 757 1042 733 1065 q 781 982 781 1018 q 744 897 781 932 q 658 861 707 861 z "},"Ā":{"ha":1024,"x_min":-49,"x_max":939,"o":"m 653 172 l 289 172 l 200 0 l -49 0 l 476 975 l 751 975 l 932 0 l 681 0 l 653 172 m 625 353 l 568 714 l 382 353 l 625 353 m 939 1239 l 910 1075 l 354 1075 l 383 1239 l 939 1239 z "},"ā":{"ha":943,"x_min":29,"x_max":924,"o":"m 38 389 q 119 599 58 508 q 267 738 181 689 q 449 786 353 786 q 586 753 531 786 q 667 665 642 719 l 686 775 l 924 775 l 786 0 l 549 0 l 569 110 q 457 22 525 56 q 307 -11 389 -11 q 162 26 225 -11 q 64 133 99 64 q 29 294 29 201 q 38 389 29 339 m 618 388 q 622 433 622 413 q 583 540 622 501 q 482 579 543 579 q 353 528 411 579 q 279 389 294 478 q 275 343 275 364 q 315 235 275 275 q 414 196 354 196 q 543 247 485 196 q 618 388 601 299 m 867 1036 l 838 872 l 282 872 l 311 1036 l 867 1036 z "},"Ă":{"ha":1024,"x_min":-49,"x_max":932,"o":"m 653 172 l 289 172 l 200 0 l -49 0 l 476 975 l 751 975 l 932 0 l 681 0 l 653 172 m 625 353 l 568 714 l 382 353 l 625 353 m 906 1282 q 809 1105 885 1168 q 626 1042 733 1042 q 481 1090 535 1042 q 426 1226 426 1139 q 432 1282 426 1243 l 438 1308 l 556 1308 q 553 1283 553 1292 q 577 1233 553 1250 q 657 1215 601 1215 q 753 1239 722 1215 q 792 1308 783 1263 l 910 1308 l 906 1282 z "},"ă":{"ha":943,"x_min":29,"x_max":924,"o":"m 38 389 q 119 599 58 508 q 267 738 181 689 q 449 786 353 786 q 586 753 531 786 q 667 665 642 719 l 686 775 l 924 775 l 786 0 l 549 0 l 569 110 q 457 22 525 56 q 307 -11 389 -11 q 162 26 225 -11 q 64 133 99 64 q 29 294 29 201 q 38 389 29 339 m 618 388 q 622 433 622 413 q 583 540 622 501 q 482 579 543 579 q 353 528 411 579 q 279 389 294 478 q 275 343 275 364 q 315 235 275 275 q 414 196 354 196 q 543 247 485 196 q 618 388 601 299 m 833 1079 q 737 902 813 965 q 554 839 661 839 q 408 888 463 839 q 354 1024 354 936 q 360 1079 354 1040 l 365 1106 l 483 1106 q 481 1081 481 1089 q 505 1030 481 1047 q 585 1013 529 1013 q 681 1036 650 1013 q 719 1106 711 1060 l 838 1106 l 833 1079 z "},"Ą":{"ha":1024,"x_min":-49,"x_max":932,"o":"m 753 -129 q 808 -168 753 -168 q 915 -147 853 -168 l 893 -281 q 751 -301 821 -301 q 622 -268 671 -301 q 572 -169 572 -235 q 575 -137 572 -160 q 678 14 592 -51 l 653 172 l 289 172 l 200 0 l -49 0 l 476 975 l 751 975 l 932 0 l 863 -31 q 776 -81 800 -57 q 753 -129 753 -104 m 625 353 l 568 714 l 382 353 l 625 353 z "},"ą":{"ha":943,"x_min":29,"x_max":924,"o":"m 718 -32 q 632 -82 657 -60 q 607 -131 607 -104 q 621 -158 607 -149 q 661 -168 635 -168 q 771 -147 706 -168 l 747 -281 q 607 -301 678 -301 q 476 -269 525 -301 q 426 -172 426 -236 q 456 -74 426 -119 q 551 14 485 -28 l 569 110 q 457 22 525 56 q 307 -11 389 -11 q 162 26 225 -11 q 64 133 99 64 q 29 294 29 201 q 38 389 29 339 q 119 599 58 508 q 267 738 181 689 q 449 786 353 786 q 586 753 531 786 q 667 665 642 719 l 686 775 l 924 775 l 786 0 l 718 -32 m 414 196 q 543 247 485 196 q 618 388 601 299 q 622 433 622 413 q 583 540 622 501 q 482 579 543 579 q 353 528 411 579 q 279 389 294 478 q 275 343 275 364 q 315 235 275 275 q 414 196 354 196 z "},"Ć":{"ha":1058,"x_min":53,"x_max":1042,"o":"m 63 489 q 170 747 88 633 q 375 923 253 860 q 639 986 497 986 q 920 894 813 986 q 1042 644 1028 803 l 781 644 q 715 735 763 704 q 597 767 667 767 q 407 691 488 767 q 304 489 326 615 q 297 421 297 450 q 351 267 297 324 q 500 210 406 210 q 627 242 568 210 q 726 333 686 274 l 988 333 q 778 84 918 175 q 464 -7 638 -7 q 246 42 339 -7 q 103 179 153 90 q 53 386 53 268 q 63 489 53 439 m 828 1171 l 467 1031 l 496 1194 l 860 1356 l 828 1171 z "},"ć":{"ha":840,"x_min":29,"x_max":817,"o":"m 38 388 q 124 599 58 508 q 285 738 189 689 q 496 786 382 786 q 726 710 642 786 q 817 494 811 633 l 564 494 q 456 583 549 583 q 343 533 390 583 q 279 388 296 482 q 274 326 274 358 q 304 226 274 261 q 388 192 335 192 q 525 281 479 192 l 779 281 q 613 67 725 144 q 356 -11 500 -11 q 117 72 206 -11 q 29 297 29 154 q 38 388 29 340 m 679 968 l 318 828 l 347 992 l 711 1153 l 679 968 z "},"Ċ":{"ha":1058,"x_min":53,"x_max":1042,"o":"m 63 489 q 170 747 88 633 q 375 923 253 860 q 639 986 497 986 q 920 894 813 986 q 1042 644 1028 803 l 781 644 q 715 735 763 704 q 597 767 667 767 q 407 691 488 767 q 304 489 326 615 q 297 421 297 450 q 351 267 297 324 q 500 210 406 210 q 627 242 568 210 q 726 333 686 274 l 988 333 q 778 84 918 175 q 464 -7 638 -7 q 246 42 339 -7 q 103 179 153 90 q 53 386 53 268 q 63 489 53 439 m 646 1064 q 585 1087 608 1064 q 561 1146 561 1110 q 598 1232 561 1196 q 682 1268 635 1268 q 744 1244 721 1268 q 768 1183 768 1221 q 731 1099 768 1135 q 646 1064 694 1064 z "},"ċ":{"ha":840,"x_min":29,"x_max":817,"o":"m 38 388 q 124 599 58 508 q 285 738 189 689 q 496 786 382 786 q 726 710 642 786 q 817 494 811 633 l 564 494 q 456 583 549 583 q 343 533 390 583 q 279 388 296 482 q 274 326 274 358 q 304 226 274 261 q 388 192 335 192 q 525 281 479 192 l 779 281 q 613 67 725 144 q 356 -11 500 -11 q 117 72 206 -11 q 29 297 29 154 q 38 388 29 340 m 496 861 q 435 884 458 861 q 411 943 411 907 q 448 1029 411 993 q 532 1065 485 1065 q 594 1042 571 1065 q 618 981 618 1018 q 581 897 618 932 q 496 861 544 861 z "},"Č":{"ha":1058,"x_min":53,"x_max":1042,"o":"m 63 489 q 170 747 88 633 q 375 923 253 860 q 639 986 497 986 q 920 894 813 986 q 1042 644 1028 803 l 781 644 q 715 735 763 704 q 597 767 667 767 q 407 691 488 767 q 304 489 326 615 q 297 421 297 450 q 351 267 297 324 q 500 210 406 210 q 627 242 568 210 q 726 333 686 274 l 988 333 q 778 84 918 175 q 464 -7 638 -7 q 246 42 339 -7 q 103 179 153 90 q 53 386 53 268 q 63 489 53 439 m 876 1144 l 640 1028 l 446 1144 l 475 1308 l 669 1188 l 906 1308 l 876 1144 z "},"č":{"ha":840,"x_min":29,"x_max":817,"o":"m 38 388 q 124 599 58 508 q 285 738 189 689 q 496 786 382 786 q 726 710 642 786 q 817 494 811 633 l 564 494 q 456 583 549 583 q 343 533 390 583 q 279 388 296 482 q 274 326 274 358 q 304 226 274 261 q 388 192 335 192 q 525 281 479 192 l 779 281 q 613 67 725 144 q 356 -11 500 -11 q 117 72 206 -11 q 29 297 29 154 q 38 388 29 340 m 726 942 l 490 825 l 296 942 l 325 1106 l 519 985 l 756 1106 l 726 942 z "},"Ď":{"ha":1010,"x_min":15,"x_max":988,"o":"m 553 975 q 785 927 688 975 q 935 792 883 879 q 988 589 988 706 q 978 488 988 549 q 870 233 953 344 q 660 61 788 122 q 381 0 533 0 l 15 0 l 188 975 l 553 975 m 401 203 q 625 278 536 203 q 736 488 714 353 q 743 557 743 529 q 681 716 743 660 q 503 772 618 772 l 389 772 l 289 203 l 401 203 m 843 1144 l 607 1028 l 413 1144 l 442 1308 l 636 1188 l 872 1308 l 843 1144 z "},"ď":{"ha":1158,"x_min":29,"x_max":1233,"o":"m 38 389 q 119 599 58 508 q 267 738 181 689 q 449 786 353 786 q 583 754 525 786 q 667 668 640 722 l 731 1028 l 968 1028 l 786 0 l 549 0 l 568 111 q 457 22 524 56 q 308 -11 390 -11 q 163 26 226 -11 q 65 133 100 64 q 29 296 29 203 q 38 389 29 339 m 1228 1028 q 1233 946 1233 990 q 1226 864 1233 897 q 1151 710 1210 767 q 994 653 1092 653 l 1011 743 q 1099 835 1082 743 l 1103 857 l 1015 857 l 1046 1028 l 1228 1028 m 618 388 q 622 433 622 413 q 583 540 622 501 q 482 579 543 579 q 353 528 411 579 q 279 389 294 478 q 275 343 275 364 q 315 235 275 275 q 414 196 354 196 q 543 247 485 196 q 618 388 601 299 z "},"Đ":{"ha":1017,"x_min":4,"x_max":994,"o":"m 560 975 q 794 927 696 975 q 943 792 892 879 q 994 589 994 706 q 985 488 994 536 q 878 233 960 344 q 669 61 796 122 q 388 0 542 0 l 22 0 l 90 389 l 4 389 l 40 586 l 126 586 l 194 975 l 560 975 m 743 488 q 750 557 750 529 q 688 716 750 660 q 510 772 625 772 l 397 772 l 364 586 l 576 586 l 542 389 l 331 389 l 297 203 l 410 203 q 633 278 544 203 q 743 488 721 353 z "},"đ":{"ha":961,"x_min":29,"x_max":1038,"o":"m 1017 821 l 932 821 l 786 0 l 549 0 l 568 111 q 457 22 524 56 q 308 -11 390 -11 q 163 26 226 -11 q 65 133 100 64 q 29 296 29 203 q 38 389 29 339 q 119 599 58 508 q 267 738 181 689 q 449 786 353 786 q 583 754 525 786 q 667 668 640 722 l 694 821 l 596 821 l 617 935 l 714 935 l 731 1028 l 968 1028 l 951 935 l 1038 935 l 1017 821 m 618 388 q 622 433 622 413 q 583 540 622 501 q 482 579 543 579 q 353 528 411 579 q 279 389 294 478 q 275 343 275 364 q 315 235 275 275 q 414 196 354 196 q 543 247 485 196 q 618 388 601 299 z "},"Ē":{"ha":751,"x_min":15,"x_max":806,"o":"m 392 788 l 357 585 l 675 585 l 643 406 l 325 406 l 286 188 l 646 188 l 613 0 l 15 0 l 188 975 l 785 975 l 751 788 l 392 788 m 806 1239 l 776 1075 l 221 1075 l 250 1239 l 806 1239 z "},"ē":{"ha":856,"x_min":29,"x_max":829,"o":"m 499 786 q 737 705 649 786 q 825 483 825 624 q 818 401 825 438 q 801 333 813 369 l 264 333 q 263 307 263 325 q 296 214 263 246 q 385 182 329 182 q 521 257 474 182 l 774 257 q 611 64 724 139 q 358 -11 499 -11 q 119 72 208 -11 q 29 299 29 156 q 38 388 29 342 q 124 599 58 508 q 286 738 189 689 q 499 786 383 786 m 585 454 q 588 481 588 474 q 553 566 588 536 q 461 596 518 596 q 353 559 400 596 q 286 454 307 522 l 585 454 m 829 1036 l 800 872 l 244 872 l 274 1036 l 829 1036 z "},"Ĕ":{"ha":751,"x_min":15,"x_max":785,"o":"m 392 788 l 357 585 l 675 585 l 643 406 l 325 406 l 286 188 l 646 188 l 613 0 l 15 0 l 188 975 l 785 975 l 751 788 l 392 788 m 771 1282 q 674 1105 750 1168 q 492 1042 599 1042 q 346 1090 400 1042 q 292 1226 292 1139 q 297 1282 292 1243 l 303 1308 l 421 1308 q 418 1283 418 1292 q 442 1233 418 1250 q 522 1215 467 1215 q 618 1239 588 1215 q 657 1308 649 1263 l 775 1308 l 771 1282 z "},"ĕ":{"ha":856,"x_min":29,"x_max":825,"o":"m 499 786 q 737 705 649 786 q 825 483 825 624 q 818 401 825 438 q 801 333 813 369 l 264 333 q 263 307 263 325 q 296 214 263 246 q 385 182 329 182 q 521 257 474 182 l 774 257 q 611 64 724 139 q 358 -11 499 -11 q 119 72 208 -11 q 29 299 29 156 q 38 388 29 342 q 124 599 58 508 q 286 738 189 689 q 499 786 383 786 m 585 454 q 588 481 588 474 q 553 566 588 536 q 461 596 518 596 q 353 559 400 596 q 286 454 307 522 l 585 454 m 796 1079 q 699 902 775 965 q 517 839 624 839 q 371 888 425 839 q 317 1024 317 936 q 322 1079 317 1040 l 328 1106 l 446 1106 q 443 1081 443 1089 q 467 1030 443 1047 q 547 1013 492 1013 q 643 1036 613 1013 q 682 1106 674 1060 l 800 1106 l 796 1079 z "},"Ė":{"ha":751,"x_min":15,"x_max":785,"o":"m 392 788 l 357 585 l 675 585 l 643 406 l 325 406 l 286 188 l 646 188 l 613 0 l 15 0 l 188 975 l 785 975 l 751 788 l 392 788 m 494 1064 q 433 1087 457 1064 q 410 1146 410 1110 q 447 1232 410 1196 q 531 1268 483 1268 q 593 1244 569 1268 q 617 1183 617 1221 q 580 1099 617 1135 q 494 1064 543 1064 z "},"ė":{"ha":856,"x_min":29,"x_max":825,"o":"m 499 786 q 737 705 649 786 q 825 483 825 624 q 818 401 825 438 q 801 333 813 369 l 264 333 q 263 307 263 325 q 296 214 263 246 q 385 182 329 182 q 521 257 474 182 l 774 257 q 611 64 724 139 q 358 -11 499 -11 q 119 72 208 -11 q 29 299 29 156 q 38 388 29 342 q 124 599 58 508 q 286 738 189 689 q 499 786 383 786 m 585 454 q 588 481 588 474 q 553 566 588 536 q 461 596 518 596 q 353 559 400 596 q 286 454 307 522 l 585 454 m 519 861 q 458 884 482 861 q 435 943 435 907 q 472 1029 435 993 q 556 1065 508 1065 q 618 1042 594 1065 q 642 981 642 1018 q 605 897 642 932 q 519 861 568 861 z "},"Ę":{"ha":751,"x_min":15,"x_max":785,"o":"m 392 788 l 357 585 l 675 585 l 643 406 l 325 406 l 286 188 l 646 188 l 613 0 l 544 -32 q 458 -82 483 -60 q 433 -131 433 -104 q 447 -158 433 -149 q 488 -168 461 -168 q 597 -147 533 -168 l 574 -281 q 433 -301 504 -301 q 302 -269 351 -301 q 253 -172 253 -236 q 256 -143 253 -162 q 287 -68 263 -103 q 357 0 311 -33 l 15 0 l 188 975 l 785 975 l 751 788 l 392 788 z "},"ę":{"ha":856,"x_min":29,"x_max":825,"o":"m 499 786 q 737 705 649 786 q 825 483 825 624 q 818 401 825 438 q 801 333 813 369 l 264 333 q 263 307 263 325 q 296 214 263 246 q 385 182 329 182 q 521 257 474 182 l 774 257 q 659 100 736 167 q 482 6 582 33 l 435 -17 q 349 -67 374 -44 q 324 -115 324 -89 q 338 -143 324 -133 q 378 -153 351 -153 q 488 -132 424 -153 l 464 -265 q 324 -286 394 -286 q 192 -253 242 -286 q 143 -157 143 -221 q 235 6 143 -64 q 83 112 138 36 q 29 299 29 188 q 38 388 29 342 q 124 599 58 508 q 286 738 189 689 q 499 786 383 786 m 585 454 q 588 481 588 474 q 553 566 588 536 q 461 596 518 596 q 353 559 400 596 q 286 454 307 522 l 585 454 z "},"Ě":{"ha":751,"x_min":15,"x_max":785,"o":"m 392 788 l 357 585 l 675 585 l 643 406 l 325 406 l 286 188 l 646 188 l 613 0 l 15 0 l 188 975 l 785 975 l 751 788 l 392 788 m 725 1144 l 489 1028 l 294 1144 l 324 1308 l 518 1188 l 754 1308 l 725 1144 z "},"ě":{"ha":856,"x_min":29,"x_max":825,"o":"m 499 786 q 737 705 649 786 q 825 483 825 624 q 818 401 825 438 q 801 333 813 369 l 264 333 q 263 307 263 325 q 296 214 263 246 q 385 182 329 182 q 521 257 474 182 l 774 257 q 611 64 724 139 q 358 -11 499 -11 q 119 72 208 -11 q 29 299 29 156 q 38 388 29 342 q 124 599 58 508 q 286 738 189 689 q 499 786 383 786 m 585 454 q 588 481 588 474 q 553 566 588 536 q 461 596 518 596 q 353 559 400 596 q 286 454 307 522 l 585 454 m 750 942 l 514 825 l 319 942 l 349 1106 l 543 985 l 779 1106 l 750 942 z "},"Ğ":{"ha":1058,"x_min":53,"x_max":1042,"o":"m 63 489 q 170 747 88 633 q 376 923 253 860 q 644 986 500 986 q 926 901 819 986 q 1042 667 1032 817 l 781 667 q 717 741 763 715 q 607 767 672 767 q 409 691 492 767 q 304 489 326 615 q 297 417 297 447 q 357 258 297 314 q 526 203 417 203 q 683 248 615 203 q 793 376 751 293 l 493 376 l 522 550 l 1039 550 l 1000 329 q 881 164 958 240 q 699 40 804 88 q 471 -7 593 -7 q 249 42 344 -7 q 103 181 154 92 q 53 388 53 269 q 63 489 53 428 m 922 1282 q 826 1105 901 1168 q 643 1042 750 1042 q 497 1090 551 1042 q 443 1226 443 1139 q 449 1282 443 1243 l 454 1308 l 572 1308 q 569 1283 569 1292 q 594 1233 569 1250 q 674 1215 618 1215 q 769 1239 739 1215 q 808 1308 800 1263 l 926 1308 l 922 1282 z "},"ğ":{"ha":943,"x_min":-26,"x_max":924,"o":"m 449 786 q 588 753 531 786 q 667 665 644 719 l 686 775 l 924 775 l 788 1 q 710 -192 768 -106 q 556 -331 653 -279 q 332 -382 460 -382 q 67 -301 160 -382 q -17 -81 -26 -219 l 218 -81 q 259 -151 222 -125 q 357 -176 296 -176 q 482 -134 431 -176 q 550 1 533 -92 l 569 111 q 458 23 525 57 q 308 -11 390 -11 q 163 26 226 -11 q 65 133 100 64 q 29 296 29 203 q 38 389 29 339 q 119 599 58 508 q 267 738 181 689 q 449 786 353 786 m 618 388 q 622 433 622 413 q 583 540 622 501 q 482 579 543 579 q 353 528 411 579 q 279 389 294 478 q 275 343 275 364 q 315 235 275 275 q 414 196 354 196 q 543 247 485 196 q 618 388 601 299 m 833 1079 q 737 902 813 965 q 554 839 661 839 q 408 888 463 839 q 354 1024 354 936 q 360 1079 354 1040 l 365 1106 l 483 1106 q 481 1081 481 1089 q 505 1030 481 1047 q 585 1013 529 1013 q 681 1036 650 1013 q 719 1106 711 1060 l 838 1106 l 833 1079 z "},"Ġ":{"ha":1058,"x_min":53,"x_max":1042,"o":"m 63 489 q 170 747 88 633 q 376 923 253 860 q 644 986 500 986 q 926 901 819 986 q 1042 667 1032 817 l 781 667 q 717 741 763 715 q 607 767 672 767 q 409 691 492 767 q 304 489 326 615 q 297 417 297 447 q 357 258 297 314 q 526 203 417 203 q 683 248 615 203 q 793 376 751 293 l 493 376 l 522 550 l 1039 550 l 1000 329 q 881 164 958 240 q 699 40 804 88 q 471 -7 593 -7 q 249 42 344 -7 q 103 181 154 92 q 53 388 53 269 q 63 489 53 428 m 646 1064 q 585 1087 608 1064 q 561 1146 561 1110 q 598 1232 561 1196 q 682 1268 635 1268 q 744 1244 721 1268 q 768 1183 768 1221 q 731 1099 768 1135 q 646 1064 694 1064 z "},"ġ":{"ha":943,"x_min":-26,"x_max":924,"o":"m 449 786 q 588 753 531 786 q 667 665 644 719 l 686 775 l 924 775 l 788 1 q 710 -192 768 -106 q 556 -331 653 -279 q 332 -382 460 -382 q 67 -301 160 -382 q -17 -81 -26 -219 l 218 -81 q 259 -151 222 -125 q 357 -176 296 -176 q 482 -134 431 -176 q 550 1 533 -92 l 569 111 q 458 23 525 57 q 308 -11 390 -11 q 163 26 226 -11 q 65 133 100 64 q 29 296 29 203 q 38 389 29 339 q 119 599 58 508 q 267 738 181 689 q 449 786 353 786 m 618 388 q 622 433 622 413 q 583 540 622 501 q 482 579 543 579 q 353 528 411 579 q 279 389 294 478 q 275 343 275 364 q 315 235 275 275 q 414 196 354 196 q 543 247 485 196 q 618 388 601 299 m 557 861 q 496 884 519 861 q 472 943 472 907 q 509 1029 472 993 q 593 1065 546 1065 q 656 1042 632 1065 q 679 981 679 1018 q 642 897 679 932 q 557 861 606 861 z "},"Ģ":{"ha":1061,"x_min":53,"x_max":1042,"o":"m 63 489 q 170 747 88 633 q 376 923 253 860 q 644 986 500 986 q 926 901 819 986 q 1042 667 1032 817 l 781 667 q 717 741 763 715 q 607 767 672 767 q 409 691 492 767 q 304 489 326 615 q 297 417 297 447 q 357 258 297 314 q 526 203 417 203 q 683 248 615 203 q 793 376 751 293 l 493 376 l 522 550 l 1039 550 l 1000 329 q 881 164 958 240 q 699 40 804 88 q 471 -7 593 -7 q 249 42 344 -7 q 103 181 154 92 q 53 388 53 269 q 63 489 53 428 m 538 -56 q 544 -137 544 -101 q 538 -219 544 -175 q 461 -374 521 -317 q 306 -431 401 -431 l 321 -340 q 410 -249 393 -340 l 413 -226 l 325 -226 l 356 -56 l 538 -56 z "},"ģ":{"ha":943,"x_min":-26,"x_max":924,"o":"m 474 831 q 468 907 468 865 q 475 994 468 949 q 551 1149 492 1092 q 706 1206 611 1206 l 690 1115 q 601 1024 619 1115 l 599 1001 l 686 1001 l 656 831 l 474 831 m 449 786 q 588 753 531 786 q 667 665 644 719 l 686 775 l 924 775 l 788 1 q 710 -192 768 -106 q 556 -331 653 -279 q 332 -382 460 -382 q 67 -301 160 -382 q -17 -81 -26 -219 l 218 -81 q 259 -151 222 -125 q 357 -176 296 -176 q 482 -134 431 -176 q 550 1 533 -92 l 569 111 q 458 23 525 57 q 308 -11 390 -11 q 163 26 226 -11 q 65 133 100 64 q 29 296 29 203 q 38 389 29 339 q 119 599 58 508 q 267 738 181 689 q 449 786 353 786 m 618 388 q 622 433 622 413 q 583 540 622 501 q 482 579 543 579 q 353 528 411 579 q 279 389 294 478 q 275 343 275 364 q 315 235 275 275 q 414 196 354 196 q 543 247 485 196 q 618 388 601 299 z "},"Ĩ":{"ha":410,"x_min":15,"x_max":635,"o":"m 425 975 l 253 0 l 15 0 l 188 975 l 425 975 m 43 1050 q 271 1256 111 1256 q 324 1247 301 1256 q 374 1219 346 1238 q 410 1199 394 1206 q 442 1193 425 1193 q 513 1256 494 1193 l 635 1256 q 407 1050 567 1050 q 354 1059 376 1050 q 304 1086 332 1068 q 268 1106 283 1100 q 236 1113 253 1113 q 164 1050 186 1113 l 43 1050 z "},"ĩ":{"ha":446,"x_min":25,"x_max":617,"o":"m 408 775 l 271 0 l 33 0 l 171 775 l 408 775 m 25 847 q 253 1053 93 1053 q 306 1044 283 1053 q 356 1017 328 1035 q 392 997 376 1003 q 424 990 407 990 q 494 1053 476 990 l 617 1053 q 389 847 549 847 q 336 856 358 847 q 286 883 314 865 q 250 903 265 897 q 218 910 235 910 q 146 847 168 910 l 25 847 z "},"Ī":{"ha":410,"x_min":15,"x_max":632,"o":"m 425 975 l 253 0 l 15 0 l 188 975 l 425 975 m 632 1239 l 603 1075 l 47 1075 l 76 1239 l 632 1239 z "},"ī":{"ha":446,"x_min":29,"x_max":614,"o":"m 408 775 l 271 0 l 33 0 l 171 775 l 408 775 m 614 1036 l 585 872 l 29 872 l 58 1036 l 614 1036 z "},"Ĭ":{"ha":410,"x_min":15,"x_max":603,"o":"m 425 975 l 253 0 l 15 0 l 188 975 l 425 975 m 599 1282 q 502 1105 578 1168 q 319 1042 426 1042 q 174 1090 228 1042 q 119 1226 119 1139 q 125 1282 119 1243 l 131 1308 l 249 1308 q 246 1283 246 1292 q 270 1233 246 1250 q 350 1215 294 1215 q 446 1239 415 1215 q 485 1308 476 1263 l 603 1308 l 599 1282 z "},"ĭ":{"ha":446,"x_min":33,"x_max":585,"o":"m 408 775 l 271 0 l 33 0 l 171 775 l 408 775 m 581 1079 q 484 902 560 965 q 301 839 408 839 q 156 888 210 839 q 101 1024 101 936 q 107 1079 101 1040 l 113 1106 l 231 1106 q 228 1081 228 1089 q 252 1030 228 1047 q 332 1013 276 1013 q 428 1036 397 1013 q 467 1106 458 1060 l 585 1106 l 581 1079 z "},"Į":{"ha":410,"x_min":-107,"x_max":425,"o":"m 185 -32 q 99 -82 124 -60 q 74 -131 74 -104 q 88 -158 74 -149 q 128 -168 101 -168 q 238 -147 172 -168 l 214 -281 q 74 -301 144 -301 q -58 -269 -8 -301 q -107 -172 -107 -236 q -78 -74 -107 -119 q 18 14 -49 -28 l 188 975 l 425 975 l 253 0 l 185 -32 z "},"į":{"ha":410,"x_min":-107,"x_max":451,"o":"m 332 1113 q 419 1083 388 1113 q 451 1006 451 1053 q 403 900 451 944 q 286 856 354 856 q 198 885 231 856 q 165 961 165 915 q 214 1068 165 1024 q 332 1113 263 1113 m 151 775 l 389 775 l 253 0 l 185 -32 q 99 -82 124 -60 q 74 -131 74 -104 q 88 -158 74 -149 q 128 -168 101 -168 q 238 -147 172 -168 l 214 -281 q 74 -301 144 -301 q -58 -269 -8 -301 q -107 -172 -107 -236 q -78 -74 -107 -119 q 18 13 -49 -28 l 151 775 z "},"İ":{"ha":410,"x_min":15,"x_max":444,"o":"m 425 975 l 253 0 l 15 0 l 188 975 l 425 975 m 322 1064 q 261 1087 285 1064 q 238 1146 238 1110 q 274 1232 238 1196 q 358 1268 311 1268 q 421 1244 397 1268 q 444 1183 444 1221 q 408 1099 444 1135 q 322 1064 371 1064 z "},"ı":{"ha":446,"x_min":33,"x_max":408,"o":"m 408 775 l 271 0 l 33 0 l 171 775 l 408 775 z "},"Ķ":{"ha":1000,"x_min":15,"x_max":1029,"o":"m 567 497 l 871 0 l 581 0 l 329 431 l 253 0 l 15 0 l 188 975 l 425 975 l 350 547 l 751 975 l 1029 975 l 567 497 m 507 -56 q 514 -135 514 -101 q 506 -219 514 -181 q 430 -374 489 -317 q 275 -431 371 -431 l 292 -340 q 379 -249 363 -340 l 383 -226 l 294 -226 l 325 -56 l 507 -56 z "},"ķ":{"ha":858,"x_min":15,"x_max":917,"o":"m 526 386 l 783 0 l 489 0 l 310 324 l 253 0 l 15 0 l 197 1028 l 435 1028 l 335 461 l 624 775 l 917 775 l 526 386 m 440 -56 q 446 -131 446 -90 q 438 -219 446 -178 q 362 -374 421 -317 q 207 -431 303 -431 l 224 -340 q 313 -249 294 -340 l 315 -226 l 228 -226 l 258 -56 l 440 -56 z "},"Ĺ":{"ha":663,"x_min":15,"x_max":646,"o":"m 285 181 l 596 181 l 564 0 l 15 0 l 188 975 l 425 975 l 285 181 m 614 1171 l 253 1031 l 282 1194 l 646 1356 l 614 1171 z "},"ĺ":{"ha":410,"x_min":15,"x_max":544,"o":"m 435 1028 l 253 0 l 15 0 l 197 1028 l 435 1028 m 513 1221 l 151 1081 l 181 1244 l 544 1406 l 513 1221 z "},"Ļ":{"ha":665,"x_min":15,"x_max":596,"o":"m 285 181 l 596 181 l 564 0 l 15 0 l 188 975 l 425 975 l 285 181 m 382 -56 q 389 -137 389 -101 q 382 -219 389 -175 q 306 -374 365 -317 q 150 -431 246 -431 l 165 -340 q 254 -249 238 -340 l 257 -226 l 169 -226 l 200 -56 l 382 -56 z "},"ļ":{"ha":410,"x_min":-17,"x_max":435,"o":"m 435 1028 l 253 0 l 15 0 l 197 1028 l 435 1028 m 217 -56 q 224 -135 224 -101 q 215 -219 224 -181 q 139 -374 199 -317 q -17 -431 79 -431 l 0 -340 q 89 -249 72 -340 l 92 -226 l 4 -226 l 35 -56 l 217 -56 z "},"Ľ":{"ha":726,"x_min":15,"x_max":756,"o":"m 285 181 l 596 181 l 564 0 l 15 0 l 188 975 l 425 975 l 285 181 m 749 975 q 756 896 756 929 q 747 811 756 851 q 671 657 731 714 q 517 600 611 600 l 532 690 q 619 782 606 690 l 624 804 l 536 804 l 567 975 l 749 975 z "},"ľ":{"ha":658,"x_min":15,"x_max":713,"o":"m 435 1028 l 253 0 l 15 0 l 197 1028 l 435 1028 m 707 1028 q 713 953 713 993 q 704 864 713 906 q 628 710 688 767 q 474 653 569 653 l 490 743 q 578 835 561 743 l 582 857 l 494 857 l 525 1028 l 707 1028 z "},"Ŀ":{"ha":663,"x_min":15,"x_max":664,"o":"m 188 975 l 425 975 l 285 181 l 596 181 l 564 0 l 15 0 l 188 975 m 542 436 q 479 460 503 436 q 456 519 456 483 q 492 605 456 569 q 578 640 529 640 q 640 617 617 640 q 664 556 664 593 q 627 472 664 507 q 542 436 590 436 z "},"ŀ":{"ha":529,"x_min":15,"x_max":597,"o":"m 197 1028 l 435 1028 l 253 0 l 15 0 l 197 1028 m 474 413 q 412 436 435 413 q 389 497 389 460 q 426 582 389 546 q 510 618 463 618 q 573 594 549 618 q 597 533 597 571 q 560 449 597 485 q 474 413 522 413 z "},"Ł":{"ha":674,"x_min":1,"x_max":614,"o":"m 614 181 l 582 0 l 33 0 l 97 361 l 1 335 l 42 561 l 138 589 l 206 975 l 444 975 l 389 660 l 510 694 l 469 465 l 349 432 l 304 181 l 614 181 z "},"ł":{"ha":446,"x_min":1,"x_max":483,"o":"m 443 458 l 347 431 l 271 0 l 33 0 l 97 360 l 1 332 l 42 560 l 138 588 l 215 1028 l 453 1028 l 388 658 l 483 686 l 443 458 z "},"Ń":{"ha":1044,"x_min":15,"x_max":1060,"o":"m 888 0 l 650 0 l 360 601 l 253 0 l 15 0 l 188 975 l 425 975 l 715 371 l 822 975 l 1060 975 l 888 0 m 821 1171 l 460 1031 l 489 1194 l 853 1356 l 821 1171 z "},"ń":{"ha":936,"x_min":15,"x_max":875,"o":"m 625 783 q 808 718 742 783 q 875 536 875 653 q 867 453 875 497 l 786 0 l 550 0 l 625 421 q 629 463 629 444 q 597 553 629 521 q 506 585 564 585 q 389 542 436 585 q 328 421 342 499 l 328 428 l 253 0 l 15 0 l 151 775 l 389 775 l 371 671 q 483 753 417 722 q 625 783 549 783 m 764 968 l 403 828 l 432 992 l 796 1153 l 764 968 z "},"Ņ":{"ha":1081,"x_min":15,"x_max":1060,"o":"m 888 0 l 650 0 l 360 601 l 253 0 l 15 0 l 188 975 l 425 975 l 715 371 l 822 975 l 1060 975 l 888 0 m 547 -56 q 554 -137 554 -101 q 547 -219 554 -175 q 470 -374 529 -317 q 315 -431 411 -431 l 331 -340 q 419 -249 403 -340 l 422 -226 l 335 -226 l 365 -56 l 547 -56 z "},"ņ":{"ha":936,"x_min":15,"x_max":875,"o":"m 625 783 q 808 718 742 783 q 875 536 875 653 q 867 453 875 497 l 786 0 l 550 0 l 625 421 q 629 463 629 444 q 597 553 629 521 q 506 585 564 585 q 389 542 436 585 q 328 421 342 499 l 328 428 l 253 0 l 15 0 l 151 775 l 389 775 l 371 671 q 483 753 417 722 q 625 783 549 783 m 493 -56 q 500 -135 500 -101 q 492 -219 500 -181 q 416 -374 475 -317 q 261 -431 357 -431 l 278 -340 q 365 -249 349 -340 l 369 -226 l 282 -226 l 311 -56 l 493 -56 z "},"Ň":{"ha":1044,"x_min":15,"x_max":1060,"o":"m 888 0 l 650 0 l 360 601 l 253 0 l 15 0 l 188 975 l 425 975 l 715 371 l 822 975 l 1060 975 l 888 0 m 869 1144 l 633 1028 l 439 1144 l 468 1308 l 663 1188 l 899 1308 l 869 1144 z "},"ň":{"ha":936,"x_min":15,"x_max":875,"o":"m 625 783 q 808 718 742 783 q 875 536 875 653 q 867 453 875 497 l 786 0 l 550 0 l 625 421 q 629 463 629 444 q 597 553 629 521 q 506 585 564 585 q 389 542 436 585 q 328 421 342 499 l 328 428 l 253 0 l 15 0 l 151 775 l 389 775 l 371 671 q 483 753 417 722 q 625 783 549 783 m 813 942 l 576 825 l 382 942 l 411 1106 l 606 985 l 842 1106 l 813 942 z "},"Ō":{"ha":1092,"x_min":65,"x_max":1058,"o":"m 479 -10 q 262 42 356 -10 q 117 186 168 93 q 65 400 65 279 q 139 705 65 571 q 344 914 213 839 q 642 989 475 989 q 861 938 767 989 q 1007 795 956 888 q 1058 583 1058 703 q 985 277 1058 413 q 779 66 911 142 q 479 -10 647 -10 m 515 210 q 676 257 607 210 q 784 384 746 304 q 822 557 822 464 q 767 714 822 657 q 611 771 711 771 q 449 724 519 771 q 341 598 379 676 q 303 425 303 519 q 358 267 303 325 q 515 210 414 210 m 971 1244 l 942 1081 l 386 1081 l 415 1244 l 971 1244 z "},"ō":{"ha":885,"x_min":29,"x_max":851,"o":"m 369 -11 q 192 29 269 -11 q 72 143 114 69 q 29 314 29 217 q 92 554 29 446 q 264 724 154 663 q 508 786 374 786 q 687 745 608 786 q 808 631 765 704 q 851 460 851 557 q 788 219 851 326 q 615 50 725 111 q 369 -11 504 -11 m 403 193 q 508 228 461 193 q 580 320 554 264 q 606 438 606 376 q 568 544 606 507 q 474 582 531 582 q 369 547 414 582 q 299 454 324 511 q 274 335 274 397 q 310 230 274 267 q 403 193 346 193 m 833 1047 l 804 883 l 249 883 l 278 1047 l 833 1047 z "},"Ŏ":{"ha":1092,"x_min":65,"x_max":1058,"o":"m 479 -10 q 262 42 356 -10 q 117 186 168 93 q 65 400 65 279 q 139 705 65 571 q 344 914 213 839 q 642 989 475 989 q 861 938 767 989 q 1007 795 956 888 q 1058 583 1058 703 q 985 277 1058 413 q 779 66 911 142 q 479 -10 647 -10 m 515 210 q 676 257 607 210 q 784 384 746 304 q 822 557 822 464 q 767 714 822 657 q 611 771 711 771 q 449 724 519 771 q 341 598 379 676 q 303 425 303 519 q 358 267 303 325 q 515 210 414 210 m 938 1288 q 841 1110 917 1174 q 658 1047 765 1047 q 513 1096 567 1047 q 458 1232 458 1144 q 464 1288 458 1249 l 469 1314 l 588 1314 q 585 1289 585 1297 q 609 1238 585 1256 q 689 1221 633 1221 q 785 1244 754 1221 q 824 1314 815 1268 l 942 1314 l 938 1288 z "},"ŏ":{"ha":885,"x_min":29,"x_max":851,"o":"m 369 -11 q 192 29 269 -11 q 72 143 114 69 q 29 314 29 217 q 92 554 29 446 q 264 724 154 663 q 508 786 374 786 q 687 745 608 786 q 808 631 765 704 q 851 460 851 557 q 788 219 851 326 q 615 50 725 111 q 369 -11 504 -11 m 403 193 q 508 228 461 193 q 580 320 554 264 q 606 438 606 376 q 568 544 606 507 q 474 582 531 582 q 369 547 414 582 q 299 454 324 511 q 274 335 274 397 q 310 230 274 267 q 403 193 346 193 m 799 1090 q 702 913 778 976 q 519 850 626 850 q 374 899 428 850 q 319 1035 319 947 q 325 1090 319 1051 l 331 1117 l 449 1117 q 446 1092 446 1100 q 470 1041 446 1058 q 550 1024 494 1024 q 646 1047 615 1024 q 685 1117 676 1071 l 803 1117 l 799 1090 z "},"Ő":{"ha":1092,"x_min":65,"x_max":1071,"o":"m 479 -10 q 262 42 356 -10 q 117 186 168 93 q 65 400 65 279 q 139 705 65 571 q 344 914 213 839 q 642 989 475 989 q 861 938 767 989 q 1007 795 956 888 q 1058 583 1058 703 q 985 277 1058 413 q 779 66 911 142 q 479 -10 647 -10 m 515 210 q 676 257 607 210 q 784 384 746 304 q 822 557 822 464 q 767 714 822 657 q 611 771 711 771 q 449 724 519 771 q 341 598 379 676 q 303 425 303 519 q 358 267 303 325 q 515 210 414 210 m 578 1043 l 432 1043 l 588 1333 l 775 1333 l 578 1043 m 846 1043 l 700 1043 l 883 1333 l 1071 1333 l 846 1043 z "},"ő":{"ha":885,"x_min":29,"x_max":933,"o":"m 369 -11 q 192 29 269 -11 q 72 143 114 69 q 29 314 29 217 q 92 554 29 446 q 264 724 154 663 q 508 786 374 786 q 687 745 608 786 q 808 631 765 704 q 851 460 851 557 q 788 219 851 326 q 615 50 725 111 q 369 -11 504 -11 m 403 193 q 508 228 461 193 q 580 320 554 264 q 606 438 606 376 q 568 544 606 507 q 474 582 531 582 q 369 547 414 582 q 299 454 324 511 q 274 335 274 397 q 310 230 274 267 q 403 193 346 193 m 440 846 l 294 846 l 450 1136 l 638 1136 l 440 846 m 708 846 l 563 846 l 746 1136 l 933 1136 l 708 846 z "},"Œ":{"ha":1485,"x_min":61,"x_max":1518,"o":"m 1089 585 l 1408 585 l 1376 404 l 1057 404 l 1019 188 l 1379 188 l 1346 0 l 749 0 l 767 100 q 463 -14 646 -10 q 253 36 344 -14 q 112 178 163 86 q 61 389 61 269 q 69 489 61 438 q 179 747 96 633 q 384 925 263 861 q 639 989 506 989 q 793 961 725 989 q 904 878 861 933 l 921 975 l 1518 975 l 1485 788 l 1125 788 l 1089 585 m 313 489 q 306 419 306 450 q 363 262 306 319 q 519 204 419 204 q 721 282 636 204 q 828 489 806 360 q 835 557 835 528 q 778 714 835 657 q 619 771 721 771 q 419 694 501 771 q 313 489 336 618 z "},"œ":{"ha":1446,"x_min":29,"x_max":1396,"o":"m 1069 786 q 1308 704 1219 786 q 1396 482 1396 622 q 1389 401 1396 447 q 1369 333 1383 374 l 835 333 q 833 303 833 322 q 865 213 833 243 q 951 182 897 182 q 1088 257 1040 182 l 1342 257 q 1178 65 1292 140 q 925 -11 1065 -11 q 776 19 842 -11 q 671 106 711 49 q 531 19 610 49 q 367 -11 451 -11 q 190 26 267 -11 q 72 135 114 64 q 29 303 29 207 q 38 388 29 344 q 127 598 58 507 q 297 738 196 689 q 511 786 397 786 q 662 756 594 786 q 771 669 729 725 q 908 756 831 725 q 1069 786 985 786 m 1154 451 q 1157 481 1157 471 q 1122 565 1157 535 q 1032 596 1088 596 q 924 558 971 596 q 856 451 876 521 l 1154 451 m 601 388 q 606 436 606 415 q 568 544 606 507 q 472 582 531 582 q 349 532 404 582 q 279 388 294 482 q 274 335 274 349 q 309 229 274 265 q 403 193 344 193 q 528 244 471 193 q 601 388 585 294 z "},"Ŕ":{"ha":906,"x_min":15,"x_max":896,"o":"m 586 975 q 817 906 738 975 q 896 728 896 838 q 890 668 896 696 q 806 494 874 571 q 624 386 738 418 l 781 0 l 513 0 l 375 368 l 318 368 l 253 0 l 15 0 l 188 975 l 586 975 m 647 658 q 650 688 650 681 q 622 756 650 732 q 538 781 593 781 l 390 781 l 347 536 l 494 536 q 598 568 560 536 q 647 658 636 600 m 744 1171 l 383 1031 l 413 1194 l 776 1356 l 744 1171 z "},"ŕ":{"ha":594,"x_min":15,"x_max":654,"o":"m 364 635 q 488 744 418 704 q 635 783 558 783 l 590 532 l 525 532 q 385 494 436 532 q 317 360 333 456 l 253 0 l 15 0 l 151 775 l 389 775 l 364 635 m 622 968 l 261 828 l 290 992 l 654 1153 l 622 968 z "},"Ŗ":{"ha":928,"x_min":15,"x_max":896,"o":"m 586 975 q 817 906 738 975 q 896 728 896 838 q 890 668 896 696 q 806 494 874 571 q 624 386 738 418 l 781 0 l 513 0 l 375 368 l 318 368 l 253 0 l 15 0 l 188 975 l 586 975 m 647 658 q 650 688 650 681 q 622 756 650 732 q 538 781 593 781 l 390 781 l 347 536 l 494 536 q 598 568 560 536 q 647 658 636 600 m 471 -56 q 478 -137 478 -101 q 471 -219 478 -175 q 394 -374 453 -317 q 239 -431 335 -431 l 254 -340 q 343 -249 326 -340 l 346 -226 l 260 -226 l 289 -56 l 471 -56 z "},"ŗ":{"ha":594,"x_min":-21,"x_max":635,"o":"m 364 635 q 488 744 418 704 q 635 783 558 783 l 590 532 l 525 532 q 385 494 436 532 q 317 360 333 456 l 253 0 l 15 0 l 151 775 l 389 775 l 364 635 m 211 -56 q 217 -132 217 -90 q 210 -219 217 -174 q 133 -374 193 -317 q -21 -431 74 -431 l -6 -340 q 83 -249 65 -340 l 86 -226 l -1 -226 l 29 -56 l 211 -56 z "},"Ř":{"ha":906,"x_min":15,"x_max":896,"o":"m 586 975 q 817 906 738 975 q 896 728 896 838 q 890 668 896 696 q 806 494 874 571 q 624 386 738 418 l 781 0 l 513 0 l 375 368 l 318 368 l 253 0 l 15 0 l 188 975 l 586 975 m 647 658 q 650 688 650 681 q 622 756 650 732 q 538 781 593 781 l 390 781 l 347 536 l 494 536 q 598 568 560 536 q 647 658 636 600 m 793 1144 l 557 1028 l 363 1144 l 392 1308 l 586 1188 l 822 1308 l 793 1144 z "},"ř":{"ha":594,"x_min":15,"x_max":700,"o":"m 364 635 q 488 744 418 704 q 635 783 558 783 l 590 532 l 525 532 q 385 494 436 532 q 317 360 333 456 l 253 0 l 15 0 l 151 775 l 389 775 l 364 635 m 671 942 l 435 825 l 240 942 l 269 1106 l 464 985 l 700 1106 l 671 942 z "},"Ś":{"ha":864,"x_min":46,"x_max":828,"o":"m 403 -10 q 145 59 244 -10 q 46 254 46 128 q 49 292 46 267 l 296 292 q 321 208 292 239 q 410 178 350 178 q 495 201 464 178 q 526 268 526 225 q 487 340 526 313 q 364 403 447 368 q 233 466 283 436 q 144 547 182 496 q 107 676 107 599 q 154 843 106 772 q 289 951 203 914 q 486 989 375 989 q 664 958 586 989 q 785 867 742 926 q 828 728 828 808 q 826 697 828 707 l 574 697 q 575 714 575 703 q 548 777 575 753 q 474 801 521 801 q 392 777 424 801 q 361 711 361 753 q 400 641 361 669 q 521 575 439 613 q 655 506 603 538 q 744 420 707 474 q 782 289 782 367 q 736 135 782 203 q 604 28 690 67 q 403 -10 518 -10 m 739 1171 l 378 1031 l 407 1194 l 771 1356 l 739 1171 z "},"ś":{"ha":775,"x_min":17,"x_max":713,"o":"m 338 -11 q 173 18 246 -11 q 58 99 100 47 q 17 219 17 151 q 19 254 17 229 l 249 254 q 274 185 246 211 q 356 160 303 160 q 429 176 400 160 q 458 224 458 193 q 427 270 458 253 q 324 313 396 288 q 198 362 249 338 q 111 432 147 386 q 75 547 75 478 q 115 670 75 615 q 228 756 156 725 q 397 786 301 786 q 564 755 493 786 q 674 668 635 724 q 713 543 713 613 l 711 522 l 496 522 q 471 589 499 564 q 392 614 443 614 q 326 597 351 614 q 300 551 300 581 q 334 501 300 521 q 440 456 368 481 q 565 406 515 431 q 649 338 614 382 q 685 229 685 294 q 640 100 685 154 q 516 17 594 46 q 338 -11 438 -11 m 660 968 l 299 828 l 328 992 l 692 1153 l 660 968 z "},"Ş":{"ha":864,"x_min":46,"x_max":828,"o":"m 574 697 q 575 714 575 703 q 548 777 575 753 q 474 801 521 801 q 392 777 424 801 q 361 711 361 753 q 400 641 361 669 q 521 575 439 613 q 655 506 603 538 q 744 420 707 474 q 782 289 782 367 q 742 145 782 210 q 626 40 701 81 q 450 -8 551 0 l 442 -57 q 551 -88 506 -57 q 596 -182 596 -119 q 593 -215 596 -203 q 515 -335 579 -294 q 372 -376 451 -376 l 158 -376 l 182 -246 l 363 -246 q 406 -237 390 -246 q 425 -210 422 -229 q 417 -183 429 -190 q 376 -175 404 -175 l 278 -175 l 308 -3 q 117 83 188 17 q 46 254 46 149 q 49 292 46 267 l 296 292 q 321 208 292 239 q 410 178 350 178 q 495 201 464 178 q 526 268 526 225 q 487 340 526 313 q 364 403 447 368 q 233 466 283 436 q 144 547 182 496 q 107 676 107 599 q 154 843 106 772 q 289 951 203 914 q 486 989 375 989 q 664 958 586 989 q 785 867 742 926 q 828 728 828 808 q 826 697 828 707 l 574 697 z "},"ş":{"ha":775,"x_min":17,"x_max":713,"o":"m 496 522 q 471 589 499 564 q 392 614 443 614 q 326 597 351 614 q 300 551 300 581 q 334 501 300 521 q 440 456 368 481 q 565 406 515 431 q 649 338 614 382 q 685 229 685 294 q 608 69 685 131 q 406 -7 532 7 l 397 -57 q 506 -88 461 -57 q 551 -182 551 -119 q 549 -215 551 -203 q 471 -335 535 -294 q 328 -376 407 -376 l 114 -376 l 138 -246 l 318 -246 q 362 -237 346 -246 q 381 -210 378 -229 q 372 -183 385 -190 q 332 -175 360 -175 l 233 -175 l 264 -6 q 85 71 153 10 q 17 219 17 132 q 19 254 17 229 l 249 254 q 274 185 246 211 q 356 160 303 160 q 429 176 400 160 q 458 224 458 193 q 427 270 458 253 q 324 313 396 288 q 198 362 249 338 q 111 432 147 386 q 75 547 75 478 q 115 670 75 615 q 228 756 156 725 q 397 786 301 786 q 564 755 493 786 q 674 668 635 724 q 713 543 713 613 l 711 522 l 496 522 z "},"Š":{"ha":864,"x_min":46,"x_max":828,"o":"m 403 -10 q 145 59 244 -10 q 46 254 46 128 q 49 292 46 267 l 296 292 q 321 208 292 239 q 410 178 350 178 q 495 201 464 178 q 526 268 526 225 q 487 340 526 313 q 364 403 447 368 q 233 466 283 436 q 144 547 182 496 q 107 676 107 599 q 154 843 106 772 q 289 951 203 914 q 486 989 375 989 q 664 958 586 989 q 785 867 742 926 q 828 728 828 808 q 826 697 828 707 l 574 697 q 575 714 575 703 q 548 777 575 753 q 474 801 521 801 q 392 777 424 801 q 361 711 361 753 q 400 641 361 669 q 521 575 439 613 q 655 506 603 538 q 744 420 707 474 q 782 289 782 367 q 736 135 782 203 q 604 28 690 67 q 403 -10 518 -10 m 788 1144 l 551 1028 l 357 1144 l 386 1308 l 581 1188 l 817 1308 l 788 1144 z "},"š":{"ha":775,"x_min":17,"x_max":736,"o":"m 338 -11 q 173 18 246 -11 q 58 99 100 47 q 17 219 17 151 q 19 254 17 229 l 249 254 q 274 185 246 211 q 356 160 303 160 q 429 176 400 160 q 458 224 458 193 q 427 270 458 253 q 324 313 396 288 q 198 362 249 338 q 111 432 147 386 q 75 547 75 478 q 115 670 75 615 q 228 756 156 725 q 397 786 301 786 q 564 755 493 786 q 674 668 635 724 q 713 543 713 613 l 711 522 l 496 522 q 471 589 499 564 q 392 614 443 614 q 326 597 351 614 q 300 551 300 581 q 334 501 300 521 q 440 456 368 481 q 565 406 515 431 q 649 338 614 382 q 685 229 685 294 q 640 100 685 154 q 516 17 594 46 q 338 -11 438 -11 m 707 942 l 471 825 l 276 942 l 306 1106 l 500 985 l 736 1106 l 707 942 z "},"Ţ":{"ha":821,"x_min":101,"x_max":889,"o":"m 889 975 l 857 788 l 597 788 l 458 0 l 417 0 l 407 -57 q 516 -88 471 -57 q 561 -182 561 -119 q 558 -215 561 -203 q 481 -335 544 -294 q 338 -376 417 -376 l 124 -376 l 147 -246 l 328 -246 q 372 -237 356 -246 q 390 -210 388 -229 q 382 -183 394 -190 q 342 -175 369 -175 l 243 -175 l 274 0 l 221 0 l 360 788 l 101 788 l 135 975 l 889 975 z "},"ţ":{"ha":564,"x_min":17,"x_max":583,"o":"m 338 267 q 336 249 336 260 q 351 213 336 224 q 399 201 365 201 l 483 201 l 447 0 l 326 0 l 308 0 l 300 -51 q 409 -83 364 -51 q 454 -178 454 -114 q 451 -210 454 -199 q 372 -330 436 -289 q 229 -371 308 -371 l 17 -371 l 39 -240 l 221 -240 q 264 -232 249 -240 q 282 -204 279 -224 q 274 -177 286 -185 q 233 -169 261 -169 l 135 -169 l 171 35 q 93 196 93 82 q 100 269 93 225 l 156 578 l 61 578 l 96 775 l 190 775 l 224 964 l 461 964 l 428 775 l 583 775 l 549 578 l 393 578 l 338 267 z "},"Ť":{"ha":821,"x_min":101,"x_max":889,"o":"m 889 975 l 857 788 l 597 788 l 458 0 l 221 0 l 360 788 l 101 788 l 135 975 l 889 975 m 754 1144 l 518 1028 l 324 1144 l 353 1308 l 547 1188 l 783 1308 l 754 1144 z "},"ť":{"ha":567,"x_min":61,"x_max":757,"o":"m 750 1167 q 757 1082 757 1114 q 751 1017 757 1049 q 678 882 736 931 q 524 833 621 833 l 540 924 q 621 974 613 924 l 624 996 l 536 996 l 568 1167 l 750 1167 m 428 775 l 583 775 l 549 578 l 393 578 l 338 267 q 336 249 336 260 q 351 213 336 224 q 399 201 365 201 l 483 201 l 447 0 l 326 0 q 93 196 93 0 q 100 269 93 225 l 156 578 l 61 578 l 96 775 l 190 775 l 224 964 l 461 964 l 428 775 z "},"Ũ":{"ha":979,"x_min":74,"x_max":1000,"o":"m 421 975 l 318 393 q 313 343 313 357 q 349 245 313 279 q 456 211 385 211 q 592 258 539 211 q 660 393 644 306 l 763 975 l 1000 975 l 897 393 q 803 170 874 261 q 633 35 733 79 q 414 -10 532 -10 q 167 69 261 -10 q 74 299 74 149 q 82 393 74 343 l 183 975 l 421 975 m 328 1050 q 556 1256 396 1256 q 608 1247 586 1256 q 658 1219 631 1238 q 694 1199 679 1206 q 726 1193 710 1193 q 797 1256 779 1193 l 919 1256 q 692 1050 851 1050 q 639 1059 661 1050 q 589 1086 617 1068 q 553 1106 568 1100 q 521 1113 538 1113 q 449 1050 471 1113 l 328 1050 z "},"ũ":{"ha":936,"x_min":58,"x_max":917,"o":"m 917 775 l 781 0 l 543 0 l 561 106 q 449 23 515 54 q 308 -8 383 -8 q 125 58 192 -8 q 58 242 58 124 q 65 322 58 286 l 146 775 l 382 775 l 308 354 q 304 311 304 332 q 337 222 304 253 q 428 190 369 190 q 541 230 494 190 q 603 343 588 269 l 679 775 l 917 775 m 269 847 q 497 1053 338 1053 q 550 1044 528 1053 q 600 1017 572 1035 q 636 997 621 1003 q 668 990 651 990 q 739 1053 721 990 l 861 1053 q 633 847 793 847 q 581 856 603 847 q 531 883 558 865 q 494 903 510 897 q 463 910 479 910 q 390 847 413 910 l 269 847 z "},"Ū":{"ha":979,"x_min":74,"x_max":1000,"o":"m 421 975 l 318 393 q 313 343 313 357 q 349 245 313 279 q 456 211 385 211 q 592 258 539 211 q 660 393 644 306 l 763 975 l 1000 975 l 897 393 q 803 170 874 261 q 633 35 733 79 q 414 -10 532 -10 q 167 69 261 -10 q 74 299 74 149 q 82 393 74 343 l 183 975 l 421 975 m 917 1239 l 888 1075 l 332 1075 l 361 1239 l 917 1239 z "},"ū":{"ha":936,"x_min":58,"x_max":917,"o":"m 917 775 l 781 0 l 543 0 l 561 106 q 449 23 515 54 q 308 -8 383 -8 q 125 58 192 -8 q 58 242 58 124 q 65 322 58 286 l 146 775 l 382 775 l 308 354 q 304 311 304 332 q 337 222 304 253 q 428 190 369 190 q 541 230 494 190 q 603 343 588 269 l 679 775 l 917 775 m 860 1036 l 831 872 l 275 872 l 304 1036 l 860 1036 z "},"Ŭ":{"ha":979,"x_min":74,"x_max":1000,"o":"m 421 975 l 318 393 q 313 343 313 357 q 349 245 313 279 q 456 211 385 211 q 592 258 539 211 q 660 393 644 306 l 763 975 l 1000 975 l 897 393 q 803 170 874 261 q 633 35 733 79 q 414 -10 532 -10 q 167 69 261 -10 q 74 299 74 149 q 82 393 74 343 l 183 975 l 421 975 m 883 1282 q 787 1105 863 1168 q 604 1042 711 1042 q 458 1090 513 1042 q 404 1226 404 1139 q 410 1282 404 1243 l 415 1308 l 533 1308 q 531 1283 531 1292 q 555 1233 531 1250 q 635 1215 579 1215 q 731 1239 700 1215 q 769 1308 761 1263 l 888 1308 l 883 1282 z "},"ŭ":{"ha":936,"x_min":58,"x_max":917,"o":"m 917 775 l 781 0 l 543 0 l 561 106 q 449 23 515 54 q 308 -8 383 -8 q 125 58 192 -8 q 58 242 58 124 q 65 322 58 286 l 146 775 l 382 775 l 308 354 q 304 311 304 332 q 337 222 304 253 q 428 190 369 190 q 541 230 494 190 q 603 343 588 269 l 679 775 l 917 775 m 826 1079 q 730 902 806 965 q 547 839 654 839 q 401 888 456 839 q 347 1024 347 936 q 353 1079 347 1040 l 358 1106 l 476 1106 q 474 1081 474 1089 q 498 1030 474 1047 q 578 1013 522 1013 q 674 1036 643 1013 q 713 1106 704 1060 l 831 1106 l 826 1079 z "},"Ů":{"ha":979,"x_min":74,"x_max":1000,"o":"m 421 975 l 318 393 q 313 343 313 357 q 349 245 313 279 q 456 211 385 211 q 592 258 539 211 q 660 393 644 306 l 763 975 l 1000 975 l 897 393 q 803 170 874 261 q 633 35 733 79 q 414 -10 532 -10 q 167 69 261 -10 q 74 299 74 149 q 82 393 74 343 l 183 975 l 421 975 m 464 1203 q 534 1325 478 1279 q 663 1371 590 1371 q 765 1335 725 1371 q 804 1239 804 1300 q 776 1133 804 1179 q 702 1060 749 1086 q 603 1035 656 1035 q 501 1071 540 1035 q 461 1168 461 1107 q 464 1203 461 1178 m 701 1218 q 685 1256 701 1242 q 644 1271 669 1271 q 588 1248 613 1271 q 564 1190 564 1225 q 580 1150 564 1165 q 621 1135 596 1135 q 677 1158 653 1135 q 701 1218 701 1182 z "},"ů":{"ha":936,"x_min":58,"x_max":917,"o":"m 917 775 l 781 0 l 543 0 l 561 106 q 449 23 515 54 q 308 -8 383 -8 q 125 58 192 -8 q 58 242 58 124 q 65 322 58 286 l 146 775 l 382 775 l 308 354 q 304 311 304 332 q 337 222 304 253 q 428 190 369 190 q 541 230 494 190 q 603 343 588 269 l 679 775 l 917 775 m 407 1000 q 477 1122 421 1076 q 606 1168 533 1168 q 708 1133 668 1168 q 747 1036 747 1097 q 719 930 747 976 q 645 858 692 883 q 546 832 599 832 q 444 868 483 832 q 404 965 404 904 q 407 1000 404 975 m 644 1015 q 628 1053 644 1039 q 588 1068 613 1068 q 531 1045 556 1068 q 507 988 507 1022 q 523 947 507 963 q 564 932 539 932 q 620 956 596 932 q 644 1015 644 979 z "},"Ű":{"ha":979,"x_min":74,"x_max":1017,"o":"m 421 975 l 318 393 q 313 343 313 357 q 349 245 313 279 q 456 211 385 211 q 592 258 539 211 q 660 393 644 306 l 763 975 l 1000 975 l 897 393 q 803 170 874 261 q 633 35 733 79 q 414 -10 532 -10 q 167 69 261 -10 q 74 299 74 149 q 82 393 74 343 l 183 975 l 421 975 m 524 1038 l 378 1038 l 533 1328 l 721 1328 l 524 1038 m 792 1038 l 646 1038 l 829 1328 l 1017 1328 l 792 1038 z "},"ű":{"ha":936,"x_min":58,"x_max":960,"o":"m 917 775 l 781 0 l 543 0 l 561 106 q 449 23 515 54 q 308 -8 383 -8 q 125 58 192 -8 q 58 242 58 124 q 65 322 58 286 l 146 775 l 382 775 l 308 354 q 304 311 304 332 q 337 222 304 253 q 428 190 369 190 q 541 230 494 190 q 603 343 588 269 l 679 775 l 917 775 m 467 835 l 321 835 l 476 1125 l 664 1125 l 467 835 m 735 835 l 589 835 l 772 1125 l 960 1125 l 735 835 z "},"Ų":{"ha":979,"x_min":72,"x_max":1000,"o":"m 1000 975 l 897 393 q 771 131 868 231 q 533 3 674 32 l 465 -29 q 379 -79 404 -57 q 354 -128 354 -101 q 368 -156 354 -146 q 408 -165 382 -165 q 518 -144 454 -165 l 494 -278 q 354 -299 425 -299 q 223 -266 272 -299 q 174 -169 174 -233 q 176 -140 174 -160 q 210 -63 185 -99 q 285 7 235 -28 q 129 110 186 36 q 72 299 72 185 q 82 393 72 335 l 183 975 l 421 975 l 318 393 q 313 343 313 357 q 349 245 313 279 q 456 211 385 211 q 592 258 539 211 q 660 393 644 306 l 763 975 l 1000 975 z "},"ų":{"ha":936,"x_min":58,"x_max":917,"o":"m 781 0 l 779 0 l 781 -3 l 713 -35 q 626 -85 651 -62 q 601 -133 601 -107 q 615 -161 601 -151 q 656 -171 629 -171 q 765 -150 701 -171 l 742 -283 q 601 -304 672 -304 q 470 -272 519 -304 q 421 -175 421 -239 q 450 -78 421 -122 q 544 10 479 -33 l 561 106 q 449 23 515 54 q 308 -8 383 -8 q 125 58 192 -8 q 58 242 58 124 q 65 322 58 286 l 146 775 l 382 775 l 308 354 q 304 311 304 332 q 337 222 304 253 q 428 190 369 190 q 541 230 494 190 q 603 343 588 269 l 679 775 l 917 775 l 781 0 z "},"Ŵ":{"ha":1461,"x_min":136,"x_max":1529,"o":"m 1529 975 l 1103 0 l 815 0 l 772 640 l 499 0 l 211 0 l 136 975 l 390 975 l 406 265 l 704 975 l 967 975 l 1008 269 l 1274 975 l 1529 975 m 825 1150 l 588 1029 l 617 1193 l 853 1310 l 1047 1193 l 1018 1029 l 825 1150 z "},"ŵ":{"ha":1203,"x_min":72,"x_max":1265,"o":"m 1265 775 l 918 0 l 656 0 l 622 503 l 407 0 l 146 0 l 72 775 l 310 775 l 321 221 l 550 775 l 801 775 l 836 221 l 1042 775 l 1265 775 m 700 946 l 463 825 l 492 989 l 728 1106 l 922 989 l 893 825 l 700 946 z "},"Ŷ":{"ha":932,"x_min":111,"x_max":1024,"o":"m 1024 975 l 572 322 l 514 0 l 276 0 l 335 322 l 111 975 l 381 975 l 497 568 l 757 975 l 1024 975 m 600 1149 l 363 1028 l 392 1192 l 628 1308 l 822 1192 l 793 1028 l 600 1149 z "},"ŷ":{"ha":878,"x_min":1,"x_max":944,"o":"m 329 775 l 424 290 l 688 775 l 944 775 l 257 -368 l 1 -368 l 249 26 l 65 775 l 329 775 m 536 946 l 299 825 l 328 989 l 564 1106 l 758 989 l 729 825 l 536 946 z "},"Ÿ":{"ha":932,"x_min":111,"x_max":1024,"o":"m 1024 975 l 572 322 l 514 0 l 276 0 l 335 322 l 111 975 l 381 975 l 497 568 l 757 975 l 1024 975 m 444 1064 q 383 1088 407 1064 q 358 1147 358 1111 q 395 1233 358 1197 q 481 1268 432 1268 q 543 1244 519 1268 q 567 1185 567 1221 q 530 1099 567 1135 q 444 1064 493 1064 m 722 1064 q 660 1088 685 1064 q 636 1147 636 1111 q 673 1233 636 1197 q 758 1268 710 1268 q 821 1244 797 1268 q 844 1185 844 1221 q 808 1099 844 1135 q 722 1064 771 1064 z "},"Ź":{"ha":828,"x_min":-1,"x_max":860,"o":"m 303 194 l 722 194 l 688 0 l -1 0 l 31 181 l 553 781 l 136 781 l 171 975 l 860 975 l 828 794 l 303 194 m 713 1171 l 351 1031 l 381 1194 l 744 1356 l 713 1171 z "},"ź":{"ha":689,"x_min":-28,"x_max":703,"o":"m 272 196 l 610 196 l 574 0 l -28 0 l 7 189 l 397 579 l 78 579 l 113 775 l 703 775 l 669 586 l 272 196 m 613 968 l 251 828 l 281 992 l 644 1153 l 613 968 z "},"Ż":{"ha":828,"x_min":-1,"x_max":860,"o":"m 303 194 l 722 194 l 688 0 l -1 0 l 31 181 l 553 781 l 136 781 l 171 975 l 860 975 l 828 794 l 303 194 m 531 1064 q 469 1087 493 1064 q 446 1146 446 1110 q 483 1232 446 1196 q 567 1268 519 1268 q 629 1244 606 1268 q 653 1183 653 1221 q 616 1099 653 1135 q 531 1064 579 1064 z "},"ż":{"ha":689,"x_min":-28,"x_max":703,"o":"m 272 196 l 610 196 l 574 0 l -28 0 l 7 189 l 397 579 l 78 579 l 113 775 l 703 775 l 669 586 l 272 196 m 431 861 q 369 884 393 861 q 346 943 346 907 q 383 1029 346 993 q 467 1065 419 1065 q 529 1042 506 1065 q 553 981 553 1018 q 516 897 553 932 q 431 861 479 861 z "},"Ž":{"ha":828,"x_min":-1,"x_max":860,"o":"m 303 194 l 722 194 l 688 0 l -1 0 l 31 181 l 553 781 l 136 781 l 171 975 l 860 975 l 828 794 l 303 194 m 761 1144 l 525 1028 l 331 1144 l 360 1308 l 554 1188 l 790 1308 l 761 1144 z "},"ž":{"ha":689,"x_min":-28,"x_max":703,"o":"m 272 196 l 610 196 l 574 0 l -28 0 l 7 189 l 397 579 l 78 579 l 113 775 l 703 775 l 669 586 l 272 196 m 661 942 l 425 825 l 231 942 l 260 1106 l 454 985 l 690 1106 l 661 942 z "},"Ə":{"ha":1061,"x_min":56,"x_max":1038,"o":"m 628 994 q 842 944 749 994 q 986 803 935 893 q 1038 601 1038 714 q 963 294 1038 435 q 756 72 889 154 q 456 -11 622 -11 q 248 38 339 -11 q 106 175 157 86 q 56 378 56 264 q 85 557 56 469 l 790 557 q 792 589 792 568 q 740 729 792 678 q 597 781 688 781 q 462 747 524 781 q 369 656 400 714 l 113 656 q 315 903 176 811 q 628 994 453 994 m 488 207 q 658 258 582 207 q 763 401 735 310 l 297 401 q 296 372 296 392 q 348 250 296 293 q 488 207 400 207 z "},"ƒ":{"ha":467,"x_min":-224,"x_max":607,"o":"m 553 886 q 468 867 497 886 q 426 804 439 849 l 418 775 l 531 775 l 476 578 l 363 578 l 168 -114 q 39 -312 129 -254 q -185 -369 -51 -369 l -224 -369 l -168 -168 l -129 -168 q -71 -114 -86 -168 l 125 578 l 53 578 l 107 775 l 181 775 l 189 804 q 333 1019 232 951 q 607 1088 433 1088 l 553 886 z "},"Ǽ":{"ha":1326,"x_min":-62,"x_max":1360,"o":"m 975 788 l 939 588 l 1250 588 l 1219 407 l 908 407 l 869 188 l 1221 188 l 1188 0 l 599 0 l 628 164 l 307 164 l 196 0 l -62 0 l 610 975 l 1360 975 l 1326 788 l 975 788 m 660 344 l 739 799 l 431 344 l 660 344 m 979 1169 l 618 1029 l 647 1193 l 1011 1354 l 979 1169 z "},"ǽ":{"ha":1486,"x_min":29,"x_max":1454,"o":"m 1169 786 q 1377 706 1300 786 q 1454 490 1454 626 q 1446 401 1454 447 q 1428 333 1439 365 l 853 333 q 890 218 850 257 q 992 179 929 179 q 1087 200 1047 179 q 1147 257 1126 221 l 1401 257 q 1252 64 1351 139 q 1029 -11 1153 -11 q 886 22 946 -11 q 801 111 826 54 l 782 0 l 550 0 l 569 111 q 456 22 524 56 q 308 -11 388 -11 q 163 26 226 -11 q 65 133 100 64 q 29 296 29 203 q 38 389 29 339 q 119 599 58 508 q 268 738 181 689 q 453 786 356 786 q 585 756 531 786 q 668 667 640 725 l 686 775 l 919 775 l 900 667 q 1169 786 1001 786 m 1213 454 q 1215 479 1215 471 q 1174 565 1215 533 q 1069 596 1133 596 q 952 560 1006 596 q 875 454 899 524 l 1213 454 m 618 388 q 622 433 622 413 q 583 540 622 501 q 482 579 543 579 q 353 528 411 579 q 279 389 294 478 q 275 343 275 364 q 315 235 275 275 q 414 196 354 196 q 543 247 485 196 q 618 388 601 299 m 1049 968 l 688 828 l 717 992 l 1081 1153 l 1049 968 z "},"Ș":{"ha":899,"x_min":46,"x_max":828,"o":"m 403 -10 q 145 59 244 -10 q 46 254 46 128 q 49 292 46 267 l 296 292 q 321 208 292 239 q 410 178 350 178 q 495 201 464 178 q 526 268 526 225 q 487 340 526 313 q 364 403 447 368 q 233 466 283 436 q 144 547 182 496 q 107 676 107 599 q 154 843 106 772 q 289 951 203 914 q 486 989 375 989 q 664 958 586 989 q 785 867 742 926 q 828 728 828 808 q 826 697 828 707 l 574 697 q 575 714 575 703 q 548 777 575 753 q 474 801 521 801 q 392 777 424 801 q 361 711 361 753 q 400 641 361 669 q 521 575 439 613 q 655 506 603 538 q 744 420 707 474 q 782 289 782 367 q 736 135 782 203 q 604 28 690 67 q 403 -10 518 -10 m 457 -56 q 464 -137 464 -101 q 457 -219 464 -175 q 381 -374 440 -317 q 224 -431 321 -431 l 240 -340 q 329 -249 313 -340 l 332 -226 l 244 -226 l 275 -56 l 457 -56 z "},"ș":{"ha":775,"x_min":17,"x_max":713,"o":"m 338 -11 q 173 18 246 -11 q 58 99 100 47 q 17 219 17 151 q 19 254 17 229 l 249 254 q 274 185 246 211 q 356 160 303 160 q 429 176 400 160 q 458 224 458 193 q 427 270 458 253 q 324 313 396 288 q 198 362 249 338 q 111 432 147 386 q 75 547 75 478 q 115 670 75 615 q 228 756 156 725 q 397 786 301 786 q 564 755 493 786 q 674 668 635 724 q 713 543 713 613 l 711 522 l 496 522 q 471 589 499 564 q 392 614 443 614 q 326 597 351 614 q 300 551 300 581 q 334 501 300 521 q 440 456 368 481 q 565 406 515 431 q 649 338 614 382 q 685 229 685 294 q 640 100 685 154 q 516 17 594 46 q 338 -11 438 -11 m 393 -56 q 400 -137 400 -101 q 393 -219 400 -175 q 317 -374 376 -317 q 161 -431 257 -431 l 178 -340 q 265 -249 249 -340 l 269 -226 l 182 -226 l 211 -56 l 393 -56 z "},"Ț":{"ha":821,"x_min":101,"x_max":889,"o":"m 889 975 l 857 788 l 597 788 l 458 0 l 221 0 l 360 788 l 101 788 l 135 975 l 889 975 m 419 -56 q 425 -131 425 -90 q 417 -219 425 -178 q 341 -374 400 -317 q 186 -431 282 -431 l 203 -340 q 290 -249 274 -340 l 294 -226 l 207 -226 l 238 -56 l 419 -56 z "},"ț":{"ha":564,"x_min":61,"x_max":583,"o":"m 338 267 q 336 249 336 260 q 351 213 336 224 q 399 201 365 201 l 483 201 l 447 0 l 326 0 q 93 196 93 0 q 100 269 93 225 l 156 578 l 61 578 l 96 775 l 190 775 l 224 964 l 461 964 l 428 775 l 583 775 l 549 578 l 393 578 l 338 267 m 296 -56 q 303 -137 303 -101 q 296 -219 303 -175 q 219 -374 279 -317 q 63 -431 160 -431 l 79 -340 q 168 -249 151 -340 l 171 -226 l 83 -226 l 114 -56 l 296 -56 z "},"ə":{"ha":856,"x_min":31,"x_max":826,"o":"m 497 786 q 737 703 647 786 q 826 476 826 619 q 818 388 826 433 q 732 176 797 267 q 569 38 667 86 q 357 -11 472 -11 q 119 70 207 -11 q 31 292 31 151 q 38 374 31 338 q 54 442 43 406 l 592 442 q 593 468 593 450 q 560 561 593 529 q 471 593 526 593 q 335 518 382 593 l 82 518 q 244 711 132 636 q 497 786 357 786 m 394 179 q 502 216 456 179 q 569 321 549 253 l 271 321 q 268 294 268 301 q 303 209 268 239 q 394 179 338 179 z "},"ʼ":{"ha":436,"x_min":117,"x_max":497,"o":"m 254 975 l 497 975 l 276 603 l 117 603 l 254 975 z "},"ˆ":{"ha":458,"x_min":89,"x_max":549,"o":"m 326 946 l 89 825 l 118 989 l 354 1106 l 549 989 l 519 825 l 326 946 z "},"ˇ":{"ha":458,"x_min":110,"x_max":569,"o":"m 540 942 l 304 825 l 110 942 l 139 1106 l 333 985 l 569 1106 l 540 942 z "},"ˉ":{"ha":583,"x_min":97,"x_max":682,"o":"m 682 1036 l 653 872 l 97 872 l 126 1036 l 682 1036 z "},"˘":{"ha":500,"x_min":128,"x_max":611,"o":"m 607 1079 q 510 902 586 965 q 328 839 435 839 q 182 888 236 839 q 128 1024 128 936 q 133 1079 128 1040 l 139 1106 l 257 1106 q 254 1081 254 1089 q 278 1030 254 1047 q 358 1013 303 1013 q 454 1036 424 1013 q 493 1106 485 1060 l 611 1106 l 607 1079 z "},"˙":{"ha":232,"x_min":113,"x_max":319,"o":"m 197 861 q 136 884 160 861 q 113 943 113 907 q 149 1029 113 993 q 233 1065 186 1065 q 296 1042 272 1065 q 319 981 319 1018 q 283 897 319 932 q 197 861 246 861 z "},"˚":{"ha":364,"x_min":117,"x_max":460,"o":"m 119 1000 q 190 1122 133 1076 q 318 1168 246 1168 q 420 1133 381 1168 q 460 1036 460 1097 q 432 930 460 976 q 358 858 404 883 q 258 832 311 832 q 156 868 196 832 q 117 965 117 904 q 119 1000 117 975 m 357 1015 q 341 1053 357 1039 q 300 1068 325 1068 q 244 1045 268 1068 q 219 988 219 1022 q 235 947 219 963 q 276 932 251 932 q 333 956 308 932 q 357 1015 357 979 z "},"˛":{"ha":375,"x_min":-79,"x_max":281,"o":"m 281 0 l 213 -32 q 126 -82 151 -60 q 101 -131 101 -104 q 115 -158 101 -149 q 156 -168 129 -168 q 265 -147 201 -168 l 242 -281 q 101 -301 172 -301 q -30 -269 19 -301 q -79 -172 -79 -236 q -76 -143 -79 -162 q -4 -24 -64 -78 q 190 83 56 31 l 250 107 l 281 0 z "},"˜":{"ha":569,"x_min":86,"x_max":678,"o":"m 86 847 q 314 1053 154 1053 q 367 1044 344 1053 q 417 1017 389 1035 q 453 997 438 1003 q 485 990 468 990 q 556 1053 538 990 l 678 1053 q 450 847 610 847 q 397 856 419 847 q 347 883 375 865 q 311 903 326 897 q 279 910 296 910 q 207 847 229 910 l 86 847 z "},"˝":{"ha":615,"x_min":90,"x_max":729,"o":"m 236 835 l 90 835 l 246 1125 l 433 1125 l 236 835 m 504 835 l 358 835 l 542 1125 l 729 1125 l 504 835 z "},"π":{"ha":982,"x_min":54,"x_max":1021,"o":"m 1021 775 l 989 594 l 890 594 l 786 0 l 549 0 l 654 594 l 397 594 l 292 0 l 54 0 l 160 594 l 63 594 l 94 775 l 1021 775 z "},"Ẁ":{"ha":1461,"x_min":136,"x_max":1529,"o":"m 1529 975 l 1103 0 l 815 0 l 772 640 l 499 0 l 211 0 l 136 975 l 390 975 l 406 265 l 704 975 l 967 975 l 1008 269 l 1274 975 l 1529 975 m 978 1192 l 947 1028 l 639 1168 l 671 1353 l 978 1192 z "},"ẁ":{"ha":1203,"x_min":72,"x_max":1265,"o":"m 1265 775 l 918 0 l 656 0 l 622 503 l 407 0 l 146 0 l 72 775 l 310 775 l 321 221 l 550 775 l 801 775 l 836 221 l 1042 775 l 1265 775 m 843 992 l 813 828 l 504 968 l 536 1153 l 843 992 z "},"Ẃ":{"ha":1461,"x_min":136,"x_max":1529,"o":"m 1529 975 l 1103 0 l 815 0 l 772 640 l 499 0 l 211 0 l 136 975 l 390 975 l 406 265 l 704 975 l 967 975 l 1008 269 l 1274 975 l 1529 975 m 1033 1172 l 672 1032 l 701 1196 l 1065 1357 l 1033 1172 z "},"ẃ":{"ha":1203,"x_min":72,"x_max":1265,"o":"m 1265 775 l 918 0 l 656 0 l 622 503 l 407 0 l 146 0 l 72 775 l 310 775 l 321 221 l 550 775 l 801 775 l 836 221 l 1042 775 l 1265 775 m 907 968 l 546 828 l 575 992 l 939 1153 l 907 968 z "},"Ẅ":{"ha":1461,"x_min":136,"x_max":1529,"o":"m 1529 975 l 1103 0 l 815 0 l 772 640 l 499 0 l 211 0 l 136 975 l 390 975 l 406 265 l 704 975 l 967 975 l 1008 269 l 1274 975 l 1529 975 m 671 1063 q 609 1086 633 1063 q 585 1146 585 1110 q 622 1231 585 1196 q 707 1267 658 1267 q 769 1243 746 1267 q 793 1183 793 1219 q 756 1098 793 1133 q 671 1063 719 1063 m 949 1063 q 887 1086 911 1063 q 863 1146 863 1110 q 899 1231 863 1196 q 985 1267 936 1267 q 1047 1243 1024 1267 q 1071 1183 1071 1219 q 1034 1098 1071 1133 q 949 1063 997 1063 z "},"ẅ":{"ha":1203,"x_min":72,"x_max":1265,"o":"m 1265 775 l 918 0 l 656 0 l 622 503 l 407 0 l 146 0 l 72 775 l 310 775 l 321 221 l 550 775 l 801 775 l 836 221 l 1042 775 l 1265 775 m 544 861 q 483 885 507 861 q 458 944 458 908 q 495 1030 458 994 q 581 1065 532 1065 q 643 1042 619 1065 q 667 982 667 1018 q 630 897 667 932 q 544 861 593 861 m 822 861 q 760 885 785 861 q 736 944 736 908 q 773 1030 736 994 q 858 1065 810 1065 q 921 1042 897 1065 q 944 982 944 1018 q 908 897 944 932 q 822 861 871 861 z "},"Ẽ":{"ha":751,"x_min":15,"x_max":807,"o":"m 392 788 l 357 585 l 675 585 l 643 406 l 325 406 l 286 188 l 646 188 l 613 0 l 15 0 l 188 975 l 785 975 l 751 788 l 392 788 m 215 1050 q 443 1256 283 1256 q 496 1247 474 1256 q 546 1219 518 1238 q 582 1199 567 1206 q 614 1193 597 1193 q 685 1256 667 1193 l 807 1256 q 579 1050 739 1050 q 526 1059 549 1050 q 476 1086 504 1068 q 440 1106 456 1100 q 408 1113 425 1113 q 336 1050 358 1113 l 215 1050 z "},"ẽ":{"ha":856,"x_min":29,"x_max":832,"o":"m 499 786 q 737 705 649 786 q 825 483 825 624 q 818 401 825 438 q 801 333 813 369 l 264 333 q 263 307 263 325 q 296 214 263 246 q 385 182 329 182 q 521 257 474 182 l 774 257 q 611 64 724 139 q 358 -11 499 -11 q 119 72 208 -11 q 29 299 29 156 q 38 388 29 342 q 124 599 58 508 q 286 738 189 689 q 499 786 383 786 m 585 454 q 588 481 588 474 q 553 566 588 536 q 461 596 518 596 q 353 559 400 596 q 286 454 307 522 l 585 454 m 240 847 q 468 1053 308 1053 q 521 1044 499 1053 q 571 1017 543 1035 q 607 997 592 1003 q 639 990 622 990 q 710 1053 692 990 l 832 1053 q 604 847 764 847 q 551 856 574 847 q 501 883 529 865 q 465 903 481 897 q 433 910 450 910 q 361 847 383 910 l 240 847 z "},"Ỳ":{"ha":932,"x_min":111,"x_max":1024,"o":"m 1024 975 l 572 322 l 514 0 l 276 0 l 335 322 l 111 975 l 381 975 l 497 568 l 757 975 l 1024 975 m 769 1194 l 739 1031 l 431 1171 l 463 1356 l 769 1194 z "},"ỳ":{"ha":878,"x_min":1,"x_max":944,"o":"m 329 775 l 424 290 l 688 775 l 944 775 l 257 -368 l 1 -368 l 249 26 l 65 775 l 329 775 m 706 992 l 675 828 l 367 968 l 399 1153 l 706 992 z "},"Ỹ":{"ha":932,"x_min":111,"x_max":1024,"o":"m 1024 975 l 572 322 l 514 0 l 276 0 l 335 322 l 111 975 l 381 975 l 497 568 l 757 975 l 1024 975 m 304 1050 q 532 1256 372 1256 q 585 1247 563 1256 q 635 1219 607 1238 q 671 1199 656 1206 q 703 1193 686 1193 q 774 1256 756 1193 l 896 1256 q 668 1050 828 1050 q 615 1059 638 1050 q 565 1086 593 1068 q 529 1106 544 1100 q 497 1113 514 1113 q 425 1050 447 1113 l 304 1050 z "},"ỹ":{"ha":878,"x_min":1,"x_max":944,"o":"m 329 775 l 424 290 l 688 775 l 944 775 l 257 -368 l 1 -368 l 249 26 l 65 775 l 329 775 m 240 847 q 468 1053 308 1053 q 521 1044 499 1053 q 571 1017 543 1035 q 607 997 592 1003 q 639 990 622 990 q 710 1053 692 990 l 832 1053 q 604 847 764 847 q 551 856 574 847 q 501 883 529 865 q 465 903 481 897 q 433 910 450 910 q 361 847 383 910 l 240 847 z "},"–":{"ha":965,"x_min":96,"x_max":901,"o":"m 901 586 l 867 389 l 96 389 l 131 586 l 901 586 z "},"—":{"ha":1292,"x_min":96,"x_max":1228,"o":"m 1228 586 l 1193 389 l 96 389 l 131 586 l 1228 586 z "},"‘":{"ha":436,"x_min":79,"x_max":460,"o":"m 322 603 l 79 603 l 301 975 l 460 975 l 322 603 z "},"’":{"ha":436,"x_min":117,"x_max":497,"o":"m 254 975 l 497 975 l 276 603 l 117 603 l 254 975 z "},"‚":{"ha":408,"x_min":-50,"x_max":331,"o":"m 88 226 l 331 226 l 108 -146 l -50 -146 l 88 226 z "},"“":{"ha":761,"x_min":79,"x_max":785,"o":"m 322 603 l 79 603 l 301 975 l 460 975 l 322 603 m 647 603 l 404 603 l 625 975 l 785 975 l 647 603 z "},"”":{"ha":761,"x_min":117,"x_max":822,"o":"m 254 975 l 497 975 l 276 603 l 117 603 l 254 975 m 579 975 l 822 975 l 601 603 l 442 603 l 579 975 z "},"„":{"ha":728,"x_min":-50,"x_max":649,"o":"m 88 226 l 331 226 l 108 -146 l -50 -146 l 88 226 m 407 226 l 649 226 l 428 -146 l 268 -146 l 407 226 z "},"†":{"ha":908,"x_min":104,"x_max":906,"o":"m 874 594 l 586 613 l 438 -369 l 200 -369 l 396 613 l 104 594 l 136 775 l 422 757 l 457 1096 l 696 1096 l 613 757 l 906 775 l 874 594 z "},"‡":{"ha":908,"x_min":-10,"x_max":906,"o":"m 586 613 l 499 114 l 793 132 l 760 -49 l 474 -31 l 436 -369 l 199 -369 l 283 -31 l -10 -49 l 22 132 l 308 114 l 396 613 l 104 594 l 136 775 l 422 757 l 457 1096 l 694 1096 l 613 757 l 906 775 l 874 594 l 586 613 z "},"•":{"ha":696,"x_min":147,"x_max":571,"o":"m 322 254 q 196 302 244 254 q 147 425 147 350 q 182 549 147 492 q 274 639 217 606 q 396 672 332 672 q 522 624 474 672 q 571 501 571 576 q 536 379 571 436 q 444 288 501 322 q 322 254 386 254 z "},"…":{"ha":1056,"x_min":4,"x_max":957,"o":"m 458 -11 q 370 19 403 -11 q 338 94 338 49 q 385 203 338 158 q 504 247 433 247 q 590 217 558 247 q 622 140 622 188 q 574 33 622 78 q 458 -11 526 -11 m 793 -11 q 705 19 738 -11 q 672 94 672 49 q 720 203 672 158 q 839 247 768 247 q 925 217 893 247 q 957 140 957 188 q 909 33 957 78 q 793 -11 861 -11 m 125 -11 q 37 19 69 -11 q 4 94 4 49 q 52 203 4 158 q 171 247 100 247 q 257 217 225 247 q 289 140 289 188 q 241 33 289 78 q 125 -11 193 -11 z "},"‰":{"ha":1638,"x_min":100,"x_max":1569,"o":"m 104 758 q 200 931 125 869 q 378 992 275 992 q 520 945 467 992 q 574 813 574 899 q 568 758 574 785 q 474 586 549 647 q 297 525 400 525 q 153 572 207 525 q 100 706 100 619 q 104 758 100 732 m 1050 978 l 342 0 l 113 0 l 821 978 l 1050 978 m 353 851 q 269 758 286 851 q 267 726 267 733 q 319 665 267 665 q 374 688 351 665 q 404 758 396 711 q 407 789 407 781 q 353 851 407 851 m 596 219 q 690 392 615 331 q 868 453 765 453 q 1010 407 957 453 q 1063 275 1063 361 q 1057 219 1063 246 q 963 47 1038 108 q 786 -14 889 -14 q 644 33 697 -14 q 590 165 590 79 q 596 219 590 193 m 1101 219 q 1197 392 1122 331 q 1375 453 1272 453 q 1517 406 1464 453 q 1569 272 1569 358 q 1565 219 1569 249 q 1470 47 1544 108 q 1293 -14 1396 -14 q 1151 33 1204 -14 q 1097 167 1097 81 q 1101 219 1097 193 m 843 313 q 789 290 811 313 q 758 219 767 267 q 756 188 756 194 q 810 126 756 126 q 863 150 842 126 q 893 219 885 174 q 896 250 896 242 q 843 313 896 313 m 1350 313 q 1296 289 1318 313 q 1267 219 1274 265 q 1263 185 1263 201 q 1315 126 1263 126 q 1369 149 1347 126 q 1400 219 1392 172 q 1403 251 1403 244 q 1350 313 1403 313 z "},"‹":{"ha":468,"x_min":64,"x_max":443,"o":"m 138 167 l 64 410 l 224 653 l 443 653 l 279 410 l 357 167 l 138 167 z "},"›":{"ha":468,"x_min":28,"x_max":407,"o":"m 192 410 l 114 653 l 333 653 l 407 410 l 247 167 l 28 167 l 192 410 z "},"⁄":{"ha":792,"x_min":-57,"x_max":881,"o":"m 881 978 l 172 0 l -57 0 l 651 978 l 881 978 z "},"€":{"ha":1106,"x_min":15,"x_max":1108,"o":"m 567 210 q 694 242 636 210 q 793 333 753 274 l 1054 333 q 844 84 985 175 q 531 -7 704 -7 q 250 83 358 -7 q 124 328 142 174 l 15 328 l 38 451 l 124 451 q 129 489 126 476 l 138 529 l 51 529 l 72 654 l 182 654 q 395 897 256 807 q 706 986 535 986 q 987 894 879 986 q 1108 644 1094 803 l 847 644 q 781 735 828 704 q 664 767 733 767 q 540 738 597 767 q 440 654 482 708 l 672 654 l 651 529 l 379 529 l 371 489 q 367 451 367 471 l 638 451 l 615 328 l 381 328 q 451 240 403 271 q 567 210 499 210 z "},"₺":{"ha":1158,"x_min":1,"x_max":1113,"o":"m 1113 633 q 994 265 1072 406 q 789 56 917 124 q 471 -11 661 -11 q 126 29 325 -11 l 181 340 l 1 308 l 26 456 l 207 488 l 221 567 l 39 535 l 64 678 l 247 711 l 294 982 l 536 982 l 496 757 l 689 792 l 663 644 l 471 611 l 456 531 l 649 564 l 622 417 l 431 383 l 401 221 q 508 211 446 211 q 699 265 626 211 q 810 410 772 319 q 871 633 847 500 l 1113 633 z "},"₽":{"ha":936,"x_min":-25,"x_max":954,"o":"m 642 975 q 874 908 794 975 q 954 732 954 842 q 949 676 954 715 q 883 526 933 593 q 744 418 832 458 q 538 378 657 378 l 390 378 l 375 294 l 590 294 l 558 114 l 343 114 l 322 0 l 85 0 l 104 114 l -25 114 l 7 294 l 136 294 l 151 378 l 21 378 l 53 560 l 183 560 l 257 975 l 642 975 m 708 704 q 681 770 708 746 q 600 794 653 794 l 464 794 l 422 560 l 558 560 q 669 599 629 560 q 708 704 708 639 z "},"ℓ":{"ha":410,"x_min":15,"x_max":435,"o":"m 435 1028 l 253 0 l 15 0 l 197 1028 l 435 1028 z "},"™":{"ha":1226,"x_min":115,"x_max":1267,"o":"m 540 981 l 515 843 l 401 843 l 339 493 l 168 493 l 231 843 l 115 843 l 140 981 l 540 981 m 1267 981 l 1181 493 l 1024 493 l 1069 772 l 904 493 l 789 493 l 728 786 l 676 493 l 525 493 l 611 981 l 842 981 l 890 701 l 1053 981 l 1267 981 z "},"Ω":{"ha":1094,"x_min":-15,"x_max":1075,"o":"m 1067 513 q 867 181 1029 296 l 1001 181 l 968 0 l 593 0 l 628 186 q 819 485 788 303 q 826 557 826 529 q 770 715 826 660 q 613 771 714 771 q 412 695 494 771 q 306 485 329 619 q 299 410 299 451 q 394 186 299 278 l 360 0 l -15 0 l 18 181 l 150 181 q 60 413 60 267 q 69 513 60 451 q 179 764 94 656 q 388 931 264 872 q 651 989 513 989 q 871 942 775 989 q 1021 809 967 896 q 1075 606 1075 722 q 1067 513 1075 561 z "},"℮":{"ha":1039,"x_min":51,"x_max":1022,"o":"m 913 186 q 460 -10 694 -10 q 245 34 338 -10 q 102 161 153 78 q 51 361 51 244 q 61 467 51 414 q 163 734 88 615 q 357 922 239 853 q 622 990 475 990 q 842 940 751 990 q 977 806 932 890 q 1022 617 1022 721 q 1015 532 1022 568 l 999 444 l 321 444 l 278 199 q 485 128 361 128 q 670 167 582 128 q 847 281 758 206 l 913 186 m 794 797 q 600 857 726 857 q 381 788 476 857 l 343 567 l 754 567 l 794 797 z "},"∂":{"ha":854,"x_min":29,"x_max":849,"o":"m 38 346 q 128 570 60 471 q 292 724 196 669 q 493 779 389 779 q 636 719 589 779 q 592 848 633 803 q 460 893 550 893 q 368 883 417 893 l 389 1004 q 554 1028 475 1028 q 774 942 700 1028 q 849 700 849 856 q 836 563 849 636 q 728 257 806 386 q 540 59 651 128 q 300 -10 429 -10 q 104 58 179 -10 q 29 257 29 126 q 38 346 29 299 m 560 439 q 564 482 564 463 q 541 556 564 531 q 478 581 518 581 q 351 515 406 581 q 279 347 297 450 q 274 296 274 308 q 297 219 274 244 q 360 193 321 193 q 485 263 431 193 q 560 439 540 332 z "},"∆":{"ha":1021,"x_min":-43,"x_max":956,"o":"m 710 978 l 956 181 l 922 0 l -43 0 l -11 181 l 517 978 l 710 978 m 235 181 l 710 181 l 565 708 l 235 181 z "},"∏":{"ha":1038,"x_min":54,"x_max":1113,"o":"m 1113 978 l 1081 797 l 982 797 l 842 0 l 604 0 l 744 797 l 432 797 l 292 0 l 54 0 l 194 797 l 97 797 l 131 978 l 1113 978 z "},"∑":{"ha":744,"x_min":-28,"x_max":792,"o":"m 760 797 l 344 797 l 636 560 l 606 379 l 217 111 l 639 111 l 606 -69 l -28 -69 l 22 207 l 393 464 l 108 701 l 158 978 l 792 978 l 760 797 z "},"−":{"ha":754,"x_min":69,"x_max":717,"o":"m 717 586 l 681 389 l 69 389 l 106 586 l 717 586 z "},"∕":{"ha":629,"x_min":-103,"x_max":779,"o":"m 779 1319 l 126 -260 l -103 -260 l 549 1319 l 779 1319 z "},"∙":{"ha":415,"x_min":18,"x_max":303,"o":"m 139 308 q 51 338 83 308 q 18 414 18 368 q 66 522 18 478 q 185 567 114 567 q 271 537 239 567 q 303 460 303 507 q 255 353 303 397 q 139 308 207 308 z "},"√":{"ha":1292,"x_min":19,"x_max":1415,"o":"m 1415 1256 l 450 -57 l 335 -57 l 193 311 l 68 244 l 19 356 l 376 546 l 504 213 l 1271 1256 l 1415 1256 z "},"∞":{"ha":1079,"x_min":53,"x_max":1058,"o":"m 842 722 q 1001 674 943 722 q 1058 538 1058 626 q 1053 483 1058 510 q 997 356 1040 410 q 892 272 954 301 q 763 243 831 243 q 624 275 681 243 q 524 363 568 307 q 406 276 472 308 q 267 243 339 243 q 109 292 165 243 q 53 429 53 340 q 57 482 53 456 q 113 610 69 556 q 217 693 156 664 q 346 722 278 722 q 483 688 429 722 q 579 594 538 654 q 699 688 631 653 q 842 722 767 722 m 310 401 q 382 419 344 401 q 450 471 419 438 q 395 540 421 517 q 338 564 369 564 q 277 542 303 564 q 244 482 251 521 q 243 463 243 475 q 261 417 243 433 q 310 401 279 401 m 865 483 q 867 503 867 490 q 849 548 867 532 q 800 564 831 564 q 722 542 763 564 q 649 483 682 521 q 703 422 675 443 q 772 401 732 401 q 833 423 807 401 q 865 483 858 444 z "},"∫":{"ha":406,"x_min":-204,"x_max":636,"o":"m 260 1053 q 389 1251 299 1193 q 611 1308 479 1308 l 636 1308 l 581 1107 l 557 1107 q 497 1053 514 1107 l 171 -114 q 41 -312 132 -254 q -182 -369 -50 -369 l -204 -369 l -150 -168 l -126 -168 q -67 -114 -81 -168 l 260 1053 z "},"≈":{"ha":883,"x_min":18,"x_max":879,"o":"m 18 169 q 156 397 71 324 q 349 471 240 471 q 427 458 394 471 q 501 418 460 444 q 555 389 533 399 q 600 379 576 379 q 703 471 675 379 l 879 471 q 742 243 828 317 q 549 169 657 169 q 472 183 504 169 q 397 222 439 196 q 344 251 365 242 q 297 261 322 261 q 193 169 224 261 l 18 169 m 18 517 q 156 744 71 671 q 349 818 240 818 q 427 805 394 818 q 501 765 460 792 q 555 736 533 746 q 600 726 576 726 q 703 818 675 726 l 879 818 q 742 590 828 664 q 549 517 657 517 q 472 530 504 517 q 397 569 439 543 q 344 599 365 589 q 297 608 322 608 q 193 517 224 608 l 18 517 z "},"≠":{"ha":951,"x_min":36,"x_max":961,"o":"m 835 769 l 939 769 l 900 556 l 632 556 l 499 415 l 875 415 l 838 201 l 296 201 l 169 68 l 36 68 l 163 201 l 60 201 l 97 415 l 365 415 l 499 556 l 121 556 l 160 769 l 701 769 l 828 903 l 961 903 l 835 769 z "},"≤":{"ha":721,"x_min":25,"x_max":721,"o":"m 394 536 l 631 279 l 332 279 l 94 536 l 422 793 l 721 793 l 394 536 m 57 182 l 610 182 l 578 0 l 25 0 l 57 182 z "},"≥":{"ha":721,"x_min":3,"x_max":675,"o":"m 50 279 l 375 536 l 140 793 l 438 793 l 675 536 l 347 279 l 50 279 m 35 182 l 588 182 l 556 0 l 3 0 l 35 182 z "},"◊":{"ha":785,"x_min":43,"x_max":774,"o":"m 774 490 l 344 125 l 43 490 l 474 854 l 774 490 m 274 490 l 386 354 l 544 490 l 433 625 l 274 490 z "},"ﬁ":{"ha":913,"x_min":39,"x_max":933,"o":"m 414 775 l 875 775 l 738 0 l 500 0 l 603 578 l 379 578 l 278 0 l 39 0 l 140 578 l 54 578 l 89 775 l 175 775 l 179 797 q 298 1015 206 940 q 543 1089 390 1089 q 581 1088 568 1089 l 546 886 q 456 867 485 890 q 415 782 426 843 l 414 775 m 813 1090 q 901 1062 869 1090 q 933 986 933 1033 q 886 883 933 924 q 768 842 839 842 q 681 869 713 842 q 649 943 649 897 q 696 1048 649 1006 q 813 1090 743 1090 z "},"ﬂ":{"ha":910,"x_min":39,"x_max":935,"o":"m 557 886 q 458 867 489 890 q 415 782 426 843 l 414 775 l 542 775 l 507 578 l 379 578 l 278 0 l 39 0 l 140 578 l 54 578 l 89 775 l 175 775 l 179 797 q 301 1015 206 940 q 554 1089 396 1089 q 592 1088 579 1089 l 557 886 m 935 1028 l 753 0 l 515 0 l 697 1028 l 935 1028 z "}}}
